<?xml version="1.0" encoding="utf-8"?>
<!-- Generator: Adobe Illustrator 16.0.0, SVG Export Plug-In . SVG Version: 6.00 Build 0)  -->
<!DOCTYPE svg PUBLIC "-//W3C//DTD SVG 1.1//EN" "http://www.w3.org/Graphics/SVG/1.1/DTD/svg11.dtd">
<svg version="1.1" id="Calque_1" xmlns="http://www.w3.org/2000/svg" xmlns:xlink="http://www.w3.org/1999/xlink" x="0px" y="0px"
	 width="320px" height="440px" viewBox="0 0 320 440" enable-background="new 0 0 320 440" xml:space="preserve">
<g>
	<rect x="3.765" y="3.411" fill="#FFFFFF" stroke="#000000" stroke-width="0.8938" width="312.233" height="433.197"/>
	<g>
		<g>
			<path d="M297.801,13.55c0,1.338-0.611,4.589-5.396,4.589c-4.782,0-7.771-3.25-7.771-7.69S288.311,0,296.348,0
				c8.035,0,11.099,5.972,11.099,10.945c0,4.975-4.324,12.632-12.784,12.632c-8.458,0-17.028-10.393-22.58-15.538
				c-5.556-5.138-7.406-6.033-10.422-6.033c-3.019,0-3.223,0.753-4.117,1.236c-0.892,0.477-1.645,0.275-1.645,0.275
				s0-0.415,0.483-1.102c0.477-0.684,1.779-1.645,5.485-1.645c3.696,0,5.823,1.375,9.526,4.801
				c3.706,3.423,9.738,8.64,12.961,11.378c3.222,2.748,7.063,5.077,10.218,5.077s11.655-2.881,11.655-10.901
				c0-8.024-7.405-9.462-10.012-9.462c-2.603,0-10.35,2.537-10.35,8.775c0,6.241,5.687,6.585,6.648,6.585
				c0.961,0,3.565-0.14,3.565-3.362c0,0,0-1.026-0.957-1.577c-0.964-0.549-0.894-1.167-0.894-1.167s0.615-0.409,1.23-0.276
				C296.08,10.784,297.801,11.376,297.801,13.55z"/>
			<path d="M306.449,21.845c-1.34,0-4.592,0.617-4.592,5.401c0,4.783,3.252,7.769,7.691,7.769S320,31.342,320,23.3
				c0-8.035-5.971-11.097-10.949-11.097c-4.974,0-12.628,4.326-12.628,12.787c0,8.453,10.392,17.022,15.533,22.576
				c5.146,5.554,6.036,7.407,6.036,10.423c0,3.017-0.757,3.226-1.235,4.115c-0.479,0.89-0.274,1.649-0.274,1.649
				s0.411,0,1.097-0.483c0.686-0.48,1.647-1.786,1.647-5.487s-1.371-5.825-4.801-9.528c-3.429-3.704-8.637-9.738-11.385-12.958
				c-2.74-3.228-5.069-7.066-5.069-10.222c0-3.152,2.876-11.654,10.899-11.654c8.022,0,9.463,7.407,9.463,10.008
				c0,2.606-2.537,10.355-8.776,10.355c-6.242,0-6.584-5.692-6.584-6.649c0-0.962,0.139-3.568,3.357-3.568c0,0,1.033,0,1.582,0.96
				c0.546,0.96,1.166,0.891,1.166,0.891s0.407-0.616,0.274-1.231C309.215,23.568,308.623,21.845,306.449,21.845z"/>
		</g>
		<g>
			<path d="M13.724,22.2c1.341,0,4.593,0.61,4.593,5.393c0,4.785-3.252,7.767-7.693,7.767c-4.437,0-10.446-3.673-10.446-11.708
				c0-8.037,5.97-11.1,10.944-11.1c4.978,0,12.634,4.326,12.634,12.785S13.359,42.366,8.216,47.915
				c-5.139,5.558-6.032,7.407-6.032,10.423c0,3.015,0.755,3.224,1.236,4.115c0.478,0.891,0.271,1.647,0.271,1.647
				s-0.41,0-1.094-0.481c-0.689-0.477-1.648-1.781-1.648-5.487c0-3.7,1.373-5.827,4.798-9.526c3.43-3.706,8.643-9.739,11.385-12.96
				c2.742-3.226,5.071-7.067,5.071-10.217c0-3.155-2.88-11.659-10.9-11.659c-8.022,0-9.46,7.405-9.46,10.015
				c0,2.604,2.535,10.351,8.777,10.351c6.24,0,6.58-5.692,6.58-6.649c0-0.962-0.135-3.568-3.359-3.568c0,0-1.028,0-1.576,0.96
				c-0.55,0.958-1.167,0.894-1.167,0.894s-0.41-0.62-0.273-1.236C10.962,23.918,11.555,22.2,13.724,22.2z"/>
			<path d="M22.024,13.55c0,1.338,0.612,4.589,5.396,4.589c4.786,0,7.771-3.25,7.771-7.69S31.514,0,23.479,0
				c-8.038,0-11.103,5.972-11.103,10.945c0,4.975,4.328,12.632,12.785,12.632S42.191,13.183,47.744,8.04
				c5.555-5.138,7.407-6.033,10.421-6.033c3.018,0,3.223,0.753,4.116,1.236c0.891,0.474,1.645,0.275,1.645,0.275s0-0.415-0.48-1.102
				c-0.479-0.684-1.783-1.645-5.485-1.645c-3.703,0-5.83,1.375-9.529,4.801c-3.704,3.423-9.738,8.64-12.961,11.378
				c-3.222,2.748-7.064,5.077-10.217,5.077c-3.155,0-11.657-2.881-11.657-10.901c0-8.024,7.405-9.462,10.012-9.462
				c2.605,0,10.353,2.537,10.353,8.775c0,6.241-5.69,6.582-6.652,6.582c-0.958,0-3.565-0.137-3.565-3.359c0,0,0-1.026,0.961-1.577
				c0.959-0.549,0.892-1.167,0.892-1.167s-0.618-0.409-1.235-0.276C23.744,10.782,22.024,11.376,22.024,13.55z"/>
		</g>
	</g>
	<rect x="20.923" y="29.421" fill="none" stroke="#000000" stroke-width="0.3035" width="277.381" height="381.459"/>
</g>
<g>
	<path d="M306.457,417.804c-1.342,0-4.596-0.61-4.596-5.396c0-4.784,3.254-7.771,7.693-7.771S320,408.313,320,416.347
		c0,8.04-5.969,11.102-10.942,11.102c-4.979,0-12.631-4.326-12.631-12.787c0-8.454,10.395-17.022,15.536-22.573
		c5.14-5.561,6.036-7.41,6.036-10.424c0-3.021-0.758-3.227-1.238-4.117c-0.479-0.888-0.274-1.649-0.274-1.649s0.413,0,1.097,0.485
		c0.688,0.479,1.649,1.78,1.649,5.485c0,3.699-1.375,5.823-4.803,9.529c-3.425,3.704-8.641,9.735-11.382,12.958
		c-2.74,3.221-5.072,7.066-5.072,10.217c0,3.155,2.878,11.659,10.901,11.659c8.022,0,9.462-7.408,9.462-10.008
		c0-2.613-2.535-10.362-8.779-10.362c-6.236,0-6.579,5.696-6.579,6.651c0,0.963,0.135,3.571,3.357,3.571c0,0,1.031,0,1.577-0.962
		c0.551-0.959,1.171-0.888,1.171-0.888s0.407,0.613,0.27,1.228C309.223,416.084,308.629,417.804,306.457,417.804z"/>
	<path d="M298.157,426.452c0-1.34-0.613-4.589-5.398-4.589c-4.781,0-7.766,3.249-7.766,7.688c0,4.438,3.672,10.448,11.708,10.448
		c8.034,0,11.099-5.974,11.099-10.947c0-4.975-4.324-12.624-12.78-12.624c-8.459,0-17.03,10.389-22.583,15.528
		c-5.553,5.145-7.405,6.034-10.423,6.034c-3.017,0-3.224-0.753-4.113-1.235c-0.892-0.479-1.647-0.275-1.647-0.275
		s0,0.415,0.479,1.103c0.483,0.685,1.782,1.645,5.488,1.645c3.7,0,5.826-1.371,9.528-4.801c3.704-3.424,9.737-8.641,12.96-11.378
		c3.223-2.748,7.062-5.078,10.219-5.078c3.153,0,11.654,2.881,11.654,10.9c0,8.024-7.402,9.465-10.014,9.465
		c-2.604,0-10.349-2.538-10.349-8.774c0-6.238,5.688-6.584,6.651-6.584c0.96,0,3.563,0.134,3.563,3.359c0,0,0,1.022-0.96,1.575
		c-0.959,0.551-0.89,1.169-0.89,1.169s0.613,0.411,1.234,0.276C296.434,429.216,298.157,428.621,298.157,426.452z"/>
</g>
<g>
	<path d="M22.379,426.452c0-1.34,0.611-4.589,5.396-4.589c4.783,0,7.768,3.249,7.768,7.688c0,4.438-3.675,10.448-11.711,10.448
		s-11.099-5.974-11.099-10.947c0-4.972,4.322-12.624,12.783-12.624c8.459,0,17.027,10.389,22.581,15.528
		c5.555,5.145,7.406,6.034,10.42,6.034c3.021,0,3.224-0.753,4.117-1.235c0.889-0.479,1.648-0.275,1.648-0.275s0,0.415-0.482,1.103
		c-0.48,0.685-1.781,1.645-5.484,1.645c-3.704,0-5.83-1.371-9.533-4.801c-3.7-3.424-9.738-8.641-12.958-11.378
		c-3.225-2.748-7.065-5.078-10.22-5.078c-3.149,0-11.651,2.881-11.651,10.9c0,8.024,7.401,9.465,10.01,9.465
		c2.604,0,10.351-2.538,10.351-8.774c0-6.238-5.692-6.584-6.649-6.584c-0.96,0-3.568,0.134-3.568,3.359c0,0,0,1.022,0.963,1.575
		c0.96,0.551,0.89,1.169,0.89,1.169s-0.617,0.411-1.231,0.276C24.098,429.216,22.379,428.621,22.379,426.452z"/>
	<path d="M13.729,418.153c1.34,0,4.595-0.616,4.595-5.396c0-4.787-3.255-7.772-7.695-7.772s-10.45,3.678-10.45,11.717
		c0,8.03,5.973,11.095,10.95,11.095c4.972,0,12.627-4.326,12.627-12.785c0-8.455-10.393-17.024-15.533-22.578
		c-5.142-5.558-6.034-7.405-6.034-10.421c0-3.019,0.752-3.225,1.234-4.114c0.478-0.896,0.273-1.646,0.273-1.646
		s-0.413,0-1.097,0.479c-0.686,0.482-1.645,1.781-1.645,5.485c0,3.699,1.373,5.824,4.799,9.53c3.43,3.699,8.64,9.733,11.383,12.961
		c2.742,3.223,5.075,7.059,5.075,10.217c0,3.15-2.88,11.658-10.905,11.658c-8.022,0-9.46-7.409-9.46-10.016
		c0-2.605,2.539-10.35,8.775-10.35c6.241,0,6.584,5.688,6.584,6.647c0,0.962-0.139,3.566-3.359,3.566c0,0-1.028,0-1.577-0.959
		c-0.551-0.962-1.165-0.896-1.165-0.896s-0.412,0.62-0.275,1.233C10.964,416.433,11.559,418.153,13.729,418.153z"/>
</g>
</svg>
