<?xml version="1.0" encoding="utf-8"?>
<!-- Generator: Adobe Illustrator 16.0.0, SVG Export Plug-In . SVG Version: 6.00 Build 0)  -->
<!DOCTYPE svg PUBLIC "-//W3C//DTD SVG 1.1//EN" "http://www.w3.org/Graphics/SVG/1.1/DTD/svg11.dtd">
<svg version="1.1" id="Calque_1" xmlns="http://www.w3.org/2000/svg" xmlns:xlink="http://www.w3.org/1999/xlink" x="0px" y="0px"
	 width="182px" height="72px" viewBox="0 0 182 72" enable-background="new 0 0 182 72" xml:space="preserve">
<circle fill="#DC143C" cx="91" cy="36" r="36"/>
<g>
	<ellipse fill="none" stroke="#000000" stroke-miterlimit="10" cx="90.955" cy="36" rx="32.455" ry="32.5"/>
</g>
<g>
	<g>
		<path fill="#DC143C" d="M137.11,39.104c1.623,0.477,1.276,2.264-0.143,2.691c-1.373,0.408-2.68-0.762-3.427-1.729
			c-1.104-1.428-1.341-3.386-0.898-5.09c0.896-3.456,4.617-5.379,7.877-5.804c4.896-0.638,10.074,1.121,14.038,3.934
			c4.251,3.015,6.982,8.681,4.539,13.722c-1.243,2.563-4.959,3.967-7.119,1.754c-1.037-1.064-2.811-5.715,0.033-5.605
			c0.046,0.002,0.046-0.068,0-0.07c-1.729-0.096-1.791,1.914-1.581,3.172c0.337,2.018,1.777,3.996,3.925,4.158
			c3.181,0.24,5.402-2.25,6.178-5.078c0.779-2.852,0.203-5.869-1.253-8.389c-3.047-5.27-9.587-8.009-15.424-8.381
			c-2.894-0.185-6.112,0.3-8.415,2.191c-2.43,1.995-4.217,5.316-2.736,8.436c0.859,1.807,2.81,3.805,4.945,2.688
			c1.541-0.803,0.813-2.283-0.532-2.623C137.103,39.076,137.097,39.1,137.11,39.104L137.11,39.104z"/>
	</g>
	<g>
		<path fill="#DC143C" d="M134.116,33.744c2.746-3.869,8.696-3.485,12.631-1.997c4.413,1.668,7.263,5.984,7.843,10.558
			c0.594,4.693-2.448,9.121-7.536,8.387c-2.553-0.369-4.641-2.305-5.212-4.795c-0.307-1.342,0.295-2.672,1.466-3.352
			c1.395-0.805,2.723,0.328,3.444,1.443c0.059,0.09,0.183,0.012,0.143-0.084c-0.791-1.811-2.615-2.58-4.306-1.359
			c-1.952,1.412-1.252,4.227-0.123,5.893c3.073,4.537,10.026,3.373,12.029-1.402c2.13-5.072-0.991-11.427-5.229-14.327
			c-4.292-2.939-11.706-3.33-15.176,1.016C134.074,33.743,134.103,33.764,134.116,33.744L134.116,33.744z"/>
	</g>
	<g>
		<path fill="#DC143C" d="M141.299,30.734c3.052,0.031,5.998,0.028,8.641,1.77c2.546,1.68,4.475,4.321,6.617,6.455
			c3.071,3.057,7.911,6.266,12.354,4.357c2.553-1.1,3.588-5.123,2.172-7.411c-1.657-2.676-6.406-1.016-5.259,2.204
			c0.029,0.082,0.172,0.076,0.161-0.021c-0.302-2.583,2.9-3.93,4.317-1.727c0.701,1.09,0.446,2.598,0.051,3.734
			c-1.562,4.48-7.162,2.529-10.065,0.754c-3.368-2.057-5.782-5.204-8.885-7.584c-3.171-2.435-6.225-2.613-10.104-2.554
			C141.284,30.711,141.284,30.734,141.299,30.734L141.299,30.734z"/>
	</g>
	<g>
		<path fill="#DC143C" d="M134.615,33.747c2.282-2.379,6.396-2.812,9.271-1.37c1.487,0.747,2.466,2.27,2.683,3.887
			c0.126,0.949-0.181,1.916-0.962,2.5c-1.701,1.283-2.747-1.507-1.128-1.408c0.107,0.006,0.144-0.146,0.054-0.197
			c-1.54-0.859-1.775,1.461-0.848,2.293c0.755,0.676,1.915,0.396,2.696-0.041c1.073-0.6,1.317-2.039,1.267-3.146
			c-0.127-2.731-2.899-4.533-5.32-4.98c-2.791-0.515-5.718,0.515-7.735,2.439C134.576,33.738,134.601,33.764,134.615,33.747
			L134.615,33.747z"/>
	</g>
	<g>
		<path fill="#DC143C" d="M147.489,28.558c3.611,0.843,6.704,2.714,9.837,4.62c1.819,1.106,4.067,2.77,6.23,1.608
			c1.061-0.567,1.98-2.492,0.513-3.114c-0.766-0.324-1.831,0.254-1.24,1.093c0.032,0.047,0.116,0.049,0.13-0.016
			c0.177-0.897,1.697-0.719,1.069,0.649c-0.621,1.357-2.079,1.399-3.3,1.063c-1.461-0.404-2.856-1.402-4.164-2.143
			c-2.89-1.638-5.786-3.127-9.069-3.784C147.479,28.532,147.474,28.555,147.489,28.558L147.489,28.558z"/>
	</g>
	<g>
		<path fill="#DC143C" d="M155.681,38.266c0.466,1.531,0.118,2.428-1.039,2.689c-0.756,0.174-1.409-0.008-1.962-0.547
			c-0.719-0.646-0.683-1.846-0.538-2.697c0.308-1.833,1.983-2.648,3.668-2.608c2.812,0.063,5.502,2.086,7.109,4.237
			c1.822,2.443,2.815,5.656,2.232,8.68c-0.348,1.803-1.562,3.34-3.096,4.299c-1.12,0.699-2.294,0.43-3.207-0.389
			c-0.281-0.279-0.522-0.59-0.721-0.936c-0.105-0.227-0.211-0.455-0.316-0.684c-0.387-0.963,0.178-1.672,1.696-2.121
			c0.081,0.035,0.151-0.072,0.071-0.121c-1.861-1.131-2.517,1.383-2.075,2.744c0.738,2.271,2.836,3.113,4.915,2.125
			c2.453-1.166,3.604-4.113,3.669-6.648c0.074-2.959-1.361-5.881-3.18-8.127c-2.32-2.867-9.269-5.936-11.048-0.936
			c-0.531,1.494,0.055,4.127,2.047,4.111c1.787-0.014,3.05-1.584,1.797-3.096C155.691,38.227,155.668,38.25,155.681,38.266
			L155.681,38.266z"/>
	</g>
	<g>
		<path fill="#DC143C" d="M158.369,34.918c4.74,1.63,6.632,6.385,9.527,10.047c2.333,2.949,6.848,5.635,10.685,3.895
			c2.666-1.207,4.045-6.137,0.828-7.576c-2.513-1.123-4.145,1.871-2.575,3.783c0.102,0.125,0.338-0.01,0.274-0.16
			c-0.534-1.291-0.82-2.979,1.041-3.205c1.831-0.223,2.287,1.818,2.21,3.199c-0.25,4.475-5.992,3.797-8.708,2.279
			c-5.478-3.068-6.818-10.501-13.276-12.284C158.359,34.892,158.354,34.913,158.369,34.918L158.369,34.918z"/>
	</g>
</g>
<g>
	<g>
		<path fill="#DC143C" d="M44.748,39.754c-1.623,0.477-1.276,2.264,0.143,2.691c1.373,0.408,2.68-0.762,3.427-1.729
			c1.104-1.428,1.341-3.386,0.898-5.09c-0.896-3.456-4.617-5.379-7.877-5.804c-4.896-0.638-10.074,1.121-14.038,3.934
			c-4.251,3.015-6.982,8.681-4.539,13.722c1.243,2.563,4.959,3.967,7.119,1.754c1.037-1.064,2.811-5.715-0.033-5.605
			c-0.046,0.002-0.046-0.068,0-0.07c1.729-0.096,1.791,1.914,1.581,3.172c-0.337,2.018-1.777,3.996-3.925,4.158
			c-3.181,0.24-5.402-2.25-6.178-5.078c-0.779-2.852-0.203-5.869,1.253-8.389c3.047-5.27,9.587-8.009,15.424-8.381
			c2.894-0.185,6.112,0.3,8.415,2.191c2.43,1.995,4.217,5.316,2.736,8.436c-0.859,1.807-2.81,3.805-4.945,2.688
			c-1.541-0.803-0.813-2.283,0.532-2.623C44.755,39.727,44.761,39.75,44.748,39.754L44.748,39.754z"/>
	</g>
	<g>
		<path fill="#DC143C" d="M47.742,34.394c-2.746-3.869-8.696-3.485-12.631-1.997c-4.413,1.668-7.263,5.984-7.843,10.558
			c-0.594,4.693,2.448,9.121,7.536,8.387c2.553-0.369,4.641-2.305,5.212-4.795c0.307-1.342-0.295-2.672-1.466-3.352
			c-1.395-0.805-2.723,0.328-3.444,1.443c-0.059,0.09-0.183,0.012-0.143-0.084c0.791-1.811,2.615-2.58,4.306-1.359
			c1.952,1.412,1.252,4.227,0.123,5.893c-3.073,4.537-10.026,3.373-12.029-1.402c-2.13-5.072,0.991-11.427,5.229-14.327
			c4.292-2.939,11.706-3.33,15.176,1.016C47.784,34.393,47.755,34.414,47.742,34.394L47.742,34.394z"/>
	</g>
	<g>
		<path fill="#DC143C" d="M40.559,31.385c-3.052,0.031-5.998,0.028-8.641,1.77c-2.546,1.68-4.475,4.32-6.617,6.455
			c-3.071,3.057-7.911,6.266-12.354,4.357c-2.553-1.1-3.588-5.123-2.172-7.411c1.657-2.676,6.406-1.016,5.259,2.204
			c-0.029,0.082-0.172,0.076-0.161-0.021c0.302-2.583-2.9-3.93-4.317-1.727c-0.701,1.09-0.446,2.598-0.051,3.734
			c1.562,4.48,7.162,2.529,10.065,0.754c3.368-2.057,5.782-5.204,8.885-7.584c3.171-2.435,6.225-2.613,10.104-2.554
			C40.574,31.361,40.574,31.385,40.559,31.385L40.559,31.385z"/>
	</g>
	<g>
		<path fill="#DC143C" d="M47.243,34.397c-2.282-2.379-6.396-2.812-9.271-1.37c-1.487,0.747-2.466,2.27-2.683,3.886
			c-0.126,0.949,0.181,1.916,0.962,2.5c1.701,1.283,2.747-1.507,1.128-1.408c-0.107,0.006-0.144-0.146-0.054-0.197
			c1.54-0.859,1.775,1.461,0.848,2.293c-0.755,0.676-1.915,0.396-2.696-0.041c-1.073-0.6-1.317-2.039-1.267-3.146
			c0.127-2.73,2.899-4.532,5.32-4.979c2.791-0.515,5.718,0.515,7.735,2.439C47.282,34.388,47.257,34.414,47.243,34.397
			L47.243,34.397z"/>
	</g>
	<g>
		<path fill="#DC143C" d="M34.369,29.208c-3.611,0.843-6.704,2.714-9.837,4.62c-1.819,1.106-4.067,2.77-6.23,1.608
			c-1.061-0.567-1.98-2.492-0.513-3.114c0.766-0.324,1.831,0.254,1.24,1.093c-0.032,0.047-0.116,0.049-0.13-0.016
			c-0.177-0.897-1.697-0.719-1.069,0.649c0.621,1.357,2.079,1.399,3.3,1.063c1.461-0.404,2.856-1.402,4.164-2.143
			c2.89-1.638,5.786-3.127,9.069-3.784C34.378,29.183,34.384,29.205,34.369,29.208L34.369,29.208z"/>
	</g>
	<g>
		<path fill="#DC143C" d="M26.177,38.916c-0.466,1.531-0.118,2.428,1.039,2.689c0.756,0.174,1.409-0.008,1.962-0.547
			c0.719-0.646,0.683-1.846,0.538-2.697c-0.308-1.833-1.983-2.648-3.668-2.608c-2.812,0.063-5.502,2.086-7.109,4.237
			c-1.822,2.443-2.815,5.656-2.232,8.68c0.348,1.803,1.562,3.34,3.096,4.299c1.12,0.699,2.294,0.43,3.207-0.389
			c0.281-0.279,0.522-0.59,0.721-0.936c0.105-0.227,0.211-0.455,0.316-0.684c0.387-0.963-0.178-1.672-1.696-2.121
			c-0.081,0.035-0.151-0.072-0.071-0.121c1.861-1.131,2.517,1.383,2.075,2.744c-0.738,2.271-2.836,3.113-4.915,2.125
			c-2.453-1.166-3.604-4.113-3.669-6.648c-0.074-2.959,1.361-5.881,3.18-8.127c2.32-2.867,9.269-5.936,11.048-0.936
			c0.531,1.494-0.055,4.127-2.047,4.111c-1.787-0.014-3.05-1.584-1.797-3.096C26.167,38.877,26.19,38.9,26.177,38.916L26.177,38.916
			z"/>
	</g>
	<g>
		<path fill="#DC143C" d="M23.489,35.568c-4.74,1.631-6.632,6.385-9.527,10.047c-2.333,2.949-6.848,5.635-10.685,3.895
			c-2.666-1.207-4.045-6.137-0.828-7.576c2.513-1.123,4.145,1.871,2.575,3.783c-0.102,0.125-0.338-0.01-0.274-0.16
			c0.534-1.291,0.82-2.979-1.041-3.205c-1.831-0.223-2.287,1.818-2.21,3.199c0.25,4.475,5.992,3.797,8.708,2.279
			c5.478-3.068,6.818-10.502,13.276-12.284C23.499,35.542,23.503,35.563,23.489,35.568L23.489,35.568z"/>
	</g>
</g>
<path d="M101.396,12.306l-6.298-0.009c-7.076,0-11.649,4.691-11.649,11.952v5.512h-6.333c-0.545,0-0.99,0.441-0.99,0.989v7.986
	c0,0.544,0.444,0.991,0.99,0.991h6.333v20.146c0,0.546,0.444,0.992,0.992,0.992h8.26c0.547,0,0.991-0.446,0.991-0.992V39.728h7.403
	c0.547,0,0.988-0.447,0.988-0.991l0.006-7.986c0-0.261-0.105-0.513-0.29-0.7c-0.187-0.186-0.439-0.289-0.701-0.289h-7.406v-4.673
	c0-2.244,0.534-3.384,3.458-3.384l4.244-0.003c0.548,0,0.989-0.443,0.989-0.989v-7.413C102.384,12.75,101.942,12.308,101.396,12.306
	L101.396,12.306z M101.396,12.306"/>
</svg>
