<?xml version="1.0" encoding="utf-8"?>
<!-- Generator: Adobe Illustrator 16.0.0, SVG Export Plug-In . SVG Version: 6.00 Build 0)  -->
<!DOCTYPE svg PUBLIC "-//W3C//DTD SVG 1.1//EN" "http://www.w3.org/Graphics/SVG/1.1/DTD/svg11.dtd">
<svg version="1.1" id="Calque_1" xmlns="http://www.w3.org/2000/svg" xmlns:xlink="http://www.w3.org/1999/xlink" x="0px" y="0px"
	 width="65px" height="64px" viewBox="0 0 65 64" enable-background="new 0 0 65 64" xml:space="preserve">
<g>
	<path d="M43.084,50.452c0-1.34-0.611-4.589-5.396-4.589c-4.783,0-7.768,3.249-7.768,7.688C29.92,57.99,33.595,64,41.631,64
		s11.099-5.974,11.099-10.947c0-4.972-4.321-12.624-12.783-12.624c-8.459,0-17.027,10.389-22.581,15.528
		c-5.555,5.145-7.406,6.034-10.42,6.034c-3.021,0-3.225-0.753-4.117-1.235C1.938,60.277,1.18,60.48,1.18,60.48s0,0.415,0.482,1.103
		c0.48,0.685,1.781,1.645,5.484,1.645c3.704,0,5.83-1.371,9.533-4.801c3.699-3.424,9.737-8.641,12.957-11.378
		c3.225-2.748,7.066-5.078,10.221-5.078c3.148,0,11.65,2.881,11.65,10.9c0,8.024-7.4,9.465-10.01,9.465
		c-2.604,0-10.351-2.538-10.351-8.774c0-6.238,5.692-6.584,6.649-6.584c0.96,0,3.568,0.134,3.568,3.359c0,0,0,1.022-0.963,1.575
		c-0.961,0.551-0.891,1.169-0.891,1.169s0.617,0.411,1.231,0.276C41.365,53.216,43.084,52.621,43.084,50.452z"/>
	<path d="M51.734,42.153c-1.34,0-4.596-0.616-4.596-5.396c0-4.787,3.256-7.772,7.695-7.772s10.449,3.678,10.449,11.717
		c0,8.03-5.973,11.095-10.949,11.095c-4.973,0-12.627-4.326-12.627-12.785c0-8.455,10.393-17.024,15.532-22.578
		c5.142-5.558,6.034-7.405,6.034-10.421c0-3.019-0.752-3.225-1.234-4.114c-0.479-0.896-0.273-1.646-0.273-1.646s0.413,0,1.098,0.479
		c0.686,0.482,1.645,1.781,1.645,5.485c0,3.699-1.372,5.824-4.799,9.53c-3.43,3.699-8.641,9.733-11.383,12.961
		c-2.742,3.223-5.074,7.059-5.074,10.217c0,3.15,2.88,11.658,10.904,11.658c8.022,0,9.461-7.409,9.461-10.016
		c0-2.605-2.539-10.35-8.775-10.35c-6.24,0-6.584,5.688-6.584,6.647c0,0.962,0.139,3.566,3.359,3.566c0,0,1.028,0,1.576-0.959
		c0.551-0.962,1.166-0.896,1.166-0.896s0.411,0.62,0.275,1.233C54.498,40.433,53.904,42.153,51.734,42.153z"/>
</g>
</svg>
