<?xml version="1.0" encoding="utf-8"?>
<!-- Generator: Adobe Illustrator 16.0.0, SVG Export Plug-In . SVG Version: 6.00 Build 0)  -->
<!DOCTYPE svg PUBLIC "-//W3C//DTD SVG 1.1//EN" "http://www.w3.org/Graphics/SVG/1.1/DTD/svg11.dtd">
<svg version="1.1" id="Calque_1" xmlns="http://www.w3.org/2000/svg" xmlns:xlink="http://www.w3.org/1999/xlink" x="0px" y="0px"
	 width="65px" height="64px" viewBox="0 0 65 64" enable-background="new 0 0 65 64" xml:space="preserve">
<g>
	<path d="M51.557,22.273c-1.34,0-4.588,0.611-4.588,5.396c0,4.783,3.248,7.768,7.688,7.768s10.449-3.675,10.449-11.711
		s-5.975-11.099-10.947-11.099s-12.625,4.321-12.625,12.783c0,8.459,10.389,17.027,15.529,22.581
		c5.145,5.555,6.033,7.406,6.033,10.42c0,3.021-0.752,3.225-1.234,4.117c-0.479,0.89-0.275,1.648-0.275,1.648s0.414,0,1.102-0.482
		c0.686-0.48,1.645-1.781,1.645-5.484c0-3.704-1.371-5.83-4.801-9.533c-3.424-3.699-8.641-9.737-11.377-12.957
		c-2.748-3.225-5.078-7.066-5.078-10.221c0-3.148,2.881-11.65,10.9-11.65c8.023,0,9.465,7.4,9.465,10.01
		c0,2.604-2.539,10.351-8.775,10.351c-6.238,0-6.584-5.692-6.584-6.649c0-0.96,0.135-3.568,3.359-3.568c0,0,1.023,0,1.576,0.963
		c0.551,0.961,1.168,0.891,1.168,0.891s0.412-0.617,0.277-1.231C54.32,23.992,53.727,22.273,51.557,22.273z"/>
	<path d="M43.258,13.623c0,1.34-0.615,4.596-5.395,4.596c-4.787,0-7.773-3.256-7.773-7.695S33.768,0.074,41.807,0.074
		c8.031,0,11.096,5.973,11.096,10.949c0,4.973-4.326,12.627-12.785,12.627c-8.456,0-17.025-10.393-22.579-15.532
		c-5.558-5.142-7.405-6.034-10.421-6.034c-3.019,0-3.225,0.752-4.114,1.234C2.108,3.797,1.358,3.592,1.358,3.592
		s0-0.413,0.479-1.098C2.32,1.809,3.619,0.85,7.323,0.85c3.699,0,5.824,1.372,9.53,4.799c3.699,3.43,9.733,8.641,12.961,11.383
		c3.223,2.742,7.059,5.074,10.217,5.074c3.15,0,11.658-2.88,11.658-10.904c0-8.022-7.41-9.461-10.016-9.461
		s-10.35,2.539-10.35,8.775c0,6.24,5.688,6.584,6.647,6.584c0.963,0,3.566-0.139,3.566-3.359c0,0,0-1.028-0.959-1.576
		c-0.961-0.551-0.896-1.166-0.896-1.166s0.621-0.411,1.234-0.275C41.537,10.859,43.258,11.453,43.258,13.623z"/>
</g>
</svg>
