<?xml version="1.0" encoding="utf-8"?>
<!-- Generator: Adobe Illustrator 16.0.0, SVG Export Plug-In . SVG Version: 6.00 Build 0)  -->
<!DOCTYPE svg PUBLIC "-//W3C//DTD SVG 1.1//EN" "http://www.w3.org/Graphics/SVG/1.1/DTD/svg11.dtd">
<svg version="1.1" id="Calque_1" xmlns="http://www.w3.org/2000/svg" xmlns:xlink="http://www.w3.org/1999/xlink" x="0px" y="0px"
	 width="65px" height="64px" viewBox="0 0 65 64" enable-background="new 0 0 65 64" xml:space="preserve">
<g>
	<path d="M23.379,13.801c0,1.34,0.611,4.589,5.396,4.589c4.783,0,7.768-3.249,7.768-7.688c0-4.438-3.675-10.448-11.711-10.448
		S13.733,6.227,13.733,11.2c0,4.972,4.322,12.624,12.783,12.624c8.459,0,17.027-10.389,22.581-15.528
		c5.555-5.145,7.406-6.034,10.42-6.034c3.021,0,3.225,0.753,4.117,1.235c0.89,0.479,1.648,0.275,1.648,0.275s0-0.415-0.482-1.103
		c-0.48-0.685-1.781-1.645-5.484-1.645c-3.704,0-5.83,1.371-9.533,4.801c-3.699,3.424-9.737,8.641-12.957,11.378
		c-3.225,2.748-7.066,5.078-10.22,5.078c-3.149,0-11.651-2.881-11.651-10.9c0-8.024,7.401-9.465,10.01-9.465
		c2.604,0,10.351,2.538,10.351,8.774c0,6.238-5.692,6.584-6.649,6.584c-0.96,0-3.568-0.134-3.568-3.359c0,0,0-1.022,0.963-1.575
		c0.96-0.551,0.89-1.169,0.89-1.169s-0.617-0.411-1.231-0.276C25.098,11.037,23.379,11.632,23.379,13.801z"/>
	<path d="M14.729,22.1c1.34,0,4.595,0.616,4.595,5.396c0,4.787-3.255,7.772-7.695,7.772S1.179,31.59,1.179,23.551
		c0-8.03,5.973-11.095,10.95-11.095c4.972,0,12.627,4.326,12.627,12.785c0,8.455-10.393,17.024-15.533,22.578
		c-5.142,5.558-6.034,7.405-6.034,10.421c0,3.019,0.752,3.225,1.234,4.114C4.902,63.25,4.697,64,4.697,64S4.284,64,3.6,63.521
		c-0.686-0.482-1.645-1.781-1.645-5.485c0-3.699,1.373-5.824,4.799-9.53c3.43-3.699,8.64-9.733,11.383-12.961
		c2.742-3.223,5.075-7.059,5.075-10.217c0-3.15-2.88-11.658-10.905-11.658c-8.022,0-9.46,7.409-9.46,10.016
		c0,2.605,2.539,10.35,8.775,10.35c6.241,0,6.584-5.688,6.584-6.647c0-0.962-0.139-3.566-3.359-3.566c0,0-1.028,0-1.577,0.959
		c-0.551,0.962-1.165,0.896-1.165,0.896s-0.412-0.62-0.275-1.233C11.964,23.82,12.559,22.1,14.729,22.1z"/>
</g>
</svg>
