<?xml version="1.0" encoding="utf-8"?>
<!-- Generator: Adobe Illustrator 16.0.0, SVG Export Plug-In . SVG Version: 6.00 Build 0)  -->
<!DOCTYPE svg PUBLIC "-//W3C//DTD SVG 1.1//EN" "http://www.w3.org/Graphics/SVG/1.1/DTD/svg11.dtd">
<svg version="1.1" id="Calque_1" xmlns="http://www.w3.org/2000/svg" xmlns:xlink="http://www.w3.org/1999/xlink" x="0px" y="0px"
	 width="431px" height="56px" viewBox="0 0 431 56" enable-background="new 0 0 431 56" xml:space="preserve">
<g>
	<g>
		<path d="M10.414,48.027c-0.917-0.883-1.74-0.268-2.893-0.547c-0.516-0.126-1.064-0.676-0.505-1.039
			c-1.274,0.621-1.197,1.551-0.218,2.389c-0.494-0.424-1.407,0.912-1.54,1.189c-0.652-1.75-2.146,0.032-3.324-0.151
			c0.401,0.194,1.003,0.505,1.403,0.595c-0.801-0.177-1.868,0.33-2.656,0.756c0.788,0.43,1.854,0.938,2.656,0.76
			c-0.4,0.088-1.001,0.398-1.403,0.594c1.177-0.184,2.672,1.597,3.324-0.152c0.133,0.274,1.046,1.615,1.54,1.191
			C5.818,54.449,5.741,55.379,7.016,56c-0.56-0.365-0.011-0.916,0.505-1.041c1.153-0.279,1.976,0.336,2.893-0.545
			c0.523-0.503,0.744-1.215,0.982-1.823c0.178-0.444,0.364-0.954,0.645-1.372c-0.28-0.417-0.467-0.924-0.645-1.369
			C11.157,49.238,10.937,48.529,10.414,48.027z M8.887,52.749c-1.529,0.125-2.162-0.896-3.207-1.53
			c1.045-0.633,1.678-1.654,3.207-1.529c1.162,0.096,1.743,0.822,2.31,1.529C10.63,51.928,10.049,52.654,8.887,52.749z"/>
		<path d="M431,51.219c-0.788-0.426-1.856-0.933-2.655-0.756c0.399-0.09,0.999-0.4,1.402-0.595c-1.178,0.184-2.67-1.599-3.324,0.151
			c-0.135-0.277-1.042-1.613-1.539-1.189c0.98-0.838,1.057-1.768-0.222-2.389c0.563,0.363,0.014,0.913-0.502,1.039
			c-1.154,0.279-1.976-0.336-2.896,0.547c-0.52,0.502-0.74,1.211-0.98,1.822c-0.175,0.445-0.363,0.952-0.643,1.369
			c0.279,0.418,0.468,0.928,0.643,1.372c0.24,0.608,0.461,1.32,0.98,1.823c0.92,0.881,1.741,0.266,2.896,0.545
			c0.516,0.125,1.064,0.676,0.502,1.041c1.278-0.621,1.202-1.551,0.222-2.389c0.497,0.424,1.404-0.917,1.539-1.191
			c0.654,1.749,2.146-0.031,3.324,0.152c-0.403-0.195-1.003-0.506-1.402-0.594C429.144,52.156,430.212,51.648,431,51.219z
			 M422.794,52.749c-1.162-0.095-1.743-0.821-2.31-1.53c0.566-0.707,1.147-1.434,2.31-1.529c1.529-0.125,2.162,0.896,3.208,1.529
			C424.956,51.854,424.323,52.874,422.794,52.749z"/>
		<path d="M418.737,50.318c-0.49,0-0.887,0.395-0.897,0.881h-0.004V50.76c0-0.15-0.123-0.271-0.272-0.271s-0.272,0.121-0.272,0.271
			v0.436l-201.451-2.17l-201.45,2.17V50.76c0-0.15-0.123-0.271-0.272-0.271c-0.151,0-0.272,0.121-0.272,0.271v0.439h-0.004
			c-0.012-0.486-0.406-0.881-0.898-0.881c-0.498,0-0.902,0.405-0.902,0.9c0,0.498,0.404,0.903,0.902,0.903
			c0.492,0,0.888-0.394,0.898-0.884h0.004v0.442c0,0.151,0.121,0.272,0.272,0.272c0.149,0,0.272-0.121,0.272-0.272v-0.436
			l201.45,1.99l201.451-1.99v0.436c0,0.151,0.123,0.272,0.272,0.272s0.272-0.121,0.272-0.272v-0.442h0.004
			c0.011,0.49,0.407,0.884,0.897,0.884c0.497,0,0.904-0.405,0.904-0.903C419.642,50.724,419.234,50.318,418.737,50.318z"/>
	</g>
	<g>
		<path d="M184.126,35.434c1.471-1.141,2.989-1.709,4.257-2.936l-2.156-3.243c-1.516,2.063-3.833,3.663-6.78,4.478
			c-3.731,1.025-9.618-0.608-10.58-4.728c-0.349-1.482-0.211-3.32,1.017-4.414c1.115-0.996,3.394-0.434,3.047,1.351
			c1.166-2.873-0.85-6.2-4.187-4.722c-0.019-0.196-0.037-0.425-0.052-0.719c-0.102-1.927,2.717-4.862,4.709-3.738
			c1.064,0.603,1.236,2.301,0.136,2.987c-0.546,0.342-1.292,0.207-1.877,0.045c2.389,1.115,5.285,0.093,5.125-2.982
			c-0.103-1.99-1.717-2.882-3.469-3.222c0.78-0.111,1.575-0.082,2.362,0.043c0.56,0.56,1.101,1.126,1.615,1.708
			c1.565,1.767,3,3.632,4.393,5.55c-0.374,1.62-2.458,2.98-3.942,1.901c-0.979-0.708-1.156-2.607,0.486-2.544
			c-2.953-0.116-4.021,3.805-2.016,5.681c1.063,0.999,2.527,1.173,3.936,0.953c1.916-0.504,3.8-1.6,4.632-3.224
			c0.523-1.017,0.64-2.041,0.556-3.078c-0.352-1.876-1.479-3.787-2.848-5.198c-1.539-1.589-3.432-2.41-5.414-2.651
			c-1.643-1.709-3.432-3.278-5.446-4.638c4.155,1.529,8.136,3.563,11.678,5.833c1.642,1.055,2.923,2.354,3.817,4.092
			c1.039,2.014,1.341,4.629,0.948,6.941l0.934,1.079c0.354,0.409,0.68,0.841,1.003,1.271c0.218,0.289,0.441,0.573,0.668,0.854
			c0.056-0.178,0.114-0.351,0.165-0.532c1.742-6.416-2.188-11.643-7.136-14.99c0.868,0.586,3.168,0.049,4.083-0.173
			c1.122-0.274,2.281-0.208,3.447-0.374c-1.54-0.565-2.953-1.072-4.269-2.074c-0.479-0.365-3.507-2.223-4.115-1.503
			c1.757-2.079,0.84-6.099-1.362-7.577c-1.315-0.884-3.012-1.063-4.548-0.874c-2.045,0.247-5.223,1.444-5.52,3.875
			c1.625-2.461,7.202-1.999,6.85,1.557c-0.216,2.183-2.463,2.301-4.174,1.869c-2.627-0.663-5.416-1.221-7.992-2.058
			c-3.321-1.079-7.364-1.422-10.968-0.663c-1.695,0.234-3.36,0.597-5.005,1.141c-2.177,0.717-4.341,2.225-6.717,1.987
			c-1.855-0.19-3.461-1.519-1.341-2.91c-1.953,0.47-4.483,1.581-4.228,4.007c0.124,1.18,0.959,2.169,1.994,2.691
			c0.657,0.334,3.167,0.957,3.778,0.281c-1.685,1.864-3.16,3.929-4.541,6.084c-1.106-1.551-2.733-2.768-4.679-3.351
			c-4.729-1.415-9.353,2.261-11.714,5.965c-3.207,5.03-2.186,11.531,1.978,15.577c0.398,0.387,0.82,0.712,1.252,1.003
			c-4.428,3.605-10.183,5.627-15.844,5.613c-6.792-0.016-12.411-4.295-17.027-8.824c-0.118-0.116-0.232-0.232-0.35-0.348
			c-0.299,0.329-0.589,0.664-0.875,1.007c3.961,4.042,8.3,7.507,14.477,8.663c7.116,1.328,14.654-1.434,20.373-5.658
			c0.731,0.389,1.493,0.667,2.278,0.838c-1.924,0.707-3.526,2.482-3.679,4.548c-0.196,2.671,1.928,3.376,4.08,3.68
			c1.125,0.161,2.466,0.013,3.537-0.382c0.514-0.188,0.963-0.51,1.46-0.695c-1.325,0.484-3.388,0.478-4.005-1.046
			c-0.942-2.323,1.188-4.763,2.847-6.092c1.904-0.351,3.774-1.13,5.406-2.155c3.983-2.501,5.988-6.7,6.683-11.201
			c0.184-1.189,0.503-2.4,0.609-3.584c0.115-1.283,0.24-2.554,0.411-3.814c-0.078,0.572,2.118,0.946,2.444,0.966
			c1.01,0.062,2.066-0.174,3.017-0.501c2.239-0.777,4.43-4.981,1.571-6.288c1.404,0.643,0.896,2.715-0.314,3.229
			c-2.358,1.006-2.922-2.252-2.989-3.8c-0.14-3.203,3.075-5.286,5.923-5.739c2.313-0.367,4.733-0.414,7.028,0.224
			c4.247,1.178,8.325,3.783,11.732,6.945c-1.718,0.165-3.435,0.697-4.998,1.491c-5.259,2.679-6.523,9.31-4.81,14.462
			c0.593,1.786,1.731,3.308,3.153,4.519c2.576,2.193,6.152,3.53,9.539,3.594c2.128,0.043,9.398,0.191,8.172,4.305
			c-0.661,2.211-5.263,2.34-6.994,1.876c-3.743-1.001-6.079-2.112-9.918-0.292c-2.644,1.253-4.409,3.563-6.784,5.104
			c2.586-1.797,6.915-3.775,10.112-3.478c2.285,0.211,4.401,1.91,6.596,2.638c3.687,1.22,9.324,0.847,11.749-2.644
			C193.919,39.406,188.47,36.018,184.126,35.434z M183.248,21.41c-0.149,0.911-0.569,1.863-1.29,2.462
			c-0.828,0.688-1.845,0.626-2.854,0.59c0.107,0.005,0.215,0.001,0.318-0.005c1.428-0.097,2.531-1.174,3.029-2.474
			c0.26-0.675,0.393-1.402,0.389-2.125c0-0.447-0.007-1.572-0.389-1.896C183.35,18.724,183.421,20.362,183.248,21.41z
			 M180.588,7.117c0.746-1.241,0.479-2.508-0.021-3.716c-0.149-0.367-0.323-0.73-0.494-1.084c1.091,1.179,1.897,2.537,1.714,4.215
			c-0.28,2.597-3.283,2.599-5.25,2.172C178.148,9.053,179.735,8.537,180.588,7.117z M144.723,17.091
			c-0.187,1.257-0.309,2.532-0.459,3.791c-0.158,1.313-0.425,2.619-0.807,3.874c-1.233,4.048-3.665,7.593-7.497,9.32
			c-1.115,0.625-2.353,1.065-3.534,1.104c-0.092,0.002-0.183,0.006-0.274,0.006c-1.565,0-2.779-0.445-3.765-1.163
			c-1.884-1.241-3.219-3.412-3.853-5.63c-1.089-3.813,0.105-8.065,3.251-10.505c0.981-0.763,2.514-1.366,3.764-1.32
			c2.041,0.075,4.056,1.613,4.485,3.625c0.443,2.094-0.63,5.653-3.418,5.375c-1.379-0.136-1.905-1.424-1.729-2.71
			c0.2-1.467,1.553-1.857,2.859-1.828c-2.734-0.988-5.105,1.596-5.378,4.14c-0.077,0.703,0.075,1.378,0.371,1.996
			c0.363,0.605,0.87,1.141,1.518,1.582c2.14,1.457,5.095,1.495,7.188,0.096c0.708-0.474,1.391-1.153,1.914-1.881
			c1.527-2.367,1.605-5.009,0.687-7.275c1.933-3.316,3.974-6.535,6.542-9.259c0.199-0.211,0.401-0.405,0.602-0.602
			C145.542,11.44,145.043,14.929,144.723,17.091z M150.509,16.322c0.015,0,0.021,0.002,0.036,0.002c0.034,0,0.026,0-0.021,0.002
			C150.518,16.324,150.513,16.324,150.509,16.322c-0.309,0.002-0.593-0.016-0.843-0.058c-3.132-0.525-1.842-4.275-0.955-6.684
			c0,0.003,0,0.013,0,0.027C148.64,11.776,147.538,15.545,150.509,16.322z M167.131,28.979c-1.158-2.47-0.967-5.694-0.2-8.244
			c0.026,1.133-0.196,2.09,0.222,3.168c0.41-0.514,1.202-0.564,1.766-0.323C166.789,22.673,166.916,28.035,167.131,28.979z"/>
		<path d="M77.428,35.195c2.795-2.308,1.587-5.911-1.816-6.617c-2.299-0.478-5.282,0.989-5.327,3.104
			c-2.999-1.559-1.609-6.511,2.639-6.286c2.233,0.118,4.526,0.979,6.428,2.121c0.478,0.289,3.139,2.508,4.447,3.911
			c0.335-0.369,0.68-0.719,1.018-1.054c-1.794-2.045-6.833-6.824-7.374-7.287c-2.983-2.561-8.185-5.986-12.408-5.01
			c-4.624,1.068-9.336,6.258-5.572,10.93c-1.205-1.497,0.853-4.332,2.1-5c2.125-1.139,5.22-0.118,7.323,0.607
			c-3.39,1.841-4.84,6.789-1.568,9.722C69.799,36.563,74.625,37.512,77.428,35.195z M62.564,21.865
			c2.426-3.256,6.382-1.914,9.923,0.005c2.03,1.099,3.927,2.393,5.313,3.111c-0.907-0.468-1.874-0.87-2.818-1.246
			C71.385,22.297,66.402,20.346,62.564,21.865z M69.44,33.242c0.878,0.482,2.146,0.828,3.102,0.457
			c-0.276-0.993-0.477-2.03,0.649-2.619c1.997-1.039,3.155,2.063,1.617,3.183C73.315,35.348,70.628,34.28,69.44,33.242z"/>
		<path d="M129.826,33.044c-0.048,0.063-0.103,0.12-0.147,0.183c0.382,0.211,0.808,0.364,1.271,0.462
			c0.727-0.808,1.41-1.661,2.065-2.539c-0.555-0.065-1.099-0.188-1.633-0.366C130.877,31.555,130.363,32.314,129.826,33.044z"/>
		<path d="M107.839,45.232c-2.857-0.061-5.753-0.616-8.347-1.838c-1.921-0.907-3.692-2.131-5.34-3.459
			c-0.32-0.256-2.569-2.127-3.869-3.357c-0.334,0.506-0.588,0.995-0.701,1.469c1.126,1.121,2.287,2.171,3.487,3.113
			c-0.119,0.049-0.239,0.105-0.356,0.161c-3.119,0.99-4.469-0.403-4.525-2.301c-0.175-1.272,0.458-2.49,1.175-3.509
			c0.002-0.002-0.002-0.004-0.002-0.006c0.029-0.043,0.066-0.083,0.097-0.127c0.106-0.148,0.216-0.296,0.323-0.434
			c0.162-0.213,0.323-0.425,0.496-0.631l0.123-0.154c0.58-0.734,1.218-1.424,1.831-2.088c0.532-0.578,1.083-1.176,1.58-1.783
			c0.412-0.508,0.763-1.056,1.104-1.584c0.065-0.105,0.131-0.208,0.196-0.311c0.642-1.083,1.308-2.132,2.226-2.746
			c1.46-0.981,3.326-0.771,4.075,0.922c0.361,0.813,0.324,1.731,0.16,2.588c1.747-2.093,1.692-7.999-1.824-8.196
			c-0.933-0.055-2.404,0.292-3.524,0.962c-1.906-5.475-9.944-5.569-13.864-2.609c0.022,0,0.042-0.007,0.061-0.024
			c3.328-0.618,6.896,1.084,6.867,4.911c-0.007,0.832-0.178,1.725-0.471,2.561c-0.405,1.371-1.164,2.662-2.275,3.803
			c-0.207,0.211-0.422,0.424-0.64,0.636c-0.697,0.694-1.409,1.402-1.932,2.188c-0.259,0.454-0.477,0.922-0.673,1.402
			c-0.218,0.63-0.404,1.245-0.559,1.857c-0.226,1.126-0.254,2.287,0.005,3.453c1.292,5.799,8.746,4.998,12.507,2.622
			c0.341,0.226,0.684,0.443,1.033,0.651c-3.597,1.072-5.325,3.369-10.033,2.75c-3.156-0.414-5.666-2.865-8.396-4.308
			c-2.973-1.573-7.92-0.694-10.401,1.558c1.196-0.555,2.739-0.917,4.054-0.573c1.543,0.403,3.103,1.979,4.358,2.929
			c2.337,1.768,4.675,3.8,7.678,3.955c2.204,0.111,4.683-0.396,6.755-1.112c3.002-1.044,4.199-3.906,7.637-3.948
			c1.73-0.021,3.701,1.061,5.459,1.341c3.897,0.612,7.908-0.311,11.664-1.329c0.898-0.244,1.642-0.727,2.495-1.034
			C114.428,44.727,111.17,45.307,107.839,45.232z M88.419,31.35c1.323-1.721,2.822-3.376,3.601-5.333
			c0.898-2.258,0.329-3.696-0.728-5.69c1.835,1.337,2.583,2.263,2.412,4.654c1.432-1.146,5.887-4.164,6.774-0.912
			c-0.552-2.028-3.904,0.374-4.737,0.95c-2,1.386-3.682,3.369-5.273,5.179c-1.297,1.482-4.265,4.152-4.552,6.168
			C86.187,34.471,87.232,32.886,88.419,31.35z"/>
		<path d="M61.91,46.556c-1.732-0.272-2.983-2.335-4.039-3.589c-1.472-1.748-2.708-3.89-4.717-5.094
			c0.875,0.522,3.693-1.611,4.305-2.137c1.313-1.122,2.196-2.674,3.118-4.125c-0.733,0.633-1.646,1.502-2.641,1.652
			c-0.963,0.144-1.943-0.418-2.892-0.469c-1.368-0.074-2.405,0.359-3.315,1.395c0.179-2.631-1.641-4.981-3.897-6.376
			c-1.516-0.619-3.019-0.935-4.369-0.888c-2.431,0.083-4.505,1.515-5.28,3.652c-0.483,1.328-0.604,2.808-0.332,4.063
			c0.366,1.702,1.529,2.392,2.438,2.675c1.263,0.388,2.777,0.217,4.048-0.373c1.04-0.694,1.66-1.835,1.21-3.34
			c-0.669-2.236-3.267-2.553-4.226-0.387c0.721-1.629,2.748-0.723,2.788,0.781c0.069,2.656-3.641,2.221-4.518,0.386
			c-0.289-0.604-0.378-1.274-0.372-1.944c1.489-1.33,2.897-2.795,4.237-4.283c0.067-0.075,0.133-0.147,0.196-0.222
			c1.025,0.038,2.053,0.314,2.867,0.759c1.583,0.874,2.532,2.457,3.082,4.112c1.223,3.682-2.326,7.313-5.454,8.4
			c-4.403,1.535-7.758-2.003-8.87-5.803c0.409-0.25,0.811-0.516,1.206-0.79c-0.171-1.005-0.152-2.097,0.063-3.171
			c-0.53,0.453-1.076,0.885-1.632,1.288c0.192-7.236,9.826-13.114,15.432-15.125c2.323-0.832,4.595-1.342,6.841-1.587
			c-5.669,1.947-10.344,5.169-14.773,9.66c0.328-0.052,0.66-0.094,1-0.104c0.698-0.023,1.434,0.049,2.183,0.182
			c4.162-4.646,8.147-8.646,15.183-9.404c9.897-1.063,19.047,5.505,25.563,12.35c0.249-0.331,0.461-0.676,0.646-1.024
			c-1.453-1.529-4.235-4.486-4.604-4.936c-1.66-2.023-3.405-4.191-3.958-6.814c-0.232-1.092-0.468-3.288,0.378-4.19
			c0.457-0.485,2.713-0.806,3.025,0.079c-0.191-1.332-1.899-2.447-3.072-2.817c-2.102-0.67-4.057,0.703-5.194,2.381
			c-1.107,1.634-0.946,3.461-0.415,5.313c-6.548-1.437-12.309-3.021-19.076-1.462c-7.201,1.66-13.331,5.019-17.864,10.912
			c-0.73,0.95-1.322,1.971-1.78,3.025c-0.35,1.07-0.597,2.209-0.715,3.387c-0.182,1.848,0.112,3.805,0.832,5.516
			c0.156,0.373,0.359,0.746,0.577,1.143c0.047,0.084,0.091,0.171,0.136,0.254c0.525,0.694,1.158,1.348,1.926,1.936
			c2.844,2.178,7.359,1.661,10.255-0.371c3.251-1.221,4.388,3.705,5.752,5.674c1.135,1.643,3.102,2.446,4.991,2.76
			c3.68,0.608,6.819-1.688,7.52-5.225C65.378,45.893,63.447,46.798,61.91,46.556z M74.682,14.034
			c0.239-1.558,1.514-3.236,3.167-3.357c0.133-0.011,0.269-0.011,0.405,0c-2.365,1.627-2.761,5.541-1.02,7.793
			c-0.412-0.534-1.289-0.659-1.769-1.418C74.875,16.119,74.511,15.162,74.682,14.034z M58.412,47.762
			c-1.838-0.222-3.49-1.783-4.235-3.378c-0.791-1.698-1.297-3.498-2.197-5.152c-0.309-0.569-0.774-1.383-1.475-1.535
			c-0.012,0.009-0.022,0.013-0.032,0.019c0.002-0.008,0.008-0.015,0.014-0.021c-0.004-0.002-0.008-0.004-0.01-0.004
			c0.006-0.006,0.014-0.006,0.017-0.01c0.608-0.896,1.163-1.803,2.086-2.417c0.845-0.564,1.899-0.274,2.864-0.363
			c-0.62,0.551-0.954,1.282-1.728,1.684c-0.677,0.349-1.489,0.513-2.223,0.726c-0.208,0.059-0.407,0.125-0.603,0.204
			c0.628-0.106,1.269,0.513,1.647,0.958c1.378,1.615,2.645,4.691,3.07,5.266c0.962,1.301,2.029,2.66,3.588,3.257
			c0.628,0.24,1.257,0.369,1.923,0.441C60.458,47.898,59.187,47.854,58.412,47.762z"/>
		<path d="M25.549,37.884c2.609,0.212,4.975-0.257,7.154-1.166c-0.192-0.794-0.316-1.605-0.359-2.421
			c-2.597,1.278-5.481,1.741-8.761,0.625c-2.488-0.85-4.139-2.892-4.601-5.418c-0.386-2.127,0.827-4.689,3.268-4.735
			c1.603-0.029,3.605,1.669,1.888,3.071c-0.903,0.736-3.354,0.886-3.053-0.833c-0.383,2.19,0.684,4.237,3.141,4.202
			c2.395-0.033,5.039-1.537,5.333-4.101c0.327-2.837-2.397-5.42-5.146-5.559c-2.523-0.127-4.684,0.626-6.468,2.455
			C12.495,29.586,19.641,37.4,25.549,37.884z"/>
		<path d="M163.969,40.463c3.115-0.334,5.298-4.539,2.254-6.54c-1.134-0.749-2.71-0.911-3.371,0.52
			c0.471-0.253,1.039-0.414,1.573-0.304c1.166,0.24,1.404,1.475,0.886,2.448c-0.657,1.239-2.514,1.249-3.52,0.47
			c-1.047-0.814-1.257-2.326-1.428-3.557c-0.16-1.145-0.104-2.321,0.036-3.494c0.689-1.949,1.054-4.011,1.197-6.096
			c0.213-3.058,0.408-6.314,2.025-9.006c1.511-2.512,4.937-3.99,7.886-3.279c-0.403-0.096-0.752-0.245-1.098-0.39
			c-0.522-0.225-1.038-0.452-1.729-0.509c-1.535-0.123-2.806,0.251-4.238,0.712c-1.48,0.474-2.785-0.072-3.205-1.602
			c-0.296-1.073,0.397-3.309,1.98-2.673c-2.267-0.91-5.257-0.149-6.016,2.329c-0.315,1.024-0.355,2.005,0.016,3.02
			c0.17,0.472,1.336,2.721,2.023,2.561c-1.738,0.405-3.074,1.528-3.055,3.732c0.019,2.078,1.845,4.239,2.129,6.425
			c0.366,2.877-0.89,7.52-5.96,5.741c-1.511-0.53-2.205-2.55-2.293-3.996c-0.109-1.845,1.85-3.309,3.356-2.29
			c-1.804-1.221-3.321,2.29-1.435,3.525c1.271,0.836,3.391,0.124,3.984-1.259c0.764-1.772-0.588-3.513-2.306-3.923
			c-1.166-0.282-2.528-0.234-3.561,0.425c-1.634,1.044-2.4,3.358-1.999,5.201c0.604,2.768,2.205,3.867,4.91,4.293
			c-1.552,1.033-3.176,1.511-5.021,1.086c-1.54-0.355-2.873-1.409-2.866-3.109c-0.814,3.008-0.225,6.664,3.062,7.839
			c3.346,1.194,7.315-1.415,9.426-3.819C157.699,38.368,159.597,40.936,163.969,40.463z M158.271,19.103
			c0.237-1.518,1.481-1.783,2.384-2.815c0.456-0.521,0.84-0.846,0.936-1.583c-0.058,0.447-1.772-0.818-1.901-1.03
			c-0.808-1.352-0.227-2.857,0.296-4.18c-0.41,1.631,0.057,3.756,1.987,3.863c0.411,0.022,0.807-0.017,1.196-0.146
			c-1.171,0.389-2.061,2.999-2.477,4.003c-0.711,1.713-1.189,3.498-1.402,5.339C159.041,21.353,158.061,20.433,158.271,19.103z"/>
		<path d="M200.74,32.789c-1.565-0.309-3.091-1.176-4.584-1.668c-1.488-0.492-3.065-1.495-4.524-1.833
			c0.024,0.025,0.046,0.049,0.067,0.075c3.175,2.099,5.763,5.354,9.307,6.797c2.626,1.068,5.567,1.166,8.136-0.148
			c2.831-1.45,3.963-4.63,4.122-7.626c0.084-1.54-0.146-3.771-0.86-5.625c-0.474-1.229-1.163-2.294-2.117-2.873
			c0.854,1.115,1.129,2.561,0.78,3.919c-0.286,1.123-1.377,1.842-1.647,2.937c-0.26,1.061,0.205,2.487,0.481,3.523
			c0.439,1.649,0.656,2.826-0.796,4.009c-1.181,0.962-2.695,1.521-4.213,1.574c2.491-0.785,3.861-4.673,2.371-6.736
			c-1.853-2.569-5.015-1.278-6.783,0.68c1.188-1.313,3.334-0.52,3.755,1.061C204.87,33.229,202.299,33.097,200.74,32.789z"/>
		<path d="M157.305,35.83c-0.559,1.514-1.558,2.515-2.753,3.521c-0.923,0.777-1.829,1.612-2.034,2.86
			c-0.233,1.425,0.334,3.021,0.345,4.46c0.007,0.805-0.135,1.527-0.285,2.315c0.272-1.402,2.77-2.907,3.811-3.666
			c2.819-2.056,0.683-4.661,0.608-7.356C156.975,37.221,157.062,36.492,157.305,35.83z"/>
		<path d="M116.935,34.896c1.901,1.683,3.997,1.973,6.314,2.167c0.373,0.031,0.752,0.061,1.138,0.092
			c-0.844-0.248-1.693-0.434-2.523-0.726c-1.69-0.601-2.918-1.16-3.939-2.696c-0.819-1.229-1.391-2.629-1.684-4.074
			c-0.285-1.404,0.118-2.644,0.098-4.042c-0.012-0.874-0.706-1.48-1.628-1.159c-1.325,0.461-1.119,2.902-0.992,3.883
			C114.038,30.809,115.043,33.222,116.935,34.896z"/>
		<path d="M109.667,33.783c1.933,2.66,4.581,4.255,7.758,4.906c1.115,0.229,2.332,0.304,3.524,0.195
			c0.848-0.076,1.686-0.248,2.466-0.52c-2.209,0.143-4.073,0.209-6.22-0.451c-2.784-0.854-5.423-4.607-6.181-7.363
			c-0.348-1.27,0.121-4.993-1.805-5.215c-1.472-0.171-1.827,2.103-1.691,3.153C107.759,30.359,108.567,32.265,109.667,33.783z"/>
		<path d="M101.783,33.619c0.025,0.149,0.072,0.299,0.135,0.443c0.918,2.076,3.094,3.897,5.022,4.988
			c3.331,1.885,6.522,1.505,10.095,1.043c-3.123,0.401-6.976-0.336-9.205-2.704c-1.423-1.511-2.029-3.724-3.344-5.279
			C103.146,30.518,101.492,32.058,101.783,33.619z"/>
		<path d="M34.596,20.95c4.267,0.999,6.791-2.492,10.147-4.452c6.13-3.578,13.917-4.035,20.786-3.218
			c1.449,0.172,2.845,0.325,4.3,0.418c-0.396-0.116-0.806-0.224-1.216-0.322c-0.37-0.089-0.743-0.174-1.104-0.258
			c-5.37-1.251-11.307-2.234-16.741-0.739c-5.825,1.6-7.327-0.725-6.731-3.258c0.826,1.088,2.479,1.693,4.202,1.231
			c2.835-0.761,4.175-4.785,1.548-6.634c-3.318-2.341-7.095-0.036-8.809,3.093c-1.571,2.867-0.696,6.656,3.089,7.152
			c-2.594-0.34-4.243,2.082-6.684-0.22c-1.823-1.718-2.114-4.602-1.364-6.877c0.423-1.286,1.212-2.036,2.456-2.568
			c-4.307-0.454-7.467,5.283-7.858,8.917C30.306,16.052,31.301,20.18,34.596,20.95z M33.395,10.854
			c-0.633,1.393,0.259,3.699,1.338,4.609c1.425,1.201,3.025,1.594,4.74,1.301c0.349-0.059,0.703-0.149,1.063-0.266
			c-1.035,0.336-1.828,1.146-3.02,1.29c-1.154,0.14-2.463-0.125-3.316-0.96C32.659,15.331,32.555,12.697,33.395,10.854z"/>
		<path d="M38.482,4.292c-0.004,0.002-0.005,0.005-0.009,0.005c0.002,0.001,0.005,0,0.009,0.001
			C38.566,4.296,38.566,4.294,38.482,4.292z"/>
		<path d="M123.396,41.843c-0.777,0.545-1.604,1.046-2.368,1.407c-1.502,0.711-3.189,1.649-4.255,2.943
			c-0.519,0.623-0.903,1.174-0.276,1.865c1.006,1.112,3,0.259,3.89-0.569c0.999-0.927,1.674-2.181,2.292-3.38
			c0.675-1.31,1.518-2.818,2.649-3.792C124.716,40.842,124.059,41.376,123.396,41.843z"/>
		<path d="M99.13,18.939c1.732-1.856,1.386-5.394,2.299-7.701c-0.399,0.481-0.977,0.944-1.617,1.413
			c-1.906,1.397-4.365,2.85-4.274,5.044C95.611,19.537,97.928,20.233,99.13,18.939z"/>
		<path d="M34.4,45.564c-0.303,0.089-0.604,0.129-0.828,0.111c-1.178-0.086-1.385-0.742-1.61-1.761
			c-0.414-1.88-0.341-3.956-0.052-5.854c-2.04,3.536-7.59,5.177-11.484,5.169c-1.024-0.004-2.134-0.02-2.947-0.714
			c-0.547-0.467-1.506-2.065-1.089-2.837c-1.479,2.721,0.274,6.236,3.142,7.072c1.322,0.387,2.764,0.314,4.097,0.038
			c1.468-0.303,2.877-1.013,4.131-1.796c-0.029,3.654,5.063,4.981,7.193,2.13c0.582-0.776,0.705-1.811,0.754-2.753
			C35.675,44.971,35.028,45.377,34.4,45.564z"/>
		<path d="M215.901,16.597v0.015c0.011,0,0.019-0.005,0.027-0.007c0.012,0.002,0.02,0.007,0.031,0.007v-0.015
			c5.066-1.117,1.779-7.474-0.027-10.764V5.825c0,0.002-0.002,0.002-0.004,0.003c0,0,0-0.001,0-0.003v0.007
			C214.119,9.123,210.832,15.48,215.901,16.597z"/>
		<path d="M302.909,38.414c0.788-0.171,1.548-0.449,2.277-0.838c5.721,4.225,13.259,6.986,20.375,5.658
			c6.176-1.156,10.516-4.621,14.477-8.663c-0.286-0.343-0.577-0.678-0.879-1.007c-0.116,0.115-0.229,0.231-0.346,0.348
			c-4.616,4.529-10.234,8.809-17.027,8.824c-5.663,0.014-11.418-2.008-15.848-5.613c0.434-0.291,0.855-0.616,1.253-1.003
			c4.166-4.046,5.185-10.546,1.979-15.577c-2.361-3.704-6.984-7.379-11.714-5.965c-1.946,0.583-3.574,1.8-4.679,3.351
			c-1.38-2.156-2.856-4.221-4.54-6.084c0.61,0.676,3.119,0.053,3.777-0.281c1.032-0.521,1.871-1.511,1.994-2.691
			c0.255-2.426-2.275-3.537-4.228-4.007c2.119,1.391,0.515,2.719-1.341,2.91c-2.375,0.238-4.541-1.27-6.72-1.987
			c-1.643-0.543-3.309-0.907-5.003-1.141c-3.605-0.759-7.648-0.416-10.968,0.663c-2.576,0.837-5.364,1.395-7.992,2.058
			c-1.711,0.432-3.957,0.314-4.173-1.869c-0.354-3.556,5.224-4.018,6.851-1.557c-0.298-2.432-3.477-3.629-5.521-3.875
			c-1.537-0.189-3.231-0.011-4.547,0.874c-2.204,1.478-3.122,5.498-1.361,7.577c-0.609-0.719-3.635,1.138-4.116,1.503
			c-1.316,1.002-2.726,1.509-4.268,2.074c1.166,0.166,2.322,0.1,3.446,0.374c0.915,0.222,3.215,0.759,4.083,0.173
			c-4.947,3.347-8.877,8.574-7.138,14.99c0.051,0.182,0.111,0.354,0.166,0.532c0.226-0.281,0.451-0.565,0.669-0.854
			c0.324-0.43,0.647-0.862,1.003-1.271l0.934-1.079c-0.394-2.312-0.091-4.927,0.946-6.941c0.896-1.738,2.179-3.037,3.82-4.092
			c3.541-2.27,7.521-4.304,11.673-5.833c-2.012,1.36-3.799,2.929-5.439,4.638c-1.984,0.241-3.877,1.062-5.417,2.651
			c-1.369,1.411-2.495,3.322-2.848,5.198c-0.085,1.037,0.032,2.061,0.556,3.078c0.832,1.624,2.716,2.719,4.631,3.224
			c1.41,0.22,2.873,0.045,3.937-0.953c2.006-1.876,0.938-5.797-2.015-5.681c1.644-0.063,1.465,1.836,0.486,2.544
			c-1.484,1.079-3.568-0.281-3.943-1.901c1.395-1.918,2.826-3.783,4.393-5.55c0.516-0.582,1.055-1.148,1.613-1.708
			c0.789-0.125,1.58-0.154,2.363-0.043c-1.75,0.339-3.367,1.231-3.469,3.222c-0.158,3.075,2.737,4.098,5.127,2.982
			c-0.588,0.162-1.331,0.296-1.881-0.045c-1.1-0.687-0.924-2.384,0.138-2.987c1.994-1.125,4.813,1.811,4.711,3.738
			c-0.014,0.293-0.032,0.522-0.051,0.719c-3.338-1.479-5.358,1.849-4.188,4.722c-0.349-1.785,1.93-2.347,3.048-1.351
			c1.227,1.093,1.365,2.931,1.019,4.414c-0.964,4.119-6.849,5.753-10.582,4.728c-2.946-0.814-5.263-2.414-6.781-4.478l-2.154,3.243
			c1.268,1.227,2.786,1.795,4.257,2.936c-4.344,0.584-9.792,3.973-6.4,8.85c2.424,3.49,8.061,3.863,11.75,2.644
			c2.189-0.728,4.309-2.427,6.593-2.638c3.197-0.298,7.525,1.681,10.111,3.478c-2.374-1.542-4.139-3.852-6.783-5.104
			c-3.84-1.82-6.176-0.709-9.919,0.292c-1.733,0.464-6.334,0.335-6.993-1.876c-1.228-4.113,6.043-4.262,8.172-4.305
			c3.388-0.063,6.964-1.4,9.539-3.594c1.422-1.211,2.561-2.732,3.153-4.519c1.714-5.152,0.448-11.783-4.813-14.462
			c-1.559-0.793-3.276-1.326-4.996-1.491c3.409-3.162,7.488-5.767,11.734-6.945c2.295-0.638,4.715-0.591,7.029-0.224
			c2.846,0.453,6.059,2.536,5.919,5.739c-0.064,1.547-0.629,4.806-2.986,3.8c-1.208-0.514-1.721-2.587-0.314-3.229
			c-2.862,1.306-0.668,5.51,1.571,6.288c0.949,0.327,2.006,0.563,3.013,0.501c0.33-0.02,2.527-0.395,2.444-0.966
			c0.174,1.261,0.298,2.532,0.416,3.814c0.103,1.184,0.423,2.395,0.605,3.584c0.692,4.501,2.701,8.7,6.683,11.201
			c1.635,1.025,3.504,1.805,5.408,2.155c1.66,1.329,3.79,3.769,2.849,6.092c-0.621,1.523-2.681,1.53-4.009,1.046
			c0.5,0.186,0.948,0.508,1.462,0.695c1.071,0.395,2.412,0.543,3.538,0.382c2.149-0.304,4.272-1.009,4.078-3.68
			C306.438,40.896,304.835,39.121,302.909,38.414z M250.074,6.532c-0.186-1.678,0.621-3.037,1.714-4.215
			c-0.171,0.354-0.345,0.717-0.493,1.084c-0.501,1.208-0.771,2.475-0.024,3.716c0.856,1.42,2.443,1.936,4.054,1.587
			C253.358,9.131,250.354,9.129,250.074,6.532z M252.437,24.457c0.104,0.007,0.213,0.011,0.32,0.005
			c-1.009,0.036-2.025,0.098-2.854-0.59c-0.723-0.599-1.143-1.551-1.291-2.462c-0.173-1.048-0.102-2.686,0.798-3.447
			c-0.384,0.324-0.39,1.449-0.392,1.896c0,0.723,0.13,1.45,0.39,2.125C249.906,23.283,251.012,24.36,252.437,24.457z
			 M264.704,23.904c0.421-1.078,0.201-2.035,0.226-3.168c0.767,2.549,0.958,5.773-0.2,8.244c0.215-0.945,0.342-6.307-1.787-5.398
			C263.504,23.34,264.298,23.391,264.704,23.904z M282.193,16.265c-0.25,0.042-0.534,0.06-0.843,0.058
			c-0.003,0.002-0.011,0.002-0.013,0.004c-0.05-0.002-0.06-0.002-0.025-0.002c0.016,0,0.025-0.002,0.038-0.002
			c2.972-0.777,1.867-4.546,1.799-6.714c0-0.015,0-0.024,0-0.027C284.035,11.989,285.326,15.739,282.193,16.265z M299.705,35.186
			c-0.087,0-0.18-0.004-0.272-0.006c-1.181-0.039-2.417-0.479-3.532-1.104c-3.832-1.728-6.266-5.272-7.498-9.32
			c-0.381-1.255-0.647-2.561-0.806-3.874c-0.152-1.259-0.273-2.534-0.461-3.791c-0.321-2.162-0.817-5.65-2.465-7.263
			c0.201,0.196,0.403,0.391,0.603,0.602c2.568,2.724,4.61,5.942,6.542,9.259c-0.918,2.266-0.843,4.909,0.688,7.275
			c0.522,0.728,1.202,1.407,1.914,1.881c2.093,1.398,5.049,1.36,7.187-0.096c0.648-0.441,1.153-0.977,1.519-1.582
			c0.296-0.618,0.448-1.293,0.372-1.996c-0.273-2.544-2.647-5.128-5.379-4.14c1.305-0.029,2.654,0.361,2.858,1.828
			c0.176,1.286-0.351,2.574-1.729,2.71c-2.787,0.278-3.86-3.281-3.42-5.375c0.431-2.013,2.446-3.551,4.485-3.625
			c1.253-0.045,2.783,0.558,3.77,1.32c3.141,2.439,4.335,6.692,3.246,10.505c-0.634,2.218-1.969,4.389-3.853,5.63
			C302.49,34.74,301.272,35.186,299.705,35.186z"/>
		<path d="M362.975,24.613c2.106-0.725,5.2-1.746,7.326-0.607c1.245,0.668,3.302,3.503,2.096,5c3.767-4.672-0.944-9.862-5.572-10.93
			c-4.221-0.976-9.423,2.45-12.403,5.01c-0.541,0.463-5.584,5.242-7.377,7.287c0.337,0.335,0.686,0.685,1.021,1.054
			c1.304-1.402,3.97-3.622,4.445-3.911c1.903-1.143,4.192-2.003,6.429-2.121c4.246-0.226,5.634,4.727,2.637,6.286
			c-0.047-2.114-3.025-3.582-5.324-3.104c-3.407,0.706-4.612,4.31-1.815,6.617c2.8,2.316,7.623,1.367,10.108-0.86
			C367.815,31.402,366.363,26.455,362.975,24.613z M356.88,23.736c-0.949,0.376-1.914,0.777-2.818,1.246
			c1.388-0.719,3.282-2.012,5.313-3.111c3.538-1.919,7.498-3.261,9.924-0.005C365.458,20.346,360.475,22.297,356.88,23.736z
			 M357.05,34.263c-1.536-1.12-0.377-4.222,1.616-3.183c1.126,0.589,0.93,1.626,0.653,2.619c0.956,0.371,2.22,0.025,3.099-0.457
			C361.23,34.28,358.547,35.348,357.05,34.263z"/>
		<path d="M300.478,30.783c-0.532,0.178-1.077,0.301-1.633,0.366c0.656,0.878,1.338,1.731,2.066,2.539
			c0.464-0.098,0.887-0.251,1.273-0.462c-0.047-0.063-0.102-0.119-0.148-0.183C301.498,32.314,300.984,31.555,300.478,30.783z"/>
		<path d="M354.007,41.819c-2.729,1.442-5.242,3.894-8.398,4.308c-4.709,0.619-6.436-1.678-10.03-2.75
			c0.347-0.208,0.689-0.426,1.031-0.651c3.76,2.376,11.215,3.177,12.508-2.622c0.262-1.166,0.232-2.327,0.007-3.453
			c-0.155-0.612-0.345-1.228-0.563-1.857c-0.192-0.48-0.41-0.948-0.668-1.402c-0.527-0.786-1.235-1.494-1.933-2.188
			c-0.218-0.212-0.433-0.425-0.64-0.636c-1.111-1.141-1.876-2.432-2.279-3.803c-0.291-0.836-0.465-1.729-0.469-2.561
			c-0.029-3.827,3.54-5.528,6.867-4.911c0.019,0.017,0.04,0.024,0.063,0.024c-3.92-2.96-11.962-2.866-13.864,2.609
			c-1.122-0.669-2.594-1.017-3.526-0.962c-3.515,0.198-3.569,6.104-1.822,8.196c-0.164-0.857-0.202-1.775,0.154-2.588
			c0.752-1.693,2.619-1.903,4.079-0.922c0.918,0.614,1.584,1.663,2.227,2.746c0.066,0.103,0.13,0.205,0.198,0.311
			c0.338,0.528,0.69,1.076,1.104,1.584c0.497,0.607,1.046,1.205,1.579,1.783c0.614,0.664,1.25,1.354,1.831,2.088l0.123,0.154
			c0.172,0.206,0.335,0.418,0.495,0.631c0.104,0.138,0.218,0.285,0.322,0.434c0.033,0.044,0.066,0.084,0.099,0.127
			c0,0.002-0.004,0.004-0.004,0.006c0.716,1.019,1.348,2.236,1.174,3.509c-0.055,1.897-1.406,3.291-4.526,2.301
			c-0.112-0.056-0.236-0.112-0.353-0.161c1.198-0.942,2.357-1.992,3.487-3.113c-0.112-0.474-0.367-0.963-0.701-1.469
			c-1.304,1.23-3.553,3.102-3.868,3.357c-1.653,1.328-3.42,2.552-5.34,3.459c-2.597,1.222-5.491,1.777-8.348,1.838
			c-3.334,0.074-6.59-0.506-9.716-1.628c0.854,0.308,1.597,0.79,2.496,1.034c3.755,1.019,7.767,1.941,11.664,1.329
			c1.755-0.28,3.729-1.362,5.458-1.341c3.437,0.042,4.631,2.904,7.635,3.948c2.071,0.716,4.554,1.224,6.759,1.112
			c3-0.155,5.34-2.188,7.675-3.955c1.258-0.949,2.818-2.525,4.361-2.929c1.312-0.344,2.859,0.019,4.051,0.573
			C361.924,41.125,356.978,40.246,354.007,41.819z M341.39,30.199c-1.588-1.811-3.27-3.793-5.271-5.179
			c-0.832-0.576-4.184-2.978-4.737-0.95c0.887-3.252,5.344-0.234,6.771,0.912c-0.166-2.392,0.578-3.317,2.416-4.654
			c-1.057,1.994-1.627,3.432-0.726,5.69c0.772,1.956,2.273,3.612,3.599,5.333c1.186,1.536,2.232,3.121,2.505,5.018
			C345.656,34.352,342.689,31.682,341.39,30.199z"/>
		<path d="M396.732,39.211c0.219-0.396,0.426-0.77,0.582-1.143c0.716-1.711,1.013-3.668,0.828-5.516
			c-0.116-1.178-0.364-2.316-0.716-3.387c-0.454-1.055-1.047-2.076-1.78-3.025c-4.533-5.893-10.661-9.251-17.863-10.912
			c-6.764-1.558-12.524,0.025-19.073,1.462c0.53-1.851,0.689-3.678-0.418-5.313c-1.137-1.678-3.091-3.051-5.194-2.381
			c-1.172,0.37-2.876,1.485-3.072,2.817c0.313-0.885,2.571-0.563,3.029-0.079c0.846,0.903,0.607,3.099,0.378,4.19
			c-0.556,2.623-2.3,4.791-3.96,6.814c-0.369,0.45-3.148,3.407-4.602,4.936c0.182,0.349,0.396,0.694,0.646,1.024
			c6.517-6.845,15.666-13.412,25.561-12.35c7.039,0.757,11.021,4.758,15.182,9.404c0.753-0.132,1.486-0.205,2.188-0.182
			c0.338,0.009,0.672,0.051,0.999,0.104c-4.432-4.491-9.105-7.713-14.772-9.66c2.245,0.245,4.519,0.755,6.839,1.587
			c5.608,2.011,15.242,7.889,15.435,15.125c-0.56-0.403-1.102-0.835-1.631-1.288c0.214,1.074,0.232,2.166,0.058,3.171
			c0.396,0.274,0.8,0.54,1.21,0.79c-1.111,3.8-4.468,7.338-8.87,5.803c-3.128-1.088-6.68-4.719-5.455-8.4
			c0.549-1.655,1.499-3.238,3.079-4.112c0.813-0.445,1.846-0.721,2.869-0.759c0.066,0.074,0.131,0.147,0.197,0.222
			c1.34,1.488,2.745,2.953,4.238,4.283c0.004,0.67-0.087,1.34-0.374,1.944c-0.879,1.835-4.588,2.271-4.516-0.386
			c0.04-1.504,2.067-2.41,2.787-0.781c-0.96-2.166-3.557-1.85-4.226,0.387c-0.45,1.505,0.168,2.646,1.21,3.34
			c1.271,0.59,2.786,0.761,4.047,0.373c0.908-0.283,2.074-0.973,2.44-2.675c0.269-1.255,0.149-2.734-0.334-4.063
			c-0.773-2.137-2.848-3.568-5.277-3.652c-1.352-0.047-2.855,0.269-4.374,0.888c-2.254,1.395-4.071,3.746-3.896,6.376
			c-0.909-1.035-1.944-1.469-3.313-1.395c-0.948,0.051-1.933,0.612-2.892,0.469c-0.995-0.15-1.907-1.02-2.645-1.652
			c0.926,1.451,1.81,3.003,3.12,4.125c0.61,0.525,3.434,2.659,4.305,2.137c-2.009,1.204-3.247,3.346-4.718,5.094
			c-1.055,1.254-2.304,3.316-4.036,3.589c-1.537,0.242-3.47-0.663-3.796-2.317c0.701,3.537,3.843,5.833,7.52,5.225
			c1.889-0.313,3.857-1.117,4.994-2.76c1.358-1.969,2.499-6.895,5.749-5.674c2.896,2.032,7.41,2.549,10.254,0.371
			c0.771-0.588,1.402-1.241,1.926-1.936C396.646,39.382,396.689,39.295,396.732,39.211z M356.396,17.051
			c-0.479,0.759-1.357,0.884-1.771,1.418c1.742-2.252,1.348-6.166-1.017-7.793c0.138-0.011,0.272-0.011,0.406,0
			c1.653,0.121,2.929,1.799,3.163,3.357C357.347,15.162,356.983,16.119,356.396,17.051z M381.356,37.696
			c-0.699,0.152-1.165,0.966-1.474,1.535c-0.9,1.654-1.406,3.454-2.201,5.152c-0.74,1.595-2.397,3.156-4.231,3.378
			c-0.777,0.092-2.046,0.137-2.71-0.327c0.664-0.072,1.297-0.201,1.921-0.441c1.563-0.597,2.631-1.956,3.593-3.257
			c0.425-0.574,1.689-3.65,3.07-5.266c0.377-0.445,1.021-1.064,1.648-0.958c-0.196-0.079-0.399-0.146-0.604-0.204
			c-0.733-0.213-1.547-0.377-2.226-0.726c-0.774-0.401-1.105-1.133-1.727-1.684c0.967,0.089,2.02-0.201,2.866,0.363
			c0.92,0.614,1.475,1.521,2.081,2.417c0.008,0.004,0.012,0.004,0.02,0.01c-0.004,0-0.008,0.002-0.008,0.004
			c0.004,0.007,0.01,0.014,0.014,0.021C381.38,37.709,381.364,37.705,381.356,37.696z"/>
		<path d="M245.991,24.484l-2.118,2.442c-0.332,0.385-0.637,0.79-0.942,1.199c-0.292,0.389-0.588,0.781-0.903,1.154
			c-0.893,1.055-1.721,1.946-2.538,2.736c-4.389,4.599-11.424,10.342-17.788,5.412c-5.706-4.418-6.214-13.925-1.715-19.42
			c1.266-1.549,2.958-2.793,4.88-3.385c3.77-1.161,8.041,0.501,7.896,4.784c-0.03,0.841-0.077,1.74-0.384,2.537
			c-2.837,7.387-6.389-4.537-1.706-3.078c-2.398-1.186-6.083-0.521-6.343,2.552c-0.205,2.426,1.964,4.515,4.169,5.105
			c5.825,1.56,9.484-5.323,6.501-9.963c-2.387-3.718-6.784-5.298-11.019-3.573c-3.318,1.348-5.972,3.836-7.378,7.145
			c-0.267,0.627-0.482,1.27-0.675,1.922c-0.19-0.652-0.405-1.295-0.674-1.922c-1.406-3.309-4.058-5.797-7.378-7.145
			c-4.235-1.725-8.63-0.145-11.016,3.573c-2.986,4.64,0.675,11.523,6.501,9.963c2.205-0.59,4.374-2.679,4.168-5.105
			c-0.26-3.073-3.945-3.738-6.343-2.552c4.681-1.458,1.132,10.465-1.707,3.078c-0.306-0.797-0.353-1.696-0.382-2.537
			c-0.147-4.282,4.125-5.944,7.896-4.784c1.922,0.592,3.612,1.836,4.879,3.385c4.499,5.495,3.99,15.002-1.715,19.42
			c-6.362,4.93-13.398-0.813-17.787-5.412c-0.817-0.79-1.645-1.682-2.539-2.736c-0.315-0.373-0.61-0.765-0.904-1.154
			c-0.305-0.409-0.61-0.814-0.94-1.199l-2.12-2.442c-0.176,0.311-0.375,0.604-0.603,0.876l8.509,12.804
			c1.405,1.8,3.033,3.369,5.334,4.229c2.995,1.125,6.565,0.889,9.712,1.324c1.301,0.18,2.542,0.278,2.83,1.848
			c0.222,1.211-0.549,2.103-1.797,1.95c2.184,1.255,5.553-0.625,5.012-3.215c-0.489-2.335-2.904-1.767-4.086-3.425
			c1.007-1.609,2.446-2.906,3.405-4.59c0.738-1.299,1.321-2.689,1.745-4.124c0.427,1.435,1.01,2.825,1.748,4.124
			c0.958,1.684,2.398,2.98,3.405,4.59c-1.184,1.658-3.597,1.09-4.085,3.425c-0.542,2.59,2.826,4.47,5.009,3.215
			c-1.246,0.152-2.015-0.739-1.793-1.95c0.287-1.569,1.525-1.668,2.828-1.848c3.146-0.436,6.716-0.199,9.714-1.324
			c2.299-0.86,3.927-2.43,5.333-4.229l8.506-12.804C246.369,25.089,246.169,24.795,245.991,24.484z"/>
		<path d="M407.638,31.209c2.454,0.035,3.521-2.012,3.137-4.202c0.302,1.72-2.146,1.569-3.051,0.833
			c-1.718-1.402,0.287-3.1,1.889-3.071c2.438,0.045,3.654,2.608,3.266,4.735c-0.462,2.526-2.11,4.568-4.598,5.418
			c-3.284,1.116-6.165,0.653-8.766-0.625c-0.043,0.815-0.163,1.627-0.359,2.421c2.18,0.909,4.545,1.378,7.156,1.166
			c5.908-0.483,13.054-8.298,7.605-13.879c-1.784-1.829-3.945-2.582-6.469-2.455c-2.746,0.139-5.471,2.722-5.144,5.559
			C402.6,29.672,405.243,31.176,407.638,31.209z"/>
		<path d="M283.868,34.035c-1.844,0.425-3.469-0.053-5.019-1.086c2.703-0.427,4.303-1.525,4.905-4.293
			c0.403-1.843-0.363-4.157-1.999-5.201c-1.028-0.66-2.394-0.707-3.56-0.425c-1.715,0.41-3.066,2.15-2.306,3.923
			c0.594,1.382,2.715,2.095,3.985,1.259c1.886-1.235,0.369-4.746-1.434-3.525c1.506-1.02,3.463,0.445,3.354,2.29
			c-0.085,1.446-0.782,3.466-2.289,3.996c-5.07,1.778-6.327-2.864-5.961-5.741c0.283-2.187,2.108-4.348,2.129-6.425
			c0.018-2.205-1.317-3.327-3.056-3.732c0.688,0.16,1.852-2.089,2.023-2.561c0.371-1.015,0.331-1.996,0.015-3.02
			c-0.763-2.478-3.749-3.238-6.016-2.329c1.581-0.635,2.274,1.6,1.982,2.673c-0.42,1.529-1.728,2.076-3.206,1.602
			c-1.434-0.461-2.702-0.835-4.241-0.712c-0.688,0.057-1.204,0.284-1.727,0.509c-0.346,0.145-0.694,0.294-1.098,0.39
			c2.949-0.711,6.375,0.767,7.887,3.279c1.616,2.691,1.812,5.948,2.026,9.006c0.143,2.085,0.507,4.146,1.193,6.096
			c0.14,1.173,0.198,2.35,0.038,3.494c-0.171,1.23-0.381,2.742-1.43,3.557c-1.004,0.779-2.862,0.77-3.52-0.47
			c-0.514-0.974-0.277-2.208,0.889-2.448c0.533-0.11,1.1,0.051,1.572,0.304c-0.662-1.431-2.239-1.269-3.373-0.52
			c-3.042,2.001-0.86,6.206,2.255,6.54c4.373,0.473,6.273-2.095,6.354-5.518c2.112,2.404,6.082,5.014,9.427,3.819
			c3.288-1.175,3.876-4.831,3.063-7.839C286.742,32.626,285.409,33.68,283.868,34.035z M272.57,22.555
			c-0.212-1.841-0.693-3.626-1.403-5.339c-0.414-1.004-1.305-3.614-2.474-4.003c0.386,0.129,0.787,0.167,1.192,0.146
			c1.931-0.107,2.4-2.232,1.985-3.863c0.526,1.322,1.106,2.828,0.3,4.18c-0.127,0.212-1.844,1.477-1.901,1.03
			c0.099,0.737,0.478,1.062,0.936,1.583c0.902,1.032,2.148,1.297,2.385,2.815C273.797,20.433,272.819,21.353,272.57,22.555z"/>
		<path d="M219.458,22.761c-0.716,1.854-0.945,4.084-0.861,5.625c0.159,2.997,1.289,6.176,4.123,7.626
			c2.564,1.314,5.51,1.217,8.135,0.148c3.544-1.442,6.132-4.698,9.307-6.797c0.022-0.026,0.044-0.05,0.067-0.075
			c-1.459,0.338-3.038,1.341-4.524,1.833c-1.493,0.492-3.022,1.359-4.584,1.668c-1.559,0.308-4.13,0.439-3.497-1.936
			c0.425-1.58,2.571-2.374,3.758-1.061c-1.767-1.958-4.932-3.249-6.783-0.68c-1.49,2.063-0.12,5.951,2.372,6.736
			c-1.519-0.053-3.033-0.612-4.216-1.574c-1.449-1.183-1.233-2.359-0.794-4.009c0.276-1.036,0.741-2.462,0.479-3.523
			c-0.269-1.095-1.358-1.814-1.646-2.937c-0.349-1.358-0.073-2.804,0.781-3.919C220.62,20.467,219.93,21.531,219.458,22.761z"/>
		<path d="M279.343,42.212c-0.205-1.248-1.111-2.083-2.034-2.86c-1.194-1.007-2.194-2.008-2.753-3.521
			c0.243,0.662,0.33,1.391,0.309,2.135c-0.076,2.695-2.213,5.301,0.607,7.356c1.04,0.759,3.539,2.264,3.811,3.666
			c-0.151-0.788-0.291-1.511-0.284-2.315C279.007,45.232,279.575,43.637,279.343,42.212z"/>
		<path d="M307.474,37.154c0.384-0.031,0.765-0.061,1.138-0.092c2.317-0.194,4.411-0.484,6.314-2.167
			c1.892-1.674,2.897-4.087,3.215-6.556c0.127-0.981,0.333-3.422-0.99-3.883c-0.922-0.322-1.616,0.285-1.628,1.159
			c-0.021,1.398,0.383,2.639,0.096,4.042c-0.291,1.445-0.864,2.846-1.68,4.074c-1.022,1.536-2.251,2.096-3.941,2.696
			C309.167,36.721,308.317,36.906,307.474,37.154z"/>
		<path d="M314.663,37.914c-2.145,0.66-4.01,0.594-6.219,0.451c0.778,0.271,1.618,0.443,2.467,0.52
			c1.192,0.108,2.408,0.034,3.522-0.195c3.179-0.651,5.827-2.246,7.76-4.906c1.101-1.519,1.906-3.424,2.15-5.294
			c0.133-1.05-0.222-3.324-1.694-3.153c-1.926,0.222-1.455,3.945-1.804,5.215C320.086,33.307,317.449,37.061,314.663,37.914z"/>
		<path d="M314.824,40.094c3.572,0.462,6.766,0.842,10.097-1.043c1.929-1.091,4.103-2.912,5.021-4.988
			c0.064-0.145,0.112-0.294,0.138-0.443c0.289-1.562-1.364-3.102-2.704-1.509c-1.313,1.556-1.92,3.769-3.344,5.279
			C321.804,39.758,317.947,40.495,314.824,40.094z"/>
		<path d="M387.117,16.499c3.356,1.96,5.882,5.451,10.15,4.452c3.29-0.77,4.285-4.898,3.98-7.735
			c-0.393-3.634-3.553-9.371-7.861-8.917c1.247,0.532,2.031,1.282,2.456,2.568c0.749,2.275,0.461,5.159-1.362,6.877
			c-2.444,2.302-4.09-0.12-6.688,0.22c3.789-0.496,4.661-4.285,3.092-7.152c-1.714-3.129-5.492-5.434-8.812-3.093
			c-2.622,1.849-1.285,5.874,1.547,6.634c1.726,0.461,3.378-0.144,4.206-1.231c0.596,2.534-0.908,4.858-6.733,3.258
			c-5.431-1.495-11.369-0.512-16.738,0.739c-0.363,0.083-0.738,0.169-1.107,0.258c-0.411,0.098-0.821,0.206-1.214,0.322
			c1.453-0.093,2.848-0.246,4.301-0.418C373.203,12.463,380.99,12.92,387.117,16.499z M392.389,16.764
			c1.714,0.293,3.316-0.1,4.74-1.301c1.079-0.91,1.973-3.217,1.337-4.609c0.843,1.843,0.736,4.477-0.803,5.974
			c-0.854,0.835-2.165,1.101-3.316,0.96c-1.192-0.144-1.983-0.954-3.02-1.29C391.684,16.615,392.039,16.706,392.389,16.764z"/>
		<path d="M393.377,4.299c0.004-0.001,0.007,0,0.01-0.001c-0.003,0-0.006-0.003-0.01-0.005
			C393.293,4.294,393.293,4.296,393.377,4.299z"/>
		<path d="M310.833,43.25c-0.765-0.361-1.59-0.862-2.369-1.407c-0.663-0.467-1.32-1.001-1.934-1.525
			c1.133,0.974,1.977,2.482,2.651,3.792c0.618,1.199,1.294,2.453,2.292,3.38c0.89,0.828,2.885,1.682,3.89,0.569
			c0.627-0.691,0.24-1.242-0.275-1.865C314.02,44.899,312.335,43.961,310.833,43.25z"/>
		<path d="M336.322,17.696c0.091-2.194-2.368-3.647-4.273-5.044c-0.642-0.469-1.22-0.932-1.618-1.413
			c0.912,2.307,0.566,5.845,2.299,7.701C333.933,20.233,336.25,19.537,336.322,17.696z"/>
		<path d="M415.472,39.68c0.418,0.771-0.545,2.37-1.09,2.837c-0.814,0.694-1.926,0.71-2.95,0.714
			c-3.89,0.008-9.443-1.633-11.48-5.169c0.287,1.897,0.362,3.974-0.051,5.854c-0.229,1.019-0.436,1.675-1.613,1.761
			c-0.221,0.018-0.522-0.022-0.828-0.111c-0.629-0.188-1.274-0.594-1.307-1.193c0.05,0.942,0.174,1.977,0.755,2.753
			c2.132,2.852,7.225,1.524,7.192-2.13c1.257,0.783,2.665,1.493,4.13,1.796c1.336,0.276,2.778,0.349,4.096-0.038
			C415.195,45.916,416.95,42.4,415.472,39.68z"/>
	</g>
</g>
</svg>
