<?xml version="1.0" encoding="utf-8"?>
<!-- Generator: Adobe Illustrator 16.0.0, SVG Export Plug-In . SVG Version: 6.00 Build 0)  -->
<!DOCTYPE svg PUBLIC "-//W3C//DTD SVG 1.1//EN" "http://www.w3.org/Graphics/SVG/1.1/DTD/svg11.dtd">
<svg version="1.1" id="Calque_1" xmlns="http://www.w3.org/2000/svg" xmlns:xlink="http://www.w3.org/1999/xlink" x="0px" y="0px"
	 width="273px" height="56px" viewBox="0 0 273 56" enable-background="new 0 0 273 56" xml:space="preserve">
<g>
	<path d="M135.096,23.224c0.362,0.408,0.986,1.147,1.591,1.573v0.007c0.001,0,0.004-0.002,0.005-0.003
		c0.001,0.001,0.004,0.003,0.006,0.003v-0.007c0.604-0.426,1.229-1.165,1.592-1.573c0.659-0.742,1.232-1.599,1.658-2.496
		c0.788-1.655,1.276-3.968,0.891-5.79c-1.544,0.645-2.871,1.264-4.146,2.223c-1.276-0.959-2.6-1.579-4.146-2.223
		c-0.384,1.822,0.103,4.135,0.891,5.79C133.863,21.626,134.437,22.482,135.096,23.224z M136.242,19.875
		c0.05-0.226,0.202-0.942,0.45-1.38c0.249,0.438,0.399,1.154,0.452,1.38c0.338,1.504,0.119,3.223-0.452,4.68
		C136.122,23.098,135.902,21.379,136.242,19.875z"/>
	<path d="M122.701,25.279c0.129-0.319,1.113-0.875,1.434-0.984c0.497-0.169,1.208-0.047,1.723,0.02
		c2.042,0.269,3.836,1.303,5.823,1.781c1.063,0.255,2.186,0.224,3.311,0.122c-2.44-0.409-5.262-2.363-6.183-4.163
		c0.777,1.523,2.712,2.212,4.244,2.652c1.148,0.33,2.4,0.739,3.633,0.851v0.001c0.001,0,0.004,0,0.005,0s0.004,0,0.005,0v-0.001
		c1.233-0.112,2.485-0.522,3.634-0.851c1.533-0.44,3.466-1.129,4.243-2.652c-0.921,1.8-3.743,3.753-6.183,4.163
		c1.126,0.102,2.248,0.133,3.312-0.122c1.987-0.479,3.779-1.513,5.823-1.781c0.514-0.067,1.227-0.189,1.725-0.02
		c0.318,0.109,1.304,0.665,1.432,0.984c-0.238-0.597-0.61-1.244-0.933-1.809c-0.631-1.104-2.062-2.299-3.158-2.919
		c-0.692-0.392-1.453-0.692-2.222-0.888c-0.896-0.227-1.533-0.037-2.402-0.032c-0.575,2.473-2.874,4.533-5.276,5.307
		c-2.4-0.774-4.699-2.834-5.275-5.307c-0.868-0.005-1.506-0.195-2.401,0.032c-0.771,0.197-1.531,0.497-2.223,0.888
		c-1.097,0.62-2.525,1.814-3.159,2.919C123.312,24.035,122.939,24.682,122.701,25.279z"/>
	<path d="M131.002,34.747c0-0.002,0.001-0.002,0.003-0.004c-0.002,0-0.003-0.002-0.003-0.003
		C130.978,34.743,130.978,34.745,131.002,34.747z"/>
	<path d="M92.425,27.252c-0.049-0.179-0.08-0.357-0.101-0.534c-0.063-0.018-0.118-0.039-0.182-0.057
		c-0.255-0.066-0.548-0.109-0.85-0.089c0.103,1.456,0.719,2.767,1.782,3.783c1.282,1.227,3.093,1.938,4.801,2.32
		c0.686,0.152,1.375,0.262,2.072,0.323c0.218-0.179,0.452-0.362,0.698-0.552C97.126,32.262,93.444,30.991,92.425,27.252z"/>
	<path d="M92.78,22.644c-0.051,0.067-0.275,0.444-0.468,0.748c0.292,0.051,0.577,0.123,0.855,0.212
		c0.459-0.687,1.052-1.293,1.698-1.762c0.486-0.354,1.044-0.621,1.625-0.783c2.134-0.6,4.389,0.047,6.179,1.262
		c-0.277,0.225-0.567,0.397-0.674,0.763c-0.211,0.715,0.202,1.26,0.518,1.861c0.315,0.598,0.583,1.571,0.485,2.25
		c0.047-0.553,0.199-1.02,0.551-1.458c0.331-0.409,0.953-0.779,1.165-1.254c0.381-0.853-0.479-1.515-0.92-2.095
		c0.374,0.044,0.708,0.059,1.079-0.031c0.749-0.183,0.947-0.889,1.151-1.558c0.241-0.792,0.746-1.195,1.315-1.778
		c-0.336,0.241-0.592,0.389-0.998,0.497c-0.747,0.199-1.542,0.096-2.291,0.302c-0.958,0.26-1.054,0.889-1.184,1.775
		c-0.684-0.478-1.486-0.694-2.286-0.913c-0.789-0.215-1.605-0.308-2.422-0.302c-1.546,0.012-3.213,0.328-4.451,1.309
		C93.356,21.966,93.051,22.292,92.78,22.644z M105.557,20.107c-0.518,0.37-0.816,0.813-1.27,1.229
		c-0.217,0.197-0.467,0.412-0.768,0.377C103.461,20.918,104.988,20.392,105.557,20.107z M103.374,22.446
		c0.104,0.147,0.119,0.294,0.126,0.475c0.039,0.901-0.197,1.877-0.379,2.739C103.312,24.762,102.738,23.168,103.374,22.446z"/>
	<path d="M108.761,29.076c-3.556,2.334-5.697,5.499-10.367,5.804c-2.077,0.135-4.165-0.461-5.831-1.706
		c-1.341-1.003-3.566-2.886-3.708-4.679c-0.042-0.533,0.254-1.111,0.696-1.547c0.659-0.79,1.612-1.072,2.719-0.782
		c1.645,0.431,2.71,1.256,3.435,2.667c0.069-0.678,0.059-1.465-0.114-2.114c-0.244-0.921-0.881-1.715-1.679-2.241
		c-1.009-0.54-2.15-0.755-3.386-0.642c-0.051,0.01-0.101,0.015-0.153,0.025c-0.992,0.199-1.991,0.664-2.686,1.415
		c-0.687,0.742-0.75,1.719-0.668,2.687c-0.469-0.099-0.951-0.075-1.417,0.028c-2.615,0.582-3.272,3.993-1.969,6.056
		c0.513,0.808,1.371,1.321,2.286,1.553c0.47,0.12,0.833,0.11,1.292,0.063c0.233-0.023,0.474-0.016,0.705-0.044
		c0.184-0.023,0.58-0.222,0.725-0.205c-0.484-0.059-0.96-0.185-1.393-0.418c-0.486-0.26-0.84-0.753-1.052-1.248
		c-0.384-0.888-0.516-2.074,0.019-2.934c0.248-0.399,0.682-0.732,1.171-0.735c0.747-0.003,0.842,0.605,1.232,1.074
		c0.683,0.817,1.48,1.545,2.305,2.216c1.629,1.326,3.572,2.229,5.648,2.569c1.227,0.203,2.496,0.175,3.719-0.04
		c2.409-0.419,4.569-1.862,6.527-3.237c1.262-0.884,2.494-1.8,3.8-2.622c3.038-1.914,6.32-2.179,9.635-1.181
		c0.23-0.249,0.458-0.499,0.689-0.747c0.024-0.026,0.048-0.052,0.073-0.078c-2.476-1.23-5.518-5.939-2.554-7.771
		c0.069-0.042,0.14-0.083,0.212-0.12c-2.464,1.287,0.377,6.647,2.356,7.874c0.279-0.298,0.557-0.596,0.831-0.895
		c0.125-0.138,0.235-0.292,0.35-0.454c0.053-0.072,0.108-0.147,0.163-0.221c-0.026-0.008-0.051-0.017-0.081-0.021
		c-0.013-0.047-0.048-0.092-0.12-0.13c-0.963-0.531-1.83-1.614-2.237-2.628c-0.471-1.168-0.208-2.525,0.901-3.226
		c1.03-0.65,2.246-0.461,3.348-0.145c-0.155-0.175-0.317-0.343-0.486-0.502c-0.217-0.201-0.449-0.386-0.708-0.542
		c-1.875-1.125-4.467-1.108-6.07,0.445c-2.024,1.96-1.836,4.525-0.082,6.194C113.996,26.168,111.227,27.455,108.761,29.076z
		 M87.907,27.295c-0.163,0.582-0.156,1.146-0.073,1.736c-1.1,0.037-1.77,0.284-2.627,1.034c-0.792,0.691-0.784,1.443-0.712,2.468
		c0.052,0.746,0.299,1.523,0.856,2.046c-1.174-0.755-1.42-2.595-1-3.809c0.273-0.789,0.834-1.394,1.579-1.764
		c0.552-0.274,0.932-0.41,1.536-0.403c-0.365-2.622,1.996-4.256,4.387-3.936c0.55,0.074,0.97,0.197,1.394,0.572
		c-0.975-0.422-2.004-0.339-3.004-0.078C89.091,25.463,88.248,26.076,87.907,27.295z"/>
	<path d="M106.329,21.912c0.313,0.003,0.614-0.079,0.919,0.021c0.309,0.102,0.469,0.408,0.725,0.589
		c0.438,0.308,1.013,0.57,1.536,0.671c-0.414,0.011-0.892-0.025-1.277-0.189c-0.393-0.167-0.606-0.549-1.011-0.725
		c-0.358-0.156-0.689-0.17-1.046-0.018c-0.185,0.079-0.748,0.358-0.772,0.574c0,0.011,0,0.022,0.005,0.033
		c0.271,0.169,0.679,0.101,0.984,0.196c0.475,0.146,0.936,0.328,1.408,0.483c-0.621,0.004-1.202-0.244-1.809-0.333
		c-0.684-0.101-0.703,0.049-0.613,0.658c0.151,1.032,1.608,0.72,2.348,0.736c-0.377,0.174-0.847,0.2-1.255,0.223
		c-0.079,0.003-1.27-0.054-1.239-0.124c-0.153,0.342,0.313,0.632,0.682,0.86c0.711,0.173,1.667-0.097,2.267-0.215
		c0.854-0.169,1.691-0.429,2.528-0.632c0.611-0.149,1.297-0.114,1.948-0.045c0.207,0.022,0.409,0.049,0.604,0.072
		c-0.891-0.111-1.917-0.599-2.612-1.162c-0.356-0.29-0.647-0.675-0.991-0.991c-0.309-0.282-0.525-0.63-0.814-0.917
		c-0.302-0.301-0.722-0.467-1.149-0.501C107.12,21.244,106.416,21.389,106.329,21.912z"/>
	<path d="M83.128,25.538c0.965,0.451,1.924,0.894,2.764,1.538c-1.478-2.291-3.499-5.98-3.937-8.422
		c1.062,2.352,2.821,4.402,3.839,6.888c0.089,0.218,0.184,0.419,0.278,0.619c-0.009-0.824,0.144-1.759,0.175-2.24
		c0.078-1.241,0.057-2.507-0.386-3.684c-0.234-0.617-0.581-1.223-1.083-1.827c-0.986-1.185-3.823-2.931-3.839-4.656
		c0.027,2.895-1.575,5.466-0.961,8.433C80.333,23.896,81.646,24.844,83.128,25.538z"/>
	<path d="M86.729,25.17c0.23-0.549,0.567-1.096,0.81-1.556c0.385-0.729,0.855-1.386,1.213-2.133c0.685-1.426,1.68-2.719,2.646-3.965
		c-1.73,2.23-2.696,4.927-4.033,7.4c0.448-0.572,0.967-1.083,1.584-1.493c0.875-0.583,1.979-0.741,2.761-1.476
		c0.648-0.605,1.004-1.549,1.146-2.412c0.113-0.701,0.178-1.418,0.283-2.124c0.106-0.711,0.139-1.909,0.554-2.514
		c-0.08,0.116-0.167,0.222-0.257,0.319c-1.188,1.263-3.25,1.322-4.538,2.487c-0.985,0.89-1.591,2.384-1.629,3.725
		C87.234,22.72,86.967,23.925,86.729,25.17z"/>
	<path d="M72.601,30.323c0.55,0.051,1.058,0.2,1.583,0.373c1.168,0.383,2.314,0.859,3.543,1.014
		c0.903,0.111,1.847,0.074,2.672-0.344c0.83-0.424,1.38-1.264,2.032-1.909c0.446-0.441,0.908-0.892,1.424-1.251
		c-0.212,0.027-0.387,0.042-0.473,0.052c-0.891,0.098-1.78,0.175-2.667,0.272c-0.542,0.06-1.083,0.125-1.625,0.208
		c-1.401,0.212-3.036,0.194-4.368,0.523c2.023-0.5,4.07-0.892,6.122-1.255c1.165-0.207,2.318-0.545,3.498-0.675
		c0.068-0.007,0.179-0.023,0.304-0.035c-0.351-0.102-0.703-0.204-1.046-0.358c-0.038-0.017-0.075-0.034-0.113-0.05
		c-1.006-0.448-2.108-0.903-3.176-1.156c-1.291-0.305-3.085-0.058-4.181,0.725c-1.191,0.848-2.289,1.864-3.436,2.776
		c-0.578,0.458-1.297,0.663-1.927,1.006C71.107,30.054,72.208,30.288,72.601,30.323z"/>
	<path d="M75.021,22.76c0.24,1.073,0.774,1.576,1.792,1.952c0.857,0.316,1.721,0.135,2.589,0.182
		c-1.254-0.751-2.456-1.809-3.19-2.785c1.531,0.91,3.055,2.12,4.638,2.914c-0.159-0.169-0.305-0.354-0.425-0.537
		c-0.099-0.152-0.186-0.31-0.267-0.471c-0.321-0.645-0.533-1.349-0.951-1.942c-0.592-0.84-1.476-1.125-2.448-1.296
		c-0.833-0.148-1.573-0.27-2.325-0.702C74.941,20.366,74.905,22.244,75.021,22.76z"/>
	<path d="M86.469,20.164c-0.039-1.609-0.148-3.293,0.106-4.845c0.208,1.388,0.258,3.102,0.18,4.557
		c0.147-0.438,0.381-0.881,0.63-1.17c0.425-0.493,0.852-0.806,0.865-1.504c0.015-0.763-0.45-1.365-0.924-1.923
		c-0.039-0.047-0.075-0.093-0.108-0.139c-0.379-0.533-0.365-1.075-0.497-1.736c-0.042,0.408-0.232,0.983-0.466,1.351
		c-0.41,0.644-1.248,1.2-1.367,2.004c-0.105,0.715,0.429,1.17,0.809,1.69C86.071,18.961,86.286,19.56,86.469,20.164z"/>
	<path d="M127.849,36.386c-3.343,6.966-10.185-0.188-14.209-1.95c-3.165-1.388-6.801,0.281-8.902,2.79
		c0.26,0.091,0.538,0.183,0.879,0.245c1.549,0.286,2.467,0.13,3.798,1.297c-0.669-0.588-1.761-0.893-2.635-0.844
		c0.047-0.004,1.241,1.688,1.347,1.886c0.314,0.58,0.449,1.23,0.571,1.875c0.045,0.24,0.09,0.48,0.14,0.716
		c-0.399-1.856-1.917-3.694-3.619-4.441c-0.129,0.35-0.146,0.709-0.226,1.088c-0.344,1.626-0.848,3.428-1.055,5.059
		c0.062-0.487,0.888-6.334,0.625-6.286c0.011-0.001-0.083-0.066-0.078-0.055c-1.882,1.417-3.191,3.273-4.854,4.935
		c1.431-1.854,2.801-3.555,4.499-5.139c-0.375,0.07-0.774,0.133-1.15,0.227c-1.772,0.447-3.383,1.377-4.928,2.268
		c0.926-0.533,1.489-1.281,2.52-1.729c1.047-0.453,2.049-0.926,3.219-0.896c-1.214-0.557-2.751-0.196-3.936,0.3
		c0.992-0.414,1.892-0.748,2.98-0.839c0.614-0.052,1.034,0.042,1.433,0.173c-2-1.214-4.823-0.19-6.59,1.146
		c-2.983,2.257-1.104,5.029,1.876,5.828c3.443,0.923,8.896,0.555,11.348-2.353c1.19-1.412-0.033-3.072-1.267-3.838
		c-0.995-0.616-2.182-0.667-3.334-0.461c1.297-1.811,3.212-2.948,5.725-2.139c1.486,0.479,2.804,1.725,4.019,2.657
		c1.411,1.084,3.276,1.84,5.035,2.081c3.082,0.426,6.206-0.326,8.027-2.771c-0.275-0.152-0.538-0.337-0.794-0.517
		C128.153,36.587,128,36.482,127.849,36.386z"/>
	<path d="M67.906,43.997c-3.935-1.187-6.486-5.24-3.241-8.908c0.662-0.749,1.492-1.271,2.418-1.634
		c-0.181-0.227-0.358-0.455-0.53-0.688c-0.692,0.263-1.358,0.587-1.98,0.999c-2.26,1.5-3.869,3.704-3.347,6.519
		c0.531,2.871,3.702,4.471,6.41,4.884C67.583,44.789,67.71,44.367,67.906,43.997z"/>
	<path d="M60.611,21.247c0.519,0.41,0.965,0.764,1.698,0.889l0.222,0.037c0.524,0.085,1.123,0.187,1.651,0.419
		c-0.047-0.112-0.094-0.224-0.152-0.333c-0.582-1.079-1.98-1.108-2.835-1.811c0.368,0.157,0.707,0.323,1.089,0.443
		c0.559,0.175,1.362,0.358,1.783,0.785c0.358,0.362,0.533,0.885,0.85,1.284c0.05-0.865,0.569-1.555,1.281-2.032
		c0.709-0.476,1.665-0.955,2.526-1.051c-0.261,0.028-0.792,0.298-1.05,0.412c-0.338,0.148-0.702,0.376-1.005,0.59
		c-0.651,0.464-1.073,1.037-1.233,1.827c-0.001,0.013-0.003,0.025-0.005,0.038c0.37-0.134,0.886-0.273,1.598-0.431
		c0.1-0.021,0.171-0.036,0.199-0.045c0.95-0.273,1.467-1.014,2.014-1.798c0.317-0.455,0.643-0.912,1.054-1.284
		c-0.163,0.053-0.327,0.107-0.5,0.147c-1.005,0.233-2.086-0.185-3.07,0.183c-0.42,0.158-0.87,0.488-1.209,0.783
		c-0.148,0.128-1.059,1.063-0.9,1.272c-0.139-0.184-0.271-0.368-0.425-0.54c-0.646-0.722-1.523-1.472-2.543-1.466
		c-0.877,0.007-1.616,0.492-2.4,0.825c0.113,0.037,0.225,0.08,0.332,0.138C59.982,20.75,60.302,21.003,60.611,21.247z"/>
	<path d="M69.46,32.041c0.199,0.27,0.404,0.534,0.615,0.79c3.574-0.233,7.703,0.89,10.428,1.659
		c0.018,0.008,0.042,0.009,0.062,0.012c0.073-0.244,0.153-0.486,0.23-0.712c0.057-0.164,0.109-0.323,0.157-0.472
		C77.458,32.38,73.242,31.53,69.46,32.041z"/>
	<path d="M74.519,44.142c-1.299-0.603-2.996-1.552-4.49-1.27c-0.498,0.095-1.215,0.251-1.628,0.649
		c-0.099,0.115-0.18,0.23-0.229,0.323c-0.002,0.004-0.003,0.007-0.004,0.01c0.617-0.401,1.457-0.674,2.196-0.608
		c0.467,0.041,0.934,0.14,1.387,0.226c-0.811,0.028-1.702,0.014-2.48,0.272c-0.22,0.072-0.622,0.19-0.433,0.457
		c0.237,0.336,0.997,0.289,1.357,0.344c0.536,0.085,1.105,0.151,1.604,0.382c-0.738-0.103-1.547-0.118-2.293-0.157
		c-0.334-0.018-1.14-0.007-1.264,0.403c-0.182,0.611,1.136,0.936,1.507,1.06c-0.638-0.265-1.818-0.074-2.075-0.901
		c0.051,0.573,0.808,0.975,1.29,1.113c1.175,0.34,2.162,0.244,3.327,0.011c0.458-0.093,0.927-0.106,1.387-0.177
		c0.682-0.102,1.373-0.155,2.059-0.197c0.946-0.058,1.897-0.039,2.844-0.085c0.354-0.018,0.953,0.042,1.274-0.081
		c-0.565-0.015-1.153-0.125-1.71-0.251C76.866,45.373,75.688,44.685,74.519,44.142z"/>
	<path d="M75.482,37.597c-4.166-1.914-7.253-5.351-8.961-9.992c-0.444-1.21-0.925-2.718-0.891-4.031
		c-0.145,0.053-0.288,0.095-0.421,0.112c-0.049,0.007-0.095,0.006-0.143,0.006c-0.04,0.023-0.085,0.042-0.128,0.042
		c-0.076,0-0.148-0.035-0.198-0.098c-0.268-0.084-0.51-0.242-0.752-0.343c0.104,0.476,0.016,1.118,0.058,1.524
		c0.097,0.936,0.279,1.862,0.537,2.768c0.371,1.298,0.908,2.543,1.583,3.712c0.923,1.435,2.044,2.758,3.235,4.056
		c1.576,1.477,3.428,2.712,5.489,3.636c6.191,2.772,13.321,1.772,19.057-1.572c-0.297-0.147-0.593-0.285-0.885-0.419
		C87.471,40.474,80.809,40.29,75.482,37.597z"/>
	<path d="M63.054,19.551c0.188,0.144,0.38,0.283,0.569,0.426c-0.945-1.366-1.214-3.434-0.828-4.975
		c0.045,1.631,0.213,3.408,1.029,4.853c0.097,0.173,0.207,0.34,0.313,0.507c0.004,0.002,0.008,0.006,0.012,0.009
		c-0.016-0.974,0.013-1.947,0.009-2.921c-0.004-0.865,0.104-1.76-0.059-2.616c0.293,1.55,0.256,3.189,0.423,4.761
		c0.02,0.183,0.1,0.413,0.144,0.635c1.041-0.726,1.004-2.717,1.008-3.793c0.001-0.253-0.005-0.505-0.008-0.756
		c0.197,1.139,0.464,2.942-0.169,4.081c0.626-0.528,1.332-1.046,1.768-1.659c0.146-0.205,0.261-0.419,0.333-0.649
		c0.315-0.993,0.063-2.086-0.491-2.936c-1.038-1.596-3.046-3.103-3.021-5.18c-0.027,2.322-1.927,3.847-2.556,5.92
		C60.918,17.282,61.446,18.341,63.054,19.551z"/>
	<path d="M53.708,27.753c-0.396-0.202-1.186-0.824-1.662-0.407c4.06-3.577,9.086,3.471,12.643,5.036
		c0.24-0.167,0.519-0.312,0.75-0.419c-0.932-0.424-1.819-1.018-2.634-1.616c-1.788-1.314-3.449-2.839-5.478-3.785
		c-0.874-0.408-1.844-0.752-2.821-0.714c-1.014,0.039-1.845,0.546-2.674,1.074c-0.055,0.035-0.11,0.069-0.166,0.104
		c0.033-0.176,0.188-0.385,0.247-0.584c0.133-0.454,0.063-0.921,0.006-1.381c-0.051-0.419-0.012-0.786-0.027-1.205
		c-0.325,0.588-0.958,0.84-1.385,1.337c-0.383,0.448-0.55,0.965-0.553,1.552c-0.002,0.544,0.163,0.825,0.434,1.071
		c-0.221-0.748,0.638-1.891,0.938-2.52c-0.37,0.774-0.702,1.797-0.646,2.668c0.013,0.193,2.283,0.219,2.509,0.253
		c-0.492-0.075-1.38,0.275-2.042,0.2c0.148,0.152,0.26,0.304,0.498,0.406c0.998,0.419,1.576-0.069,2.478-0.367
		c0.398-0.131,0.82-0.093,1.219-0.207c-0.207-0.027-0.41-0.058-0.6-0.11C54.396,28.045,54.027,27.917,53.708,27.753z"/>
	<path d="M50.636,30.716c0.316-0.379,0.598-1.451,0.193-1.851c-0.225,1.396-1.519,1.908-2.373,2.813
		c0.697-0.739,2.048-2.147,2.064-3.201c-0.009-0.01-0.019-0.019-0.031-0.027c-1.128-0.034-1.612,0.548-2.426,1.304
		c0.428-0.591,1.191-1.632,2.034-1.597c-0.29-0.168-0.615-0.272-0.955-0.274c-0.906-0.008-1.723,1.106-2.035,1.835
		c-0.245,0.578-0.421,1.183-0.66,1.761c-0.215,0.524-0.322,1.13-0.618,1.621c0.792-0.443,1.724-0.48,2.584-0.709
		c0.73-0.194,1.568-0.453,2.213-0.854c0.408-0.254,0.576-0.623,0.647-1.089c0.049-0.32,0.007-0.646-0.1-0.956
		C51.129,29.933,50.913,30.384,50.636,30.716z"/>
	<path d="M136.688,15.763c0.003,0,0.003,0,0.004-0.002c0.001,0.001,0.001,0.001,0.004,0.002v-0.003
		c0.814-0.381,1.597-0.713,2.335-0.986c-0.164-0.796-0.578-1.429-1.035-2.128c-0.366-0.559-0.807-1.07-1.3-1.519V11.12
		c-0.003,0.001-0.003,0.001-0.004,0.003c0,0-0.001,0-0.003-0.003v0.006c-0.495,0.449-0.935,0.96-1.3,1.519
		c-0.458,0.699-0.872,1.333-1.034,2.127c0.739,0.273,1.52,0.605,2.333,0.986V15.763z"/>
	<path d="M138.685,28.729c-0.644-0.246-1.313-0.439-1.976-0.601c1.23,1.28,2.284,2.746,3.747,3.81
		c1.683,1.229,3.551,2.315,5.599,2.805c1.91,0.458,3.768,0.424,5.68-0.038c1.406-0.34,2.943-0.77,4.216-1.462
		c1.066-0.582,2.23-1.381,3.102-2.234c-0.359,0.115-0.659,0.344-1.008,0.472c-0.636,0.235-1.424,0.439-2.098,0.446
		c-0.836,0.008-1.647-0.051-2.357-0.51c-2.418-1.564-3.822-4.788-6.736-5.559c-1.602-0.424-2.743,0.703-4.213,1.076
		c-1.913,0.485-4.119,0.55-5.942-0.29v-0.003c-0.001,0-0.004,0-0.006,0.001c0,0-0.004,0-0.005-0.001v0.003
		c-1.823,0.84-4.028,0.775-5.942,0.29c-1.47-0.373-2.611-1.5-4.212-1.076c-2.916,0.771-4.319,3.997-6.738,5.559
		c-0.709,0.459-1.521,0.517-2.357,0.51c-0.673-0.007-1.462-0.211-2.097-0.446c-0.348-0.128-0.649-0.356-1.007-0.472
		c0.871,0.853,2.035,1.652,3.102,2.234c1.272,0.692,2.811,1.122,4.216,1.462c1.91,0.462,3.768,0.496,5.68,0.038
		c2.047-0.489,3.914-1.575,5.599-2.805c1.463-1.064,2.515-2.53,3.746-3.81c-0.663,0.162-1.333,0.355-1.975,0.601
		c-4.554,1.747-8.693,5.889-14.077,4.751c0.916,0.029,1.716-0.073,2.608-0.288c4.668-1.125,8.736-5.454,13.461-6.432
		c4.727,0.978,8.796,5.307,13.462,6.432c0.892,0.215,1.692,0.317,2.607,0.288C147.377,34.618,143.238,30.477,138.685,28.729z"/>
	<path d="M142.378,34.743c0.001,0.002,0.003,0.002,0.004,0.004c0.023-0.002,0.023-0.004,0-0.007
		C142.381,34.741,142.379,34.743,142.378,34.743z"/>
	<path d="M137.295,30.745c-0.185,2.299-0.405,4.597-0.551,6.89c-0.015-0.074-0.03-0.151-0.045-0.227v-0.07
		c-0.002,0.01-0.006,0.023-0.008,0.035c-0.001-0.012-0.004-0.025-0.006-0.035v0.07c-0.014,0.075-0.029,0.152-0.044,0.227
		c-0.147-2.293-0.368-4.591-0.553-6.89c-1.409,1.694-3.138,2.919-5.082,3.998c1.987,1.219,3.698,2.722,5.679,3.924v0.008
		c0.003-0.001,0.005-0.003,0.007-0.004c0.003,0.001,0.005,0.003,0.007,0.004v-0.008c1.981-1.202,3.692-2.705,5.679-3.924
		C140.433,33.664,138.704,32.439,137.295,30.745z"/>
	<path d="M173.438,33c0.697-0.063,1.386-0.172,2.069-0.324c1.708-0.382,3.521-1.094,4.804-2.319
		c1.063-1.017,1.677-2.328,1.781-3.783c-0.302-0.021-0.595,0.022-0.852,0.089c-0.063,0.017-0.118,0.038-0.181,0.057
		c-0.022,0.178-0.053,0.355-0.102,0.534c-1.02,3.739-4.7,5.01-8.22,5.196C172.987,32.638,173.218,32.821,173.438,33z"/>
	<path d="M167.362,20.798c0.202,0.669,0.401,1.375,1.15,1.558c0.372,0.09,0.704,0.076,1.079,0.031
		c-0.443,0.581-1.302,1.242-0.922,2.095c0.214,0.476,0.835,0.846,1.166,1.254c0.352,0.438,0.503,0.904,0.552,1.458
		c-0.098-0.679,0.169-1.652,0.483-2.25c0.317-0.601,0.729-1.146,0.519-1.861c-0.107-0.365-0.396-0.538-0.674-0.763
		c1.79-1.214,4.044-1.861,6.18-1.262c0.578,0.163,1.136,0.429,1.624,0.783c0.646,0.469,1.236,1.076,1.697,1.762
		c0.277-0.09,0.563-0.162,0.854-0.212c-0.193-0.305-0.417-0.681-0.468-0.748c-0.271-0.352-0.576-0.678-0.926-0.957
		c-1.237-0.981-2.903-1.297-4.45-1.309c-0.815-0.006-1.634,0.086-2.423,0.302c-0.799,0.218-1.603,0.434-2.284,0.913
		c-0.131-0.886-0.229-1.516-1.185-1.776c-0.749-0.205-1.545-0.102-2.292-0.301c-0.404-0.109-0.661-0.256-0.998-0.498
		C166.615,19.603,167.12,20.006,167.362,20.798z M170.01,22.446c0.634,0.722,0.062,2.315,0.253,3.215
		c-0.183-0.862-0.419-1.838-0.38-2.739C169.891,22.74,169.906,22.594,170.01,22.446z M169.865,21.712
		c-0.301,0.035-0.554-0.18-0.77-0.377c-0.455-0.417-0.751-0.858-1.271-1.229C168.396,20.392,169.922,20.918,169.865,21.712z"/>
	<path d="M152.545,20.441c1.107,0.701,1.372,2.058,0.901,3.226c-0.407,1.014-1.275,2.097-2.237,2.628
		c-0.071,0.038-0.106,0.083-0.12,0.129c-0.028,0.003-0.055,0.013-0.08,0.021c0.055,0.073,0.11,0.148,0.162,0.222
		c0.115,0.162,0.226,0.316,0.351,0.454c0.274,0.299,0.552,0.597,0.83,0.895c1.979-1.227,4.821-6.587,2.357-7.875
		c0.071,0.038,0.143,0.08,0.211,0.12c2.964,1.832-0.077,6.541-2.553,7.771c0.023,0.026,0.047,0.052,0.072,0.078
		c0.231,0.248,0.459,0.498,0.688,0.747c3.314-0.999,6.597-0.733,9.636,1.181c1.306,0.821,2.537,1.737,3.8,2.622
		c1.958,1.375,4.119,2.818,6.528,3.238c1.223,0.213,2.491,0.241,3.718,0.039c2.077-0.342,4.02-1.244,5.649-2.57
		c0.824-0.671,1.621-1.398,2.303-2.216c0.391-0.469,0.486-1.077,1.233-1.073c0.488,0.002,0.923,0.336,1.171,0.736
		c0.535,0.859,0.403,2.044,0.021,2.933c-0.214,0.494-0.569,0.987-1.055,1.248c-0.432,0.233-0.906,0.359-1.393,0.418
		c0.146-0.017,0.541,0.181,0.725,0.205c0.231,0.028,0.472,0.021,0.704,0.044c0.461,0.047,0.823,0.057,1.296-0.063
		c0.912-0.231,1.773-0.744,2.283-1.553c1.306-2.063,0.646-5.474-1.969-6.055c-0.466-0.104-0.948-0.127-1.415-0.029
		c0.08-0.968,0.018-1.944-0.67-2.686c-0.695-0.75-1.694-1.215-2.685-1.415c-0.054-0.011-0.104-0.016-0.155-0.025
		c-1.235-0.114-2.374,0.102-3.385,0.641c-0.797,0.527-1.434,1.32-1.679,2.241c-0.172,0.649-0.183,1.437-0.115,2.115
		c0.727-1.412,1.791-2.237,3.436-2.667c1.106-0.291,2.06-0.008,2.719,0.782c0.442,0.437,0.739,1.015,0.696,1.547
		c-0.141,1.792-2.365,3.676-3.708,4.678c-1.665,1.245-3.754,1.841-5.83,1.706c-4.67-0.305-6.809-3.469-10.366-5.804
		c-2.467-1.62-5.235-2.908-8.08-3.183c1.753-1.669,1.942-4.234-0.082-6.194c-1.604-1.554-4.196-1.57-6.069-0.445
		c-0.26,0.155-0.491,0.34-0.709,0.542c-0.168,0.16-0.328,0.328-0.485,0.502C150.3,19.981,151.518,19.792,152.545,20.441z
		 M183.141,25.162c-1-0.262-2.029-0.345-3.005,0.078c0.423-0.375,0.844-0.498,1.395-0.572c2.392-0.32,4.751,1.313,4.387,3.936
		c0.604-0.006,0.984,0.129,1.537,0.403c0.742,0.37,1.304,0.975,1.577,1.764c0.42,1.214,0.176,3.054-0.998,3.809
		c0.556-0.522,0.804-1.3,0.856-2.046c0.069-1.024,0.079-1.776-0.713-2.468c-0.857-0.75-1.528-0.997-2.626-1.034
		c0.082-0.59,0.09-1.154-0.073-1.736C185.135,26.076,184.292,25.463,183.141,25.162z"/>
	<path d="M162.674,24.723c0.838,0.204,1.677,0.463,2.528,0.633c0.602,0.118,1.557,0.388,2.268,0.214
		c0.37-0.228,0.837-0.518,0.681-0.86c0.034,0.069-1.158,0.127-1.236,0.124c-0.409-0.023-0.88-0.049-1.257-0.223
		c0.74-0.016,2.196,0.296,2.348-0.736c0.091-0.609,0.07-0.759-0.612-0.658c-0.607,0.088-1.188,0.336-1.808,0.333
		c0.471-0.155,0.932-0.337,1.406-0.484c0.307-0.096,0.713-0.028,0.985-0.196c0.004-0.012,0.006-0.021,0.004-0.033
		c-0.023-0.216-0.587-0.495-0.772-0.574c-0.357-0.153-0.688-0.138-1.045,0.018c-0.406,0.175-0.617,0.556-1.012,0.724
		c-0.384,0.164-0.863,0.199-1.277,0.189c0.523-0.101,1.097-0.363,1.535-0.67c0.258-0.181,0.416-0.488,0.725-0.589
		c0.308-0.101,0.605-0.018,0.921-0.022c-0.089-0.523-0.793-0.668-1.367-0.733c-0.427,0.035-0.847,0.201-1.146,0.501
		c-0.29,0.286-0.508,0.633-0.815,0.917c-0.344,0.315-0.634,0.701-0.989,0.991c-0.697,0.563-1.723,1.05-2.615,1.162
		c0.195-0.023,0.399-0.049,0.606-0.072C161.378,24.609,162.065,24.574,162.674,24.723z"/>
	<path d="M187.136,23.92c0.03,0.481,0.185,1.417,0.175,2.24c0.095-0.2,0.188-0.401,0.277-0.619c1.02-2.487,2.777-4.537,3.841-6.888
		c-0.438,2.441-2.46,6.131-3.937,8.421c0.84-0.643,1.798-1.086,2.764-1.538c1.481-0.694,2.793-1.641,3.148-3.352
		c0.614-2.967-0.986-5.539-0.96-8.433c-0.016,1.725-2.853,3.471-3.839,4.656c-0.504,0.604-0.851,1.21-1.083,1.827
		C187.079,21.414,187.057,22.68,187.136,23.92z"/>
	<path d="M180.528,19.536c0.14,0.863,0.498,1.807,1.144,2.412c0.783,0.735,1.885,0.893,2.762,1.476
		c0.616,0.411,1.137,0.92,1.583,1.493c-1.335-2.473-2.302-5.169-4.033-7.4c0.967,1.246,1.962,2.539,2.647,3.965
		c0.357,0.747,0.828,1.404,1.214,2.133c0.243,0.46,0.58,1.007,0.811,1.556c-0.238-1.246-0.507-2.45-0.543-3.741
		c-0.038-1.34-0.643-2.835-1.625-3.725c-1.29-1.166-3.351-1.225-4.539-2.488c-0.093-0.097-0.179-0.203-0.257-0.319
		c0.414,0.605,0.447,1.804,0.552,2.514C180.349,18.118,180.414,18.835,180.528,19.536z"/>
	<path d="M193.072,25.732c-1.069,0.252-2.169,0.708-3.177,1.156c-0.038,0.016-0.074,0.033-0.113,0.05
		c-0.343,0.154-0.694,0.256-1.046,0.358c0.126,0.012,0.236,0.027,0.304,0.035c1.181,0.129,2.333,0.468,3.498,0.675
		c2.051,0.363,4.099,0.755,6.122,1.255c-1.331-0.329-2.967-0.312-4.368-0.523c-0.542-0.083-1.083-0.148-1.623-0.208
		c-0.889-0.097-1.778-0.174-2.669-0.272c-0.086-0.01-0.26-0.025-0.472-0.052c0.516,0.36,0.977,0.81,1.423,1.251
		c0.652,0.646,1.2,1.486,2.034,1.909c0.823,0.418,1.767,0.455,2.669,0.344c1.231-0.153,2.375-0.63,3.544-1.014
		c0.525-0.173,1.034-0.322,1.583-0.373c0.392-0.035,1.493-0.27,1.836-0.085c-0.631-0.343-1.349-0.548-1.927-1.006
		c-1.149-0.912-2.247-1.929-3.437-2.776C196.156,25.673,194.363,25.427,193.072,25.732z"/>
	<path d="M192.959,24.485c-0.121,0.183-0.267,0.368-0.427,0.538c1.582-0.793,3.106-2.004,4.639-2.914
		c-0.736,0.976-1.937,2.033-3.191,2.785c0.868-0.047,1.733,0.133,2.59-0.182c1.019-0.375,1.553-0.878,1.792-1.952
		c0.115-0.515,0.08-2.393,0.588-2.685c-0.754,0.433-1.493,0.555-2.327,0.702c-0.971,0.172-1.854,0.457-2.447,1.296
		c-0.418,0.593-0.629,1.297-0.951,1.942C193.143,24.176,193.058,24.333,192.959,24.485z"/>
	<path d="M186.628,19.876c-0.078-1.455-0.027-3.169,0.18-4.557c0.256,1.552,0.145,3.235,0.105,4.845
		c0.182-0.604,0.398-1.203,0.773-1.715c0.38-0.52,0.913-0.975,0.808-1.69c-0.119-0.805-0.955-1.361-1.366-2.005
		c-0.236-0.368-0.424-0.943-0.466-1.351c-0.132,0.661-0.119,1.204-0.497,1.736c-0.032,0.046-0.068,0.093-0.109,0.139
		c-0.474,0.558-0.938,1.16-0.923,1.923c0.013,0.698,0.439,1.011,0.864,1.505C186.246,18.995,186.483,19.438,186.628,19.876z"/>
	<path d="M175.704,38.21c-1.768-1.336-4.59-2.359-6.591-1.146c0.399-0.13,0.818-0.224,1.432-0.173
		c1.09,0.091,1.989,0.425,2.983,0.839c-1.188-0.496-2.724-0.856-3.938-0.299c1.169-0.03,2.172,0.442,3.218,0.896
		c1.031,0.448,1.594,1.195,2.52,1.729c-1.543-0.89-3.155-1.819-4.927-2.268c-0.375-0.094-0.774-0.155-1.149-0.227
		c1.698,1.585,3.067,3.285,4.499,5.139c-1.663-1.661-2.973-3.518-4.855-4.935c0.007-0.012-0.087,0.054-0.075,0.055
		c-0.266-0.047,0.563,5.798,0.623,6.287c-0.208-1.632-0.711-3.432-1.055-5.059c-0.08-0.379-0.095-0.737-0.227-1.089
		c-1.702,0.747-3.219,2.586-3.619,4.442c0.05-0.236,0.096-0.477,0.141-0.716c0.124-0.646,0.258-1.295,0.57-1.875
		c0.107-0.198,1.3-1.89,1.348-1.887c-0.873-0.048-1.966,0.257-2.635,0.844c1.33-1.167,2.249-1.011,3.799-1.297
		c0.344-0.063,0.619-0.153,0.879-0.245c-2.101-2.509-5.736-4.178-8.901-2.789c-4.025,1.763-10.867,8.915-14.21,1.95
		c-0.151,0.096-0.305,0.2-0.466,0.313c-0.258,0.18-0.52,0.364-0.792,0.517c1.818,2.445,4.943,3.197,8.024,2.771
		c1.759-0.242,3.624-0.997,5.036-2.082c1.213-0.932,2.533-2.179,4.018-2.657c2.514-0.81,4.429,0.328,5.726,2.14
		c-1.152-0.206-2.339-0.155-3.334,0.461c-1.235,0.765-2.457,2.425-1.268,3.838c2.454,2.907,7.904,3.275,11.349,2.353
		C176.808,43.239,178.686,40.468,175.704,38.21z"/>
	<path d="M208.81,33.767c-0.621-0.413-1.287-0.737-1.979-0.999c-0.172,0.232-0.35,0.461-0.531,0.688
		c0.928,0.362,1.756,0.884,2.418,1.634c3.245,3.668,0.694,7.722-3.241,8.907c0.196,0.371,0.324,0.793,0.271,1.172
		c2.707-0.412,5.877-2.014,6.408-4.883C212.679,37.471,211.068,35.267,208.81,33.767z"/>
	<path d="M204.14,20.467c0.549,0.785,1.063,1.525,2.015,1.798c0.027,0.009,0.099,0.023,0.199,0.045
		c0.713,0.157,1.229,0.296,1.6,0.431c-0.004-0.014-0.004-0.025-0.007-0.038c-0.158-0.79-0.582-1.362-1.232-1.826
		c-0.301-0.215-0.666-0.442-1.005-0.591c-0.26-0.113-0.791-0.383-1.049-0.412c0.861,0.097,1.815,0.575,2.524,1.051
		c0.713,0.477,1.231,1.168,1.284,2.032c0.316-0.398,0.489-0.921,0.848-1.284c0.422-0.427,1.225-0.609,1.785-0.785
		c0.382-0.12,0.721-0.286,1.088-0.442c-0.855,0.702-2.255,0.732-2.836,1.81c-0.06,0.109-0.104,0.222-0.152,0.333
		c0.529-0.232,1.127-0.334,1.651-0.419l0.223-0.036c0.73-0.124,1.178-0.479,1.699-0.889c0.307-0.244,0.626-0.496,1.027-0.72
		c0.106-0.058,0.218-0.101,0.333-0.138c-0.785-0.333-1.522-0.819-2.402-0.826c-1.021-0.006-1.897,0.744-2.543,1.466
		c-0.152,0.171-0.286,0.356-0.426,0.54c0.16-0.208-0.748-1.144-0.898-1.272c-0.34-0.294-0.79-0.625-1.209-0.782
		c-0.984-0.368-2.066,0.049-3.069-0.183c-0.175-0.041-0.338-0.095-0.501-0.147C203.497,19.556,203.823,20.013,204.14,20.467z"/>
	<path d="M192.432,33.317c0.046,0.149,0.101,0.308,0.155,0.472c0.078,0.227,0.158,0.467,0.231,0.712
		c0.02-0.003,0.044-0.004,0.062-0.011c2.725-0.771,6.853-1.893,10.428-1.66c0.211-0.255,0.417-0.52,0.617-0.789
		C200.141,31.53,195.925,32.38,192.432,33.317z"/>
	<path d="M203.636,46.231c0.37-0.124,1.688-0.448,1.506-1.061c-0.124-0.409-0.928-0.42-1.264-0.403
		c-0.745,0.041-1.555,0.055-2.293,0.157c0.5-0.229,1.069-0.296,1.604-0.381c0.362-0.055,1.12-0.008,1.357-0.344
		c0.188-0.266-0.212-0.384-0.433-0.457c-0.778-0.259-1.669-0.243-2.479-0.272c0.453-0.086,0.92-0.185,1.387-0.225
		c0.74-0.065,1.579,0.207,2.196,0.607c-0.001-0.002-0.003-0.005-0.003-0.009c-0.05-0.095-0.132-0.209-0.229-0.324
		c-0.415-0.397-1.133-0.555-1.627-0.648c-1.498-0.282-3.193,0.667-4.492,1.269c-1.171,0.543-2.35,1.232-3.625,1.522
		c-0.558,0.125-1.145,0.236-1.709,0.251c0.32,0.124,0.918,0.063,1.273,0.081c0.947,0.046,1.898,0.027,2.845,0.084
		c0.686,0.043,1.376,0.096,2.059,0.198c0.461,0.069,0.93,0.083,1.387,0.177c1.164,0.234,2.153,0.329,3.327-0.012
		c0.482-0.138,1.238-0.539,1.288-1.113C205.453,46.157,204.273,45.967,203.636,46.231z"/>
	<path d="M203.984,35.353c1.189-1.298,2.312-2.621,3.234-4.056c0.676-1.169,1.212-2.415,1.583-3.713
		c0.259-0.905,0.438-1.832,0.536-2.767c0.042-0.406-0.047-1.048,0.061-1.524c-0.244,0.101-0.486,0.259-0.755,0.343
		c-0.05,0.063-0.123,0.098-0.197,0.098c-0.045,0-0.09-0.018-0.13-0.042c-0.045,0-0.094,0.001-0.141-0.006
		c-0.134-0.017-0.277-0.059-0.424-0.112c0.034,1.313-0.444,2.82-0.89,4.03c-1.708,4.641-4.795,8.078-8.961,9.992
		c-5.325,2.693-11.987,2.877-17.577-0.6c-0.292,0.134-0.589,0.271-0.886,0.419c5.735,3.346,12.868,4.346,19.057,1.572
		C200.557,38.064,202.407,36.829,203.984,35.353z"/>
	<path d="M206.117,18.1c0.437,0.613,1.144,1.131,1.77,1.659c-0.636-1.138-0.368-2.941-0.17-4.08c-0.002,0.25-0.01,0.503-0.01,0.756
		c0.007,1.076-0.032,3.068,1.011,3.793c0.042-0.223,0.123-0.453,0.142-0.636c0.168-1.572,0.131-3.211,0.424-4.761
		c-0.161,0.856-0.055,1.751-0.059,2.616c-0.003,0.974,0.026,1.947,0.01,2.921c0.005-0.003,0.009-0.006,0.012-0.009
		c0.107-0.167,0.215-0.333,0.314-0.507c0.816-1.444,0.984-3.222,1.029-4.853c0.385,1.541,0.115,3.609-0.83,4.975
		c0.189-0.143,0.381-0.283,0.57-0.426c1.608-1.209,2.137-2.268,1.522-4.293c-0.629-2.074-2.528-3.598-2.556-5.92
		c0.024,2.077-1.981,3.583-3.021,5.179c-0.552,0.851-0.806,1.944-0.491,2.936C205.856,17.681,205.971,17.896,206.117,18.1z"/>
	<path d="M222.236,28.417c-0.664,0.076-1.551-0.275-2.043-0.201c0.226-0.034,2.496-0.06,2.508-0.253
		c0.059-0.872-0.276-1.894-0.646-2.668c0.301,0.629,1.161,1.773,0.941,2.52c0.271-0.245,0.435-0.526,0.432-1.07
		c-0.004-0.587-0.169-1.104-0.555-1.552c-0.427-0.498-1.06-0.75-1.385-1.337c-0.015,0.419,0.024,0.785-0.025,1.205
		c-0.056,0.459-0.127,0.927,0.005,1.381c0.06,0.198,0.213,0.408,0.248,0.584c-0.055-0.035-0.11-0.069-0.166-0.104
		c-0.828-0.527-1.661-1.034-2.675-1.074c-0.978-0.038-1.947,0.306-2.821,0.714c-2.029,0.946-3.69,2.472-5.479,3.785
		c-0.814,0.599-1.701,1.192-2.632,1.615c0.23,0.108,0.509,0.253,0.749,0.419c3.557-1.564,8.583-8.611,12.643-5.035
		c-0.477-0.417-1.266,0.206-1.659,0.407c-0.319,0.164-0.691,0.292-1.033,0.385c-0.191,0.052-0.396,0.083-0.602,0.111
		c0.399,0.113,0.819,0.075,1.218,0.207c0.902,0.298,1.479,0.786,2.479,0.367C221.976,28.721,222.089,28.568,222.236,28.417z"/>
	<path d="M226.935,31.48c-0.238-0.578-0.413-1.183-0.659-1.761c-0.311-0.729-1.131-1.843-2.035-1.835
		c-0.341,0.002-0.666,0.105-0.956,0.274c0.843-0.036,1.606,1.006,2.034,1.597c-0.813-0.756-1.297-1.338-2.427-1.304
		c-0.009,0.008-0.021,0.017-0.029,0.027c0.015,1.054,1.366,2.461,2.063,3.201c-0.854-0.904-2.147-1.418-2.373-2.813
		c-0.405,0.399-0.124,1.472,0.192,1.851c-0.273-0.332-0.492-0.783-0.537-1.223c-0.107,0.311-0.15,0.637-0.101,0.956
		c0.07,0.466,0.238,0.835,0.648,1.089c0.645,0.401,1.482,0.659,2.211,0.854c0.863,0.229,1.794,0.267,2.585,0.71
		C227.258,32.61,227.151,32.005,226.935,31.48z"/>
</g>
</svg>
