<?xml version="1.0" encoding="utf-8"?>
<!-- Generator: Adobe Illustrator 16.0.0, SVG Export Plug-In . SVG Version: 6.00 Build 0)  -->
<!DOCTYPE svg PUBLIC "-//W3C//DTD SVG 1.1//EN" "http://www.w3.org/Graphics/SVG/1.1/DTD/svg11.dtd">
<svg version="1.1" id="Calque_1" xmlns="http://www.w3.org/2000/svg" xmlns:xlink="http://www.w3.org/1999/xlink" x="0px" y="0px"
	 width="266px" height="56px" viewBox="0 0 266 56" enable-background="new 0 0 266 56" xml:space="preserve">
<g id="Calque_2" display="none">
	<rect display="inline" fill="#FF7503" width="266" height="56"/>
</g>
<g>
	<path display="none" d="M100.255,30.977c-0.002,0-0.004,0-0.007,0c0.001,0,0.003,0.002,0.004,0.004
		C100.271,30.994,100.271,30.994,100.255,30.977z"/>
	<path d="M132.396,25.708c-1.329-5.749-4.524-10.852-4.479-16.971c0.015-1.844,0.234-3.613,1.135-5.234
		c0.512-0.923,2.149-3.263,3.251-3.503c-0.714,0.156-1.513,0.52-2.16,0.864c-6.028,3.206-7.999,10.468-5.8,16.724
		c2.159,6.141,8.347,13.004,6.313,19.469c0.563-5.977-3.121-12.429-9.61-12.708c-6.279-0.269-12.455,6.233-8.98,11.663
		c0.285,0.541,0.678,1.016,1.148,1.396c0.052,0.053,0.1,0.105,0.154,0.158c0.069,0.064,0.162,0.111,0.269,0.143
		c0.691,0.438,1.51,0.697,2.389,0.697c1.219,0,2.721-0.645,3.456-1.617c1.293-1.709,0.955-4.422-0.945-5.506
		c-1.416-0.805-3.623-0.615-4.634,0.781c-0.93,1.283-1.037,3.201,0.187,4.367c-0.572-0.268-0.893-0.445-1.295-0.973
		c-1.761-2.309-0.35-6.242,1.869-7.754c2.424-1.649,4.449-1.922,7.315-1.33c2.011,0.416,3.316,1.942,4.279,3.651
		c2.081,3.688,2.15,8.078,0.204,11.861c-0.789,1.537-2.162,3.24-3.755,3.938c-1.336,0.586-3.521,0.904-4.938,0.539
		c0.943-0.186,1.859-0.305,2.687-0.836c1.654-1.061,2.932-3.088,3.336-4.992c0.484-2.279-0.077-4.576-1.018-6.658
		c0.243,1.441-0.167,3.207-0.771,4.521c-1.835,3.994-6.646,6.014-10.837,5.428c-2.335-0.324-4.559-1.416-6.679-2.387
		c-2.093-0.961-3.981-2.336-5.705-3.85c-1.761-1.547-3.09-3.746-3.122-6.129c-0.032-2.227,1.322-4.585,3.867-4.057
		c1.086,0.225,2.311,1.165,2.804,2.176c0.53,1.09,0.526,2.42-0.31,3.373c-0.728,0.834-2.205,1.01-3.021,0.17
		c-1.06-1.09-0.043-2.316,1.248-2.146c-1.429-0.861-3.012,0.309-2.367,1.969c0.513,1.311,2.349,1.883,3.628,1.521
		c1.218-0.342,2.149-1.889,2.073-3.092c-0.093-1.457-0.965-2.943-2.114-3.822c-2.18-1.676-5.406-0.829-6.587,1.546
		c-0.75,1.51-0.814,3.715-0.224,5.611c-0.824-0.605-1.652-1.197-2.487-1.762c-2.534-2.803-3.675-6.875-0.425-9.819
		c2.997-2.716,8.596,0.726,11.575,1.765c4.94,1.721,11.29,0.92,13.627-4.379c1.553-3.515-0.78-8.421-4.892-8.252
		c-2.409,0.097-4.747,1.299-5.528,3.234c-0.229,0.473-0.366,0.992-0.366,1.552c0,1.979,1.606,3.584,3.586,3.584
		c2.295,0,4.212-2.396,3.129-4.577c-0.571-1.155-2.029-1.665-3.231-1.483c-0.562,0.086-1.227,0.29-1.644,0.692
		c-0.578,0.557-1.048,1.444-0.989,2.268c-0.354-0.83,0.063-1.813,0.584-2.469c0.494-0.626,1.23-1.031,1.963-1.318
		c1.426-0.56,3.023-0.604,4.392,0.14c2.052,1.117,2.561,3.735,1.966,5.822c-0.683,2.402-2.896,3.989-5.155,4.776
		c-2.813,0.981-5.436,0.076-8.044-1.026c0.263,0.111,1.234-0.531,1.439-0.724c0.357-0.335,0.574-0.846,0.724-1.301
		c0.316-0.972,0.309-2.153-0.362-2.985c0.095,4.471-7.334,1.381-9.81,1.611c-1.245,0.119-2.692,0.564-3.754,1.232
		c-3.439,2.172-4.525,5.913-2.896,9.33c-6.374-2.869-12.748-2.361-19.953-0.34c-1.917,0.535-3.788,1.188-5.626,1.914
		c-4.012,1.24-8.738,2.066-9.856-2.084c-0.418-1.559,0.73-3.469,2.107-4.174c0.686-0.351,1.8-0.427,2.522-0.187
		c2.73,0.905,0.125,4.524-1.628,2.527c-0.245-0.278-0.278-1.173,0.194-1.326c-1.085,0.354-0.952,1.443-0.269,2.149
		c1.246,1.287,3.639,0.221,3.797-1.452c0.292-3.097-3.558-3.268-5.477-2.021c-2.868,1.865-3.711,5.322-0.626,7.43
		c1.216,0.83,2.724,1.033,4.328,0.904c-2.465,0.84-5.872,2.459-8.53,1.977c-2.08-0.377-2.809-2.359-2.804-4.252
		c0.003-0.967,0.284-1.914,0.874-2.689c0.359-0.473,1.755-1.791,2.445-1.604c-2.64-0.71-7.084,0.926-7.874,3.741
		c-0.642-1.584-2.122-2.53-3.795-1.785c2.353,0.787,1.959,3.652,1.887,5.633c-0.057,1.523,0.365,3.482,1.758,4.395
		c1.643,1.074,3.16,1.131,5.085,0.758c0.394-0.078,0.771-0.199,1.148-0.305c-3.536,1.627-6.609,4.393-10.355,5.637
		c-3.382,1.123-7.152,2.053-10.341,0.354c-3.648-1.941-3.904-5.727-2.184-8.881c0.46-0.842,1.672-3.029,0.619-3.916
		c-2.778-2.34-5.097,2.209-5.417,4.41c-0.336,2.307,0.224,4.816,1.426,6.803c1.733,2.863,5.338,3.682,8.741,3.607
		c-0.073,0.02-0.148,0.031-0.22,0.047c-5.221,0.771-9.308-1.463-10.921-7.275c-1.217-4.383-0.125-8.955,3.264-12.025
		c3.033-2.748,8.652-2.748,11.797-0.094c1.045,0.881,1.771,2.229,2.146,3.527c0.359,1.24,0.443,2.404-0.358,3.533
		c0.374-0.527,0.006-1.766-0.3-2.268c-0.465-0.77-1.442-1.555-2.343-1.715c-1.668-0.295-3.591,0.529-4.476,1.99
		c-1.173,1.934-0.522,4.307,1.252,5.609c2.851,2.094,6.776,0.299,7.444-3.086c0.303-1.537,0.125-3.197-0.407-4.662
		c-1.938-5.336-8.052-7.269-13.13-5.493c-0.823,0.289-2.103,0.847-2.747,1.447c-0.093-1.756-2.005-2.932-3.601-3.023
		c-1.596-0.094-4.418,1.268-3.209,3.325c-0.323-0.55,0.795-1.305,1.215-1.294c0.718,0.019,1.039,0.699,1.199,1.302
		c0.317,1.19,0.156,2.577-0.077,3.774c-0.194,0.998-0.436,1.979-0.557,2.986c-0.295,2.465-0.322,5.309,0.345,7.707
		c0.249,0.898,0.565,1.693,0.929,2.404c-1.311-0.586-2.701-0.881-4.333-0.43c-1.216,0.334-2.181,1.422-2.968,2.326
		c-1.616,1.859-3.499,4.475-6.06,5.027c-1.811,0.393-4.216-0.18-4.023-2.443c-0.562,2.92,1.171,4.225,3.85,4.377
		c3.243,0.188,6.271-1.371,9.039-2.893c3.937-2.166,7.554-1.127,11.683-1.068c5.856,0.711,13.297-2.539,18.005-4.99
		c5.359-2.791,10.3-6.309,15.73-8.965c1.011-0.492,1.979-0.879,2.996-1.324c-3.408,1.482-4.829,8.127-9.335,7.553
		c-0.431-0.055-0.908-0.291-0.984-0.727c0.092,1.576,1.817,2.23,3.214,2.223c2.159-0.01,3.373-1.205,4.374-3.012
		c-1.59,2.863,0.854,6.234,3.876,6.035c3.558-0.234,6.036-3.068,7.041-6.236c-0.181,0.57-0.502,1.078-0.946,1.48
		c-2.369,2.152-5.629-0.334-4.813-3.215c0.735-2.604,3.692-4.389,5.895-5.566c3.829-2.047,7.736-2.721,12.031-2.066
		c3.434,0.521,6.548,2.469,9.371,4.408c-3.093-1.102-6.268-1.939-9.559-2.221c-2.059-0.18-4.324-0.043-6.243,0.779
		c-0.834,0.355-1.819,0.861-2.012,1.818c-0.424,2.115,1.587,2.529,3.273,2.334c2.49-0.283,4.823-1.27,7.323-1.605
		c3.209-0.432,6.453,0.008,9.503,1.016c-0.996-0.117-2.015-0.17-3.068-0.156c-7.994,0.096-14.775,2.514-20.393,8.197
		c-3.647,3.689-7.357,6.479-12.275,8.309c-3.618,1.346-10.224,2.617-12.6-1.557c-1.128-1.984-0.078-4.57,1.313-6.107
		c2.181-2.412,5.587,0.85,4.225,3.357c-0.33,0.609-1.031,0.971-1.714,1.039c-0.922,0.092-1.409-0.389-1.286-1.309
		c-0.617,0.875,0.482,2.045,1.278,2.342c0.974,0.359,2.059,0.113,2.85-0.496c3.3-2.537,0.391-7.049-3.169-6.896
		c-5.201,0.225-9.496,7.463-4.328,10.828c3.326,2.166,8.421,1.098,11.957,0.203c5.137-1.301,10.045-3.992,13.927-7.58
		c2.354-2.176,4.356-4.602,7.034-6.414c1.788-1.215,4.048-2.01,6.439-2.453c-3.142,1.301-6.035,2.748-8.356,5.5
		c-1.487,1.762-3.234,3.523-4.074,5.713c-0.364,0.949-0.708,2.193-0.26,3.174c1.016,2.219,3.03-0.137,3.753-1.217
		c1.136-1.697,1.764-3.688,2.603-5.531c1.027-2.262,2.331-4.211,4.537-5.361c-1.209,1.113-2.133,2.486-2.613,4.125
		c-2.414,8.25,7.008,9.943,12.694,7.398c2.98-1.336,5.216-3.695,4.038-7.139c-1.083-3.174-5.031-4.541-8.021-3.563
		c-1.406,0.461-2.786,1.344-3.33,2.781c-0.904,2.395,0.684,4.443,3.088,4.635c0.89,0.072,2.031-0.057,2.555-0.861
		c0.52-0.801,0.638-2.389-0.382-2.852c0.483,0.678,0.457,1.43-0.179,2.004c-1.128,1.018-2.971,0.279-3.375-1.096
		c-0.376-1.271,0.444-2.699,1.609-3.248c1.187-0.561,2.735,0.061,3.7,0.805c1.748,1.352,2.349,3.688,1.548,5.689
		c-1.018,2.551-4.588,3.137-6.95,2.781c-4.135-0.621-5.096-4.973-4.088-8.412c1.309-4.473,6.271-5.584,10.363-5.426
		c1.388,0.055,2.911,0.375,4.14,1.049c1.032,0.568,2.164,1.1,3.134,1.764c5.299,3.629,11.69,7.658,18.387,7.305
		c2.739-0.145,5.264-0.82,7.951-1.299c1.607-0.285,3.966-0.029,4.979,1.479c0.537,0.799,0.426,1.793,0.213,2.68
		c1.193-1.242,0.676-3.939-0.448-5.047c-1.236-1.219-3.604-1.395-5.129-0.641c0.603-0.701,1.455-1.125,2.11-1.768
		c0.707-0.691,1.394-1.385,1.999-2.172c1.134-1.473,2.026-3.148,2.499-4.949c0.551-2.096,0.713-4.443,0.594-6.604
		C132.828,28.703,132.731,27.166,132.396,25.708z"/>
	<path d="M165.759,30.98c0-0.002,0.003-0.004,0.006-0.004c-0.004,0-0.006,0-0.01,0C165.74,30.994,165.74,30.994,165.759,30.98z"/>
	<path d="M265.894,49.043c0.191,2.264-2.213,2.836-4.023,2.443c-2.561-0.553-4.443-3.168-6.06-5.027
		c-0.787-0.904-1.752-1.992-2.968-2.326c-1.632-0.451-3.02-0.156-4.331,0.43c0.362-0.711,0.679-1.506,0.927-2.404
		c0.667-2.398,0.64-5.242,0.347-7.707c-0.12-1.008-0.364-1.988-0.557-2.986c-0.232-1.197-0.396-2.584-0.079-3.774
		c0.161-0.603,0.481-1.283,1.2-1.302c0.418-0.011,1.539,0.744,1.214,1.294c1.209-2.057-1.614-3.418-3.21-3.325
		c-1.596,0.091-3.508,1.267-3.6,3.023c-0.645-0.6-1.924-1.158-2.749-1.447c-5.074-1.775-11.19,0.157-13.13,5.493
		c-0.528,1.465-0.707,3.125-0.404,4.662c0.667,3.385,4.593,5.18,7.443,3.086c1.773-1.303,2.427-3.676,1.252-5.609
		c-0.884-1.461-2.808-2.285-4.476-1.99c-0.899,0.16-1.876,0.945-2.342,1.715c-0.307,0.502-0.676,1.74-0.3,2.268
		c-0.803-1.129-0.719-2.293-0.359-3.533c0.377-1.299,1.103-2.646,2.146-3.527c3.145-2.654,8.764-2.654,11.799,0.094
		c3.386,3.07,4.479,7.643,3.264,12.025c-1.616,5.813-5.702,8.047-10.922,7.275c-0.074-0.016-0.146-0.027-0.221-0.047
		c3.401,0.074,7.006-0.744,8.74-3.607c1.202-1.986,1.761-4.496,1.426-6.803c-0.321-2.201-2.64-6.75-5.418-4.41
		c-1.051,0.887,0.161,3.074,0.619,3.916c1.723,3.154,1.465,6.939-2.183,8.881c-3.189,1.699-6.96,0.77-10.341-0.354
		c-3.747-1.244-6.821-4.01-10.354-5.637c0.377,0.105,0.752,0.227,1.147,0.305c1.924,0.373,3.44,0.316,5.083-0.758
		c1.395-0.912,1.815-2.871,1.759-4.395c-0.072-1.98-0.466-4.846,1.888-5.633c-1.675-0.745-3.153,0.201-3.793,1.785
		c-0.791-2.815-5.234-4.451-7.875-3.741c0.689-0.187,2.084,1.131,2.443,1.604c0.59,0.775,0.873,1.723,0.875,2.689
		c0.005,1.893-0.726,3.875-2.805,4.252c-2.658,0.482-6.064-1.137-8.529-1.977c1.604,0.129,3.113-0.074,4.327-0.904
		c3.085-2.107,2.242-5.565-0.626-7.43c-1.917-1.248-5.767-1.076-5.476,2.021c0.156,1.673,2.551,2.739,3.796,1.452
		c0.683-0.706,0.816-1.796-0.269-2.149c0.473,0.152,0.44,1.047,0.194,1.326c-1.752,1.998-4.36-1.622-1.627-2.527
		c0.721-0.241,1.835-0.164,2.52,0.187c1.381,0.705,2.527,2.615,2.109,4.174c-1.119,4.15-5.846,3.324-9.857,2.084
		c-1.838-0.727-3.709-1.379-5.625-1.914c-7.206-2.021-13.58-2.529-19.955,0.34c1.629-3.417,0.545-7.158-2.894-9.33
		c-1.063-0.668-2.511-1.113-3.753-1.232c-2.478-0.23-9.906,2.859-9.813-1.611c-0.67,0.833-0.677,2.014-0.36,2.985
		c0.149,0.455,0.366,0.965,0.724,1.301c0.205,0.192,1.175,0.834,1.438,0.724c-2.606,1.102-5.229,2.007-8.044,1.026
		c-2.26-0.787-4.472-2.374-5.156-4.776c-0.593-2.087-0.085-4.706,1.966-5.822c1.371-0.745,2.968-0.7,4.394-0.14
		c0.732,0.287,1.47,0.692,1.963,1.318c0.52,0.657,0.938,1.64,0.582,2.469c0.06-0.824-0.41-1.711-0.987-2.268
		c-0.418-0.402-1.083-0.606-1.645-0.692c-1.201-0.182-2.659,0.328-3.23,1.483c-1.083,2.181,0.834,4.577,3.13,4.577
		c1.979,0,3.584-1.605,3.584-3.584c0-0.56-0.137-1.079-0.365-1.552c-0.782-1.936-3.119-3.137-5.526-3.234
		c-4.113-0.168-6.446,4.738-4.894,8.252c2.339,5.299,8.687,6.1,13.627,4.379c2.979-1.04,8.578-4.481,11.576-1.765
		c3.249,2.944,2.107,7.017-0.427,9.819c-0.836,0.564-1.663,1.156-2.485,1.762c0.587-1.896,0.523-4.102-0.226-5.611
		c-1.181-2.375-4.406-3.223-6.587-1.546c-1.148,0.879-2.021,2.365-2.114,3.822c-0.078,1.203,0.855,2.75,2.073,3.092
		c1.279,0.361,3.117-0.211,3.627-1.521c0.647-1.66-0.938-2.83-2.364-1.969c1.289-0.17,2.307,1.057,1.246,2.146
		c-0.815,0.84-2.294,0.664-3.021-0.17c-0.835-0.953-0.842-2.283-0.31-3.373c0.491-1.011,1.717-1.951,2.804-2.176
		c2.543-0.528,3.898,1.831,3.867,4.057c-0.031,2.383-1.359,4.582-3.121,6.129c-1.723,1.514-3.613,2.889-5.707,3.85
		c-2.118,0.971-4.342,2.063-6.678,2.387c-4.189,0.586-9.001-1.434-10.836-5.428c-0.604-1.314-1.015-3.08-0.771-4.521
		c-0.94,2.082-1.504,4.379-1.018,6.658c0.404,1.904,1.682,3.932,3.336,4.992c0.826,0.531,1.744,0.65,2.686,0.836
		c-1.415,0.365-3.601,0.047-4.938-0.539c-1.591-0.697-2.964-2.4-3.753-3.938c-1.946-3.783-1.876-8.174,0.204-11.861
		c0.963-1.708,2.269-3.235,4.278-3.651c2.867-0.592,4.893-0.319,7.316,1.33c2.218,1.512,3.63,5.446,1.869,7.754
		c-0.402,0.527-0.723,0.705-1.295,0.973c1.223-1.166,1.116-3.084,0.186-4.367c-1.008-1.396-3.217-1.586-4.634-0.781
		c-1.898,1.084-2.237,3.797-0.944,5.506c0.735,0.973,2.237,1.617,3.454,1.617c0.882,0,1.699-0.26,2.391-0.697
		c0.106-0.031,0.2-0.078,0.269-0.143c0.057-0.053,0.103-0.105,0.154-0.158c0.471-0.381,0.863-0.855,1.148-1.396
		c3.474-5.43-2.7-11.932-8.98-11.663c-6.489,0.278-10.173,6.731-9.61,12.708c-2.034-6.465,4.153-13.328,6.313-19.469
		c2.198-6.255,0.229-13.518-5.801-16.724c-0.646-0.345-1.446-0.708-2.159-0.864c1.102,0.241,2.739,2.58,3.25,3.503
		c0.902,1.622,1.122,3.39,1.136,5.234c0.046,6.119-3.149,11.222-4.479,16.971c-0.337,1.457-0.432,2.994-0.515,4.473
		c-0.117,2.16,0.045,4.508,0.596,6.604c0.473,1.801,1.365,3.477,2.498,4.949c0.606,0.787,1.291,1.48,1.999,2.172
		c0.655,0.643,1.509,1.066,2.111,1.768c-1.525-0.754-3.894-0.578-5.128,0.641c-1.125,1.107-1.643,3.805-0.449,5.047
		c-0.213-0.887-0.324-1.881,0.213-2.68c1.013-1.508,3.371-1.764,4.979-1.479c2.688,0.479,5.212,1.154,7.951,1.299
		c6.695,0.354,13.089-3.676,18.386-7.305c0.971-0.664,2.104-1.195,3.137-1.764c1.225-0.674,2.75-0.994,4.137-1.049
		c4.094-0.158,9.056,0.953,10.364,5.426c1.006,3.439,0.047,7.791-4.089,8.412c-2.361,0.355-5.933-0.23-6.951-2.781
		c-0.799-2.002-0.198-4.338,1.55-5.689c0.965-0.744,2.513-1.365,3.7-0.805c1.163,0.549,1.985,1.977,1.608,3.248
		c-0.404,1.375-2.246,2.113-3.373,1.096c-0.636-0.574-0.663-1.326-0.18-2.004c-1.02,0.463-0.901,2.051-0.381,2.852
		c0.523,0.805,1.665,0.934,2.554,0.861c2.404-0.191,3.993-2.24,3.089-4.635c-0.545-1.438-1.925-2.32-3.329-2.781
		c-2.991-0.979-6.938,0.389-8.021,3.563c-1.178,3.443,1.058,5.803,4.039,7.139c5.686,2.545,15.109,0.852,12.693-7.398
		c-0.479-1.639-1.405-3.012-2.61-4.125c2.203,1.15,3.508,3.1,4.535,5.361c0.837,1.844,1.466,3.834,2.603,5.531
		c0.723,1.08,2.737,3.436,3.752,1.217c0.449-0.98,0.104-2.225-0.258-3.174c-0.842-2.189-2.588-3.951-4.075-5.713
		c-2.321-2.752-5.215-4.199-8.356-5.5c2.393,0.443,4.652,1.238,6.439,2.453c2.678,1.813,4.679,4.238,7.034,6.414
		c3.881,3.588,8.789,6.279,13.928,7.58c3.535,0.895,8.632,1.963,11.956-0.203c5.167-3.365,0.873-10.604-4.328-10.828
		c-3.56-0.152-6.467,4.359-3.169,6.896c0.791,0.609,1.878,0.855,2.853,0.496c0.793-0.297,1.894-1.467,1.277-2.342
		c0.122,0.92-0.364,1.4-1.289,1.309c-0.683-0.068-1.381-0.43-1.713-1.039c-1.36-2.508,2.046-5.77,4.227-3.357
		c1.39,1.537,2.441,4.123,1.312,6.107c-2.376,4.174-8.982,2.902-12.602,1.557c-4.918-1.83-8.628-4.619-12.272-8.309
		c-5.619-5.684-12.399-8.102-20.396-8.197c-1.051-0.014-2.07,0.039-3.064,0.156c3.05-1.008,6.292-1.447,9.502-1.016
		c2.499,0.336,4.833,1.322,7.323,1.605c1.686,0.195,3.695-0.219,3.272-2.334c-0.191-0.957-1.18-1.463-2.011-1.818
		c-1.921-0.822-4.185-0.959-6.246-0.779c-3.287,0.281-6.463,1.119-9.556,2.221c2.821-1.939,5.937-3.887,9.37-4.408
		c4.293-0.654,8.2,0.02,12.031,2.066c2.203,1.178,5.159,2.963,5.895,5.566c0.816,2.881-2.444,5.367-4.812,3.215
		c-0.445-0.402-0.767-0.91-0.947-1.48c1.005,3.168,3.483,6.002,7.042,6.236c3.021,0.199,5.466-3.172,3.874-6.035
		c1.003,1.807,2.216,3.002,4.374,3.012c1.397,0.008,3.122-0.646,3.215-2.223c-0.077,0.436-0.554,0.672-0.986,0.727
		c-4.506,0.574-5.926-6.07-9.334-7.553c1.017,0.445,1.983,0.832,2.996,1.324c5.432,2.656,10.371,6.174,15.729,8.965
		c4.708,2.451,12.148,5.701,18.007,4.99c4.128-0.059,7.744-1.098,11.684,1.068c2.767,1.521,5.793,3.08,9.039,2.893
		C264.723,53.268,266.456,51.963,265.894,49.043z"/>
</g>
</svg>
