<?xml version="1.0" encoding="utf-8"?>
<!-- Generator: Adobe Illustrator 16.0.0, SVG Export Plug-In . SVG Version: 6.00 Build 0)  -->
<!DOCTYPE svg PUBLIC "-//W3C//DTD SVG 1.1//EN" "http://www.w3.org/Graphics/SVG/1.1/DTD/svg11.dtd">
<svg version="1.1" id="Calque_1" xmlns="http://www.w3.org/2000/svg" xmlns:xlink="http://www.w3.org/1999/xlink" x="0px" y="0px"
	 width="300px" height="25px" viewBox="0 0 300 25" enable-background="new 0 0 300 25" xml:space="preserve">
<path fill-rule="evenodd" clip-rule="evenodd" fill="#FFFFFF" stroke="#FFFFFF" stroke-width="0.5" stroke-miterlimit="10" d="
	M68.384,11.291c7.893-1.36,15.522-2.776,23.983-3.793c0.106,0.104,0.224,0.224,0.33,0.329c4.682,4.417,19.516,7.933,34.589,9.784
	c3.027,2.937,8.304,5.515,16.394,6.664c4.178,0.596,8.356,0.596,12.521,0c8.105-1.149,13.368-3.728,16.396-6.664
	c15.072-1.851,29.905-5.366,34.574-9.784c0.119-0.105,0.225-0.225,0.33-0.329c8.476,1.017,16.104,2.433,23.997,3.793l0,0
	c16.553,2.71,22.517,3.253,33.848,3.082c13.036-0.186,25.795-2.525,34.284-6.308c0.647-0.291,0.105-0.329-0.08-0.263
	c-6.029,2.181-11.688,3.993-20.64,4.626c-6.663,0.476-13.3,0.422-19.699-0.224c-9.929-1.019-18.591-2.645-27.594-4.206v0.014
	c-10.419-1.706-16.633-2.552-22.636-2.91c0.529-1.756-0.146-3.212-0.885-3.767c-0.331-0.251-0.504-0.053-0.251,0.251
	c0.885,1.033,1.017,2.26,0.475,3.491c-3.317-0.186-6.611-0.212-10.551-0.159c-7.999,0.12-15.904,1.045-22.781,2.632
	c-0.303-0.503-0.674-0.953-1.096-1.351c-2.354-2.179-5.447-2.723-8.648-0.528c-0.106,0.186,0.095,0.292,0.199,0.212
	c3.809-2.446,7.405-0.979,8.977,1.797c-4.085,0.967-7.788,2.155-10.921,3.557c-0.634,0.279-0.106,0.33,0.079,0.265
	c3.57-1.296,7.021-2.459,11.094-3.331c0.818,1.824,0.807,4.109-0.504,6.2c-0.104,0.172-0.236,0.355-0.356,0.529
	c-7.946,0.701-16.288,1.044-23.864,1.004c-7.577,0.04-15.92-0.303-23.866-1.004c-0.131-0.174-0.25-0.357-0.37-0.529
	c-1.308-2.091-1.322-4.363-0.49-6.188c4.072,0.858,7.51,2.022,11.082,3.318c0.197,0.065,0.727,0.014,0.08-0.265
	c-3.122-1.402-6.823-2.589-10.909-3.557c1.561-2.776,5.17-4.243,8.964-1.797c0.12,0.08,0.317-0.026,0.212-0.212
	c-3.212-2.195-6.295-1.651-8.647,0.528c-0.438,0.397-0.807,0.848-1.098,1.351c-6.876-1.587-14.795-2.513-22.807-2.632
	c-3.939-0.053-7.233-0.026-10.551,0.159c-0.542-1.231-0.397-2.458,0.475-3.491c0.251-0.304,0.081-0.502-0.25-0.251
	C91.047,1.89,90.358,3.346,90.9,5.102C84.898,5.46,78.672,6.308,68.266,7.998h-0.014c-8.99,1.561-17.651,3.188-27.594,4.206
	c-6.399,0.646-13.023,0.701-19.686,0.224C12.02,11.794,6.348,9.982,0.319,7.801C0.134,7.736-0.396,7.773,0.254,8.064
	c8.473,3.782,21.245,6.122,34.27,6.308c11.331,0.172,17.307-0.371,33.847-3.082H68.384L68.384,11.291z M150,0.858l1.442,8.013
	l2.499-6.452c-0.252-0.053-0.437-0.277-0.437-0.542c0-0.304,0.252-0.555,0.555-0.555c0.292,0,0.542,0.251,0.542,0.555
	c0,0.305-0.237,0.555-0.527,0.555l0.026,7.206l3.688-5.275c-0.159-0.104-0.252-0.279-0.252-0.475c0-0.305,0.239-0.556,0.543-0.556
	c0.305,0,0.556,0.251,0.556,0.556c0,0.304-0.251,0.555-0.556,0.555c-0.039,0-0.079,0-0.12-0.013l-2.471,8.791
	c-3.675-0.607-7.353-0.568-11.027,0l-2.485-8.831c-0.053,0.013-0.107,0.027-0.173,0.027c-0.291,0-0.542-0.252-0.542-0.556
	s0.251-0.555,0.542-0.555c0.304,0,0.555,0.251,0.555,0.555c0,0.186-0.092,0.356-0.238,0.45l3.731,5.328l0.025-7.231
	c-0.025,0-0.039,0-0.065,0c-0.305,0-0.543-0.251-0.543-0.556c0-0.304,0.238-0.556,0.543-0.556c0.304,0,0.542,0.252,0.542,0.556
	c0,0.25-0.146,0.45-0.357,0.529l2.472,6.386l1.415-7.908c-0.265-0.025-0.489-0.264-0.489-0.555c0-0.304,0.251-0.555,0.556-0.555
	c0.304,0,0.541,0.251,0.541,0.555C150.49,0.595,150.279,0.833,150,0.858L150,0.858z M93.438,7.365
	c0.833-0.093,1.681-0.186,2.539-0.265c6.385-0.662,13.024-0.715,19.688-0.238c3.398,0.251,6.319,0.661,8.964,1.19
	c-0.925,1.916-0.86,4.349,0.476,6.755c-13.341-1.229-25.386-3.464-30.448-6.584C94.206,7.946,93.796,7.669,93.438,7.365
	L93.438,7.365z M174.778,14.808c1.349-2.406,1.414-4.839,0.476-6.755c2.657-0.53,5.581-0.939,8.977-1.19
	c6.666-0.477,13.275-0.423,19.675,0.238c0.846,0.08,1.693,0.172,2.525,0.265c-0.357,0.304-0.753,0.581-1.203,0.858
	C200.165,11.344,188.133,13.579,174.778,14.808L174.778,14.808z M170.376,17.861c-3.188,1.93-8.013,3.413-14.558,4.138
	c-3.939,0.425-7.813,0.438-11.753,0c-6.546-0.725-11.358-2.208-14.559-4.138c7.248,0.809,14.413,1.219,20.442,1.151
	C155.965,19.08,163.144,18.67,170.376,17.861z"/>
</svg>
