<?xml version="1.0" encoding="utf-8"?>
<!-- Generator: Adobe Illustrator 16.0.0, SVG Export Plug-In . SVG Version: 6.00 Build 0)  -->
<!DOCTYPE svg PUBLIC "-//W3C//DTD SVG 1.1//EN" "http://www.w3.org/Graphics/SVG/1.1/DTD/svg11.dtd">
<svg version="1.1" id="Calque_1" xmlns="http://www.w3.org/2000/svg" xmlns:xlink="http://www.w3.org/1999/xlink" x="0px" y="0px"
	 width="273px" height="56px" viewBox="0 0 273 56" enable-background="new 0 0 273 56" xml:space="preserve">
<g>
	<path d="M134.298,20.835c0.543,0.612,1.479,1.72,2.386,2.359v0.01c0.002,0,0.006-0.003,0.008-0.005
		c0.002,0.002,0.006,0.005,0.008,0.005v-0.01c0.906-0.639,1.845-1.747,2.388-2.359c0.989-1.114,1.849-2.399,2.488-3.745
		c1.183-2.483,1.914-5.953,1.336-8.686c-2.316,0.967-4.306,1.897-6.22,3.335c-1.914-1.438-3.901-2.368-6.22-3.335
		c-0.576,2.733,0.154,6.203,1.337,8.686C132.448,18.437,133.309,19.721,134.298,20.835z M136.017,15.81
		c0.076-0.339,0.303-1.414,0.675-2.071c0.372,0.657,0.599,1.731,0.678,2.071c0.507,2.257,0.179,4.835-0.678,7.02
		C135.838,20.646,135.507,18.067,136.017,15.81z"/>
	<path d="M115.703,23.917c0.193-0.479,1.67-1.313,2.151-1.476c0.745-0.254,1.812-0.07,2.585,0.03
		c3.064,0.403,5.754,1.955,8.735,2.672c1.595,0.383,3.279,0.336,4.967,0.183c-3.66-0.613-7.894-3.544-9.275-6.244
		c1.166,2.284,4.068,3.319,6.367,3.979c1.722,0.494,3.6,1.108,5.45,1.277v0.002c0.002,0,0.006,0,0.008,0s0.006,0,0.008,0v-0.002
		c1.851-0.169,3.729-0.784,5.452-1.277c2.299-0.66,5.199-1.695,6.365-3.979c-1.381,2.7-5.615,5.631-9.275,6.244
		c1.688,0.153,3.373,0.2,4.967-0.183c2.981-0.717,5.671-2.269,8.737-2.672c0.771-0.1,1.839-0.284,2.587-0.03
		c0.478,0.164,1.957,0.997,2.147,1.476c-0.356-0.896-0.915-1.866-1.398-2.713c-0.947-1.657-3.094-3.449-4.739-4.379
		c-1.038-0.587-2.178-1.038-3.332-1.333c-1.344-0.34-2.3-0.055-3.604-0.048c-0.863,3.71-4.312,6.8-7.915,7.961
		c-3.601-1.161-7.049-4.251-7.914-7.961c-1.303-0.007-2.26-0.292-3.602,0.048c-1.157,0.296-2.297,0.746-3.334,1.333
		c-1.646,0.93-3.789,2.722-4.739,4.379C116.619,22.051,116.06,23.021,115.703,23.917z"/>
	<path d="M128.157,38.121c0.001-0.002,0.002-0.002,0.005-0.006c-0.003,0-0.004-0.002-0.005-0.004
		C128.12,38.115,128.12,38.119,128.157,38.121z"/>
	<path d="M70.283,26.877c-0.073-0.268-0.119-0.535-0.151-0.801c-0.094-0.027-0.177-0.059-0.273-0.085
		c-0.383-0.1-0.822-0.164-1.275-0.133c0.155,2.183,1.078,4.15,2.674,5.675c1.922,1.84,4.64,2.908,7.202,3.48
		c1.028,0.229,2.063,0.393,3.108,0.486c0.327-0.268,0.677-0.543,1.047-0.828C77.336,34.393,71.812,32.486,70.283,26.877z"/>
	<path d="M70.816,19.964c-0.077,0.101-0.412,0.666-0.702,1.122c0.438,0.076,0.865,0.184,1.282,0.319
		c0.689-1.03,1.578-1.94,2.547-2.644c0.73-0.532,1.567-0.931,2.437-1.175c3.202-0.9,6.585,0.071,9.27,1.893
		c-0.416,0.338-0.85,0.596-1.012,1.144c-0.316,1.073,0.304,1.89,0.777,2.792c0.473,0.898,0.875,2.358,0.728,3.376
		c0.071-0.83,0.298-1.531,0.827-2.187c0.497-0.613,1.43-1.168,1.747-1.882c0.571-1.279-0.718-2.272-1.381-3.143
		c0.561,0.067,1.063,0.088,1.618-0.047c1.124-0.274,1.421-1.333,1.727-2.337c0.361-1.187,1.119-1.793,1.973-2.668
		c-0.505,0.361-0.889,0.583-1.497,0.746c-1.12,0.299-2.314,0.144-3.437,0.452c-1.437,0.391-1.581,1.334-1.775,2.664
		c-1.026-0.717-2.23-1.042-3.43-1.37c-1.183-0.323-2.408-0.462-3.634-0.453c-2.32,0.018-4.82,0.492-6.677,1.964
		C71.681,18.948,71.223,19.436,70.816,19.964z M89.984,16.158c-0.778,0.556-1.224,1.219-1.906,1.844
		c-0.325,0.296-0.7,0.618-1.151,0.566C86.84,17.376,89.13,16.586,89.984,16.158z M86.709,19.668c0.156,0.221,0.178,0.441,0.19,0.713
		c0.058,1.352-0.295,2.816-0.569,4.109C86.616,23.141,85.756,20.751,86.709,19.668z"/>
	<path d="M94.791,29.613c-5.335,3.502-8.546,8.25-15.552,8.707c-3.115,0.203-6.248-0.691-8.748-2.559
		c-2.011-1.504-5.35-4.33-5.562-7.019c-0.063-0.799,0.381-1.667,1.044-2.321c0.989-1.185,2.418-1.609,4.079-1.173
		c2.467,0.646,4.065,1.884,5.153,4.001c0.103-1.017,0.089-2.198-0.171-3.172c-0.366-1.382-1.321-2.572-2.518-3.362
		c-1.513-0.809-3.225-1.133-5.08-0.962c-0.076,0.014-0.151,0.022-0.229,0.038c-1.488,0.299-2.987,0.996-4.029,2.122
		c-1.031,1.113-1.126,2.579-1.003,4.03c-0.703-0.148-1.426-0.112-2.126,0.043c-3.923,0.872-4.91,5.988-2.954,9.084
		c0.769,1.213,2.057,1.982,3.43,2.33c0.705,0.18,1.249,0.166,1.938,0.094c0.35-0.035,0.711-0.023,1.058-0.066
		c0.276-0.035,0.869-0.332,1.088-0.307c-0.726-0.088-1.441-0.277-2.09-0.627c-0.729-0.391-1.261-1.131-1.578-1.873
		c-0.576-1.332-0.774-3.111,0.028-4.4c0.372-0.6,1.023-1.1,1.757-1.104c1.12-0.004,1.263,0.908,1.849,1.611
		c1.024,1.227,2.221,2.318,3.457,3.324c2.445,1.99,5.359,3.344,8.474,3.855c1.84,0.305,3.744,0.262,5.579-0.059
		c3.613-0.629,6.855-2.795,9.792-4.857c1.894-1.326,3.742-2.701,5.701-3.934c4.558-2.871,9.481-3.269,14.455-1.771
		c0.345-0.374,0.686-0.749,1.034-1.12c0.036-0.039,0.071-0.078,0.109-0.117c-3.714-1.846-8.278-8.91-3.832-11.658
		c0.103-0.062,0.209-0.124,0.318-0.18c-3.697,1.931,0.566,9.972,3.535,11.813c0.419-0.448,0.835-0.895,1.247-1.343
		c0.188-0.207,0.353-0.438,0.525-0.681c0.08-0.109,0.163-0.221,0.245-0.332c-0.04-0.012-0.077-0.026-0.121-0.032
		c-0.02-0.07-0.072-0.137-0.18-0.194c-1.445-0.797-2.745-2.422-3.356-3.943c-0.707-1.753-0.313-3.788,1.351-4.84
		c1.545-0.975,3.369-0.691,5.022-0.216c-0.233-0.263-0.475-0.515-0.729-0.754c-0.325-0.302-0.673-0.579-1.063-0.813
		c-2.812-1.687-6.701-1.662-9.106,0.668c-3.037,2.94-2.754,6.788-0.123,9.292C102.644,25.251,98.49,27.182,94.791,29.613z
		 M63.506,26.942c-0.244,0.872-0.234,1.718-0.109,2.604c-1.65,0.055-2.655,0.427-3.942,1.552c-1.188,1.037-1.176,2.166-1.068,3.703
		c0.079,1.119,0.449,2.285,1.285,3.068c-1.761-1.133-2.13-3.893-1.499-5.713c0.41-1.184,1.252-2.092,2.368-2.646
		c0.828-0.412,1.398-0.615,2.304-0.605c-0.547-3.934,2.995-6.385,6.582-5.904c0.826,0.111,1.456,0.296,2.091,0.858
		c-1.463-0.634-3.007-0.51-4.506-0.118C65.282,24.194,64.017,25.113,63.506,26.942z"/>
	<path d="M91.142,18.866c0.471,0.005,0.921-0.118,1.379,0.033c0.464,0.152,0.703,0.612,1.088,0.884
		c0.656,0.462,1.519,0.855,2.304,1.006c-0.621,0.016-1.338-0.038-1.916-0.283c-0.59-0.251-0.91-0.824-1.517-1.087
		c-0.537-0.234-1.034-0.256-1.57-0.027c-0.277,0.119-1.122,0.537-1.158,0.862c0,0.017,0,0.033,0.008,0.049
		c0.406,0.253,1.018,0.151,1.476,0.294c0.712,0.22,1.404,0.493,2.112,0.726c-0.931,0.006-1.803-0.367-2.714-0.5
		c-1.026-0.151-1.055,0.073-0.919,0.987c0.227,1.548,2.412,1.08,3.522,1.104c-0.566,0.261-1.271,0.301-1.884,0.334
		c-0.118,0.005-1.905-0.081-1.858-0.185c-0.23,0.513,0.47,0.948,1.023,1.29c1.068,0.26,2.502-0.146,3.401-0.322
		c1.28-0.254,2.537-0.644,3.793-0.949c0.917-0.223,1.946-0.171,2.922-0.068c0.31,0.034,0.613,0.073,0.906,0.108
		c-1.337-0.167-2.877-0.898-3.919-1.743c-0.534-0.435-0.971-1.013-1.486-1.486c-0.463-0.424-0.789-0.945-1.222-1.375
		c-0.453-0.451-1.082-0.7-1.723-0.752C92.329,17.864,91.272,18.082,91.142,18.866z"/>
	<path d="M56.336,24.305c1.448,0.677,2.886,1.342,4.147,2.307c-2.217-3.436-5.249-8.972-5.906-12.634
		c1.594,3.528,4.232,6.603,5.76,10.333c0.134,0.327,0.277,0.629,0.417,0.929c-0.013-1.236,0.216-2.639,0.263-3.36
		c0.117-1.862,0.086-3.761-0.579-5.526c-0.351-0.926-0.871-1.834-1.625-2.741c-1.479-1.778-5.736-4.397-5.76-6.985
		c0.041,4.342-2.362,8.199-1.441,12.651C52.144,21.843,54.114,23.265,56.336,24.305z"/>
	<path d="M61.739,23.755c0.345-0.824,0.851-1.644,1.215-2.334c0.577-1.094,1.283-2.079,1.82-3.2c1.027-2.139,2.52-4.079,3.97-5.948
		c-2.596,3.346-4.045,7.392-6.05,11.101c0.671-0.858,1.451-1.624,2.376-2.239c1.313-0.875,2.969-1.111,4.142-2.214
		c0.972-0.909,1.506-2.325,1.719-3.619c0.17-1.052,0.267-2.128,0.425-3.186c0.159-1.066,0.208-2.864,0.831-3.771
		c-0.12,0.175-0.25,0.333-0.386,0.479c-1.783,1.895-4.876,1.983-6.808,3.732c-1.478,1.335-2.386,3.577-2.443,5.588
		C62.497,20.079,62.095,21.886,61.739,23.755z"/>
	<path d="M40.544,31.484c0.825,0.076,1.587,0.301,2.375,0.561c1.752,0.574,3.472,1.289,5.316,1.52
		c1.354,0.168,2.77,0.111,4.008-0.516c1.245-0.635,2.07-1.895,3.048-2.863c0.669-0.662,1.362-1.339,2.136-1.878
		c-0.318,0.04-0.581,0.063-0.709,0.077c-1.337,0.147-2.67,0.263-4.001,0.409c-0.813,0.089-1.625,0.186-2.438,0.312
		c-2.102,0.318-4.555,0.291-6.552,0.785c3.034-0.75,6.106-1.338,9.183-1.883c1.748-0.31,3.477-0.819,5.247-1.013
		c0.102-0.011,0.269-0.034,0.456-0.052c-0.527-0.152-1.054-0.306-1.569-0.537c-0.056-0.025-0.112-0.051-0.17-0.075
		c-1.51-0.673-3.163-1.355-4.764-1.734c-1.936-0.457-4.628-0.087-6.273,1.087c-1.786,1.272-3.434,2.797-5.155,4.164
		c-0.867,0.688-1.945,0.996-2.89,1.51C38.303,31.08,39.955,31.432,40.544,31.484z"/>
	<path d="M44.174,20.138c0.359,1.61,1.161,2.365,2.689,2.928c1.286,0.474,2.582,0.202,3.884,0.273
		c-1.882-1.126-3.684-2.713-4.785-4.178c2.297,1.365,4.583,3.181,6.957,4.371c-0.239-0.254-0.458-0.531-0.638-0.806
		c-0.148-0.228-0.278-0.465-0.4-0.706c-0.481-0.967-0.8-2.024-1.426-2.914c-0.888-1.26-2.214-1.687-3.673-1.945
		c-1.25-0.222-2.359-0.404-3.488-1.053C44.054,16.547,44,19.365,44.174,20.138z"/>
	<path d="M61.349,16.244c-0.059-2.414-0.223-4.94,0.16-7.268c0.311,2.082,0.386,4.654,0.269,6.836
		c0.221-0.658,0.572-1.322,0.945-1.755c0.638-0.74,1.278-1.21,1.297-2.257c0.022-1.145-0.675-2.048-1.386-2.885
		c-0.058-0.07-0.112-0.139-0.162-0.208c-0.569-0.799-0.548-1.613-0.746-2.604c-0.063,0.612-0.348,1.475-0.699,2.027
		c-0.616,0.966-1.872,1.8-2.051,3.007c-0.158,1.073,0.643,1.756,1.213,2.536C60.751,14.44,61.074,15.338,61.349,16.244z"/>
	<path d="M123.426,40.58c-5.016,10.449-15.28-0.281-21.316-2.926c-4.748-2.082-10.203,0.422-13.355,4.186
		c0.39,0.137,0.807,0.273,1.319,0.367c2.325,0.43,3.702,0.195,5.699,1.945c-1.004-0.881-2.642-1.338-3.953-1.266
		c0.071-0.004,1.861,2.533,2.021,2.83c0.471,0.871,0.673,1.846,0.857,2.814c0.068,0.359,0.135,0.719,0.21,1.074
		c-0.599-2.785-2.875-5.543-5.429-6.664c-0.194,0.525-0.219,1.064-0.339,1.633c-0.516,2.439-1.271,5.141-1.583,7.588
		c0.094-0.732,1.333-9.502,0.937-9.43c0.017-0.002-0.124-0.1-0.116-0.082c-2.824,2.125-4.787,4.91-7.282,7.402
		c2.146-2.781,4.202-5.332,6.749-7.709c-0.563,0.105-1.161,0.199-1.725,0.34c-2.658,0.672-5.075,2.066-7.392,3.402
		c1.389-0.801,2.233-1.922,3.78-2.594c1.571-0.68,3.074-1.389,4.828-1.344c-1.821-0.836-4.127-0.295-5.905,0.449
		c1.488-0.621,2.838-1.123,4.472-1.258c0.921-0.078,1.551,0.063,2.149,0.258c-3-1.82-7.235-0.285-9.886,1.719
		c-4.476,3.387-1.656,7.545,2.814,8.744c5.166,1.385,13.345,0.832,17.024-3.529c1.785-2.119-0.049-4.609-1.9-5.758
		c-1.493-0.924-3.274-1-5.003-0.691c1.947-2.717,4.819-4.424,8.589-3.209c2.229,0.719,4.207,2.588,6.029,3.986
		c2.117,1.627,4.916,2.76,7.554,3.123c4.624,0.639,9.31-0.49,12.042-4.158c-0.413-0.229-0.806-0.506-1.192-0.775
		C123.882,40.881,123.652,40.725,123.426,40.58z"/>
	<path d="M33.501,51.998c-5.904-1.779-9.73-7.861-4.863-13.363c0.994-1.125,2.239-1.908,3.628-2.451
		c-0.271-0.34-0.537-0.684-0.796-1.031c-1.038,0.393-2.038,0.879-2.97,1.498c-3.39,2.25-5.804,5.557-5.021,9.779
		c0.797,4.307,5.554,6.707,9.616,7.326C33.015,53.186,33.207,52.553,33.501,51.998z"/>
	<path d="M22.556,17.868c0.779,0.615,1.449,1.146,2.548,1.333l0.333,0.055c0.787,0.128,1.685,0.28,2.478,0.629
		c-0.071-0.167-0.141-0.336-0.229-0.5c-0.872-1.618-2.97-1.663-4.254-2.716c0.552,0.235,1.06,0.484,1.635,0.664
		c0.838,0.263,2.043,0.537,2.675,1.177c0.538,0.543,0.799,1.328,1.275,1.926c0.075-1.297,0.854-2.333,1.922-3.049
		c1.064-0.713,2.497-1.432,3.79-1.576c-0.391,0.043-1.187,0.448-1.575,0.618c-0.507,0.223-1.054,0.564-1.508,0.886
		c-0.977,0.696-1.609,1.555-1.849,2.74c-0.002,0.02-0.005,0.038-0.008,0.057c0.555-0.202,1.329-0.41,2.398-0.646
		c0.15-0.033,0.257-0.055,0.299-0.068c1.425-0.41,2.201-1.521,3.021-2.698c0.476-0.682,0.964-1.368,1.58-1.926
		c-0.244,0.079-0.49,0.16-0.75,0.221c-1.508,0.349-3.13-0.277-4.605,0.275c-0.631,0.237-1.305,0.732-1.814,1.174
		c-0.222,0.192-1.589,1.595-1.35,1.908c-0.208-0.275-0.407-0.552-0.637-0.81c-0.97-1.083-2.285-2.208-3.816-2.199
		c-1.316,0.01-2.424,0.738-3.601,1.238c0.17,0.055,0.338,0.12,0.498,0.207C21.614,17.124,22.093,17.503,22.556,17.868z"/>
	<path d="M35.832,34.063c0.299,0.404,0.606,0.801,0.923,1.184c5.361-0.35,11.556,1.334,15.644,2.49
		c0.027,0.01,0.063,0.012,0.092,0.016c0.11-0.367,0.23-0.729,0.346-1.068c0.085-0.246,0.164-0.484,0.236-0.707
		C47.831,34.57,41.505,33.295,35.832,34.063z"/>
	<path d="M43.421,52.215c-1.949-0.904-4.494-2.328-6.737-1.904c-0.746,0.141-1.823,0.377-2.443,0.973
		c-0.148,0.174-0.269,0.346-0.343,0.486c-0.003,0.006-0.005,0.01-0.006,0.014c0.926-0.602,2.186-1.01,3.294-0.912
		c0.7,0.061,1.401,0.209,2.081,0.338c-1.216,0.043-2.553,0.02-3.72,0.408c-0.33,0.109-0.933,0.287-0.65,0.686
		c0.356,0.504,1.495,0.434,2.036,0.516c0.805,0.127,1.659,0.227,2.406,0.572c-1.107-0.154-2.321-0.176-3.44-0.236
		c-0.501-0.025-1.71-0.01-1.896,0.605c-0.273,0.918,1.704,1.404,2.26,1.59c-0.957-0.396-2.728-0.111-3.113-1.352
		c0.077,0.861,1.212,1.463,1.935,1.67c1.763,0.51,3.244,0.367,4.991,0.016c0.686-0.139,1.391-0.16,2.08-0.264
		c1.023-0.154,2.06-0.234,3.089-0.297c1.42-0.086,2.846-0.057,4.267-0.127c0.532-0.027,1.43,0.064,1.912-0.121
		c-0.848-0.023-1.729-0.188-2.565-0.377C46.943,54.063,45.176,53.029,43.421,52.215z"/>
	<path d="M44.866,42.396c-6.249-2.871-10.881-8.027-13.443-14.989c-0.666-1.816-1.388-4.078-1.336-6.047
		c-0.218,0.08-0.432,0.142-0.632,0.168c-0.073,0.01-0.143,0.009-0.214,0.009c-0.06,0.035-0.127,0.063-0.192,0.063
		c-0.114,0-0.223-0.052-0.298-0.147c-0.402-0.126-0.765-0.363-1.129-0.515c0.157,0.714,0.024,1.677,0.087,2.286
		c0.146,1.404,0.418,2.794,0.805,4.152c0.556,1.948,1.362,3.816,2.374,5.57c1.385,2.152,3.067,4.137,4.853,6.084
		c2.364,2.215,5.142,4.068,8.235,5.455c9.288,4.158,19.984,2.658,28.589-2.359c-0.446-0.221-0.889-0.428-1.328-0.629
		C62.852,46.713,52.857,46.438,44.866,42.396z"/>
	<path d="M26.222,15.324c0.283,0.215,0.57,0.424,0.854,0.639c-1.418-2.049-1.822-5.151-1.242-7.463
		c0.067,2.447,0.32,5.112,1.543,7.28c0.146,0.26,0.311,0.51,0.47,0.76c0.007,0.004,0.012,0.009,0.018,0.013
		c-0.024-1.46,0.02-2.921,0.014-4.382c-0.006-1.298,0.155-2.64-0.088-3.925c0.44,2.325,0.384,4.784,0.635,7.142
		c0.029,0.274,0.15,0.62,0.216,0.954c1.562-1.09,1.507-4.077,1.513-5.691c0.002-0.38-0.008-0.759-0.012-1.135
		c0.295,1.709,0.697,4.414-0.254,6.121c0.939-0.792,1.997-1.568,2.652-2.488c0.219-0.307,0.391-0.629,0.5-0.974
		c0.472-1.489,0.095-3.129-0.737-4.405C30.747,5.376,27.735,3.116,27.771,0c-0.04,3.484-2.89,5.771-3.834,8.882
		C23.017,11.92,23.809,13.509,26.222,15.324z"/>
	<path d="M12.201,27.63c-0.593-0.303-1.778-1.237-2.492-0.611c6.091-5.365,13.631,5.208,18.967,7.555
		c0.36-0.25,0.778-0.467,1.126-0.629c-1.398-0.635-2.729-1.525-3.952-2.424c-2.683-1.971-5.174-4.259-8.218-5.678
		c-1.311-0.612-2.767-1.128-4.233-1.072c-1.521,0.059-2.768,0.82-4.012,1.611c-0.083,0.052-0.165,0.104-0.248,0.156
		c0.05-0.264,0.283-0.578,0.37-0.876c0.2-0.681,0.094-1.382,0.009-2.071c-0.076-0.63-0.017-1.179-0.04-1.808
		c-0.487,0.882-1.437,1.26-2.078,2.006c-0.575,0.672-0.825,1.448-0.83,2.328c-0.003,0.816,0.245,1.238,0.651,1.606
		c-0.332-1.121,0.957-2.836,1.408-3.78c-0.555,1.161-1.053,2.695-0.969,4.003c0.019,0.29,3.425,0.328,3.764,0.379
		c-0.739-0.112-2.071,0.414-3.064,0.301c0.223,0.227,0.39,0.456,0.747,0.609c1.497,0.629,2.363-0.104,3.717-0.551
		c0.597-0.197,1.23-0.14,1.829-0.31c-0.311-0.041-0.616-0.087-0.901-0.166C13.234,28.067,12.68,27.875,12.201,27.63z"/>
	<path d="M7.593,32.074c0.474-0.568,0.897-2.178,0.289-2.777c-0.338,2.094-2.278,2.863-3.56,4.221
		c1.046-1.109,3.072-3.221,3.097-4.802c-0.014-0.015-0.029-0.028-0.046-0.04c-1.693-0.052-2.419,0.822-3.639,1.957
		c0.641-0.887,1.786-2.45,3.051-2.396c-0.434-0.253-0.922-0.408-1.432-0.411C3.994,27.814,2.769,29.484,2.3,30.58
		c-0.367,0.867-0.631,1.773-0.99,2.641c-0.323,0.787-0.484,1.695-0.927,2.432c1.188-0.664,2.586-0.721,3.877-1.064
		c1.095-0.291,2.352-0.68,3.319-1.281c0.612-0.381,0.864-0.934,0.971-1.633c0.073-0.479,0.01-0.969-0.149-1.434
		C8.332,30.898,8.007,31.576,7.593,32.074z"/>
	<path d="M136.686,9.641c0.004-0.001,0.005-0.001,0.006-0.003c0.002,0.002,0.002,0.002,0.006,0.003V9.636
		c1.221-0.572,2.396-1.069,3.503-1.479c-0.246-1.194-0.866-2.144-1.552-3.192c-0.549-0.838-1.209-1.605-1.951-2.279V2.676
		c-0.004,0.002-0.004,0.002-0.006,0.004c-0.001-0.001-0.002-0.001-0.005-0.004v0.009c-0.742,0.674-1.402,1.441-1.95,2.279
		c-0.687,1.048-1.308,1.999-1.552,3.192c1.109,0.41,2.28,0.907,3.501,1.479V9.641z"/>
	<path d="M139.681,29.094c-0.964-0.369-1.969-0.659-2.963-0.902c1.847,1.919,3.426,4.119,5.621,5.716
		c2.525,1.844,5.327,3.473,8.399,4.207c2.865,0.688,5.652,0.637,8.521-0.057c2.109-0.51,4.415-1.154,6.324-2.193
		c1.601-0.873,3.347-2.072,4.653-3.352c-0.539,0.172-0.989,0.516-1.511,0.707c-0.953,0.354-2.137,0.66-3.147,0.67
		c-1.254,0.012-2.473-0.076-3.537-0.764c-3.628-2.346-5.734-7.183-10.106-8.34c-2.403-0.636-4.115,1.054-6.32,1.614
		c-2.87,0.728-6.179,0.824-8.915-0.435v-0.005c-0.002,0.001-0.006,0.001-0.008,0.002c-0.001-0.001-0.006-0.001-0.008-0.002v0.005
		c-2.735,1.259-6.043,1.163-8.914,0.435c-2.205-0.56-3.917-2.25-6.319-1.614c-4.374,1.157-6.48,5.995-10.108,8.34
		c-1.064,0.688-2.281,0.775-3.537,0.764c-1.01-0.01-2.193-0.316-3.146-0.67c-0.522-0.191-0.973-0.535-1.511-0.707
		c1.307,1.279,3.053,2.479,4.653,3.352c1.909,1.039,4.217,1.684,6.325,2.193c2.866,0.693,5.653,0.744,8.521,0.057
		c3.071-0.734,5.872-2.363,8.399-4.207c2.194-1.598,3.773-3.797,5.619-5.716c-0.994,0.243-1.999,0.533-2.963,0.902
		c-6.832,2.621-13.042,8.834-21.118,7.127c1.374,0.045,2.574-0.109,3.912-0.432c7.003-1.688,13.105-8.182,20.195-9.649
		c7.09,1.467,13.194,7.961,20.195,9.649c1.338,0.322,2.539,0.477,3.912,0.432C152.723,37.928,146.513,31.715,139.681,29.094z"/>
	<path d="M145.223,38.115c0.001,0.004,0.003,0.004,0.006,0.006c0.034-0.002,0.034-0.006,0-0.01
		C145.226,38.113,145.224,38.115,145.223,38.115z"/>
	<path d="M137.598,32.117c-0.278,3.449-0.609,6.896-0.827,10.336c-0.023-0.111-0.046-0.227-0.068-0.34v-0.105
		c-0.003,0.016-0.009,0.035-0.011,0.053c-0.002-0.018-0.007-0.037-0.01-0.053v0.105c-0.021,0.113-0.043,0.229-0.066,0.34
		c-0.22-3.439-0.552-6.887-0.829-10.336c-2.114,2.543-4.707,4.379-7.624,5.998c2.981,1.828,5.548,4.084,8.52,5.887v0.012
		c0.004-0.002,0.008-0.004,0.01-0.006c0.005,0.002,0.008,0.004,0.011,0.006v-0.012c2.972-1.803,5.539-4.059,8.521-5.887
		C142.305,36.496,139.711,34.66,137.598,32.117z"/>
	<path d="M191.818,35.5c1.045-0.094,2.079-0.258,3.104-0.486c2.563-0.572,5.281-1.641,7.206-3.48
		c1.595-1.525,2.517-3.492,2.673-5.675c-0.453-0.031-0.892,0.033-1.277,0.133c-0.095,0.026-0.178,0.058-0.271,0.085
		c-0.034,0.267-0.079,0.533-0.154,0.801c-1.528,5.609-7.05,7.516-12.33,7.795C191.142,34.957,191.488,35.232,191.818,35.5z"/>
	<path d="M182.703,17.195c0.305,1.004,0.603,2.063,1.726,2.337c0.559,0.136,1.058,0.115,1.62,0.047
		c-0.665,0.871-1.953,1.864-1.383,3.143c0.321,0.714,1.252,1.269,1.748,1.882c0.528,0.656,0.755,1.356,0.829,2.187
		c-0.147-1.019,0.253-2.479,0.725-3.376c0.475-0.901,1.095-1.719,0.778-2.792c-0.162-0.548-0.595-0.806-1.012-1.144
		c2.686-1.821,6.068-2.792,9.271-1.893c0.868,0.245,1.704,0.643,2.437,1.175c0.968,0.704,1.855,1.614,2.547,2.644
		c0.415-0.136,0.844-0.244,1.281-0.319c-0.289-0.457-0.626-1.021-0.702-1.122c-0.407-0.528-0.865-1.017-1.389-1.435
		c-1.856-1.472-4.356-1.946-6.676-1.964c-1.224-0.01-2.45,0.13-3.635,0.453c-1.198,0.327-2.403,0.652-3.426,1.37
		c-0.197-1.329-0.343-2.273-1.778-2.664c-1.123-0.308-2.317-0.152-3.438-0.452c-0.607-0.163-0.991-0.385-1.497-0.746
		C181.583,15.402,182.341,16.008,182.703,17.195z M186.676,19.668c0.951,1.083,0.092,3.473,0.378,4.823
		c-0.273-1.293-0.627-2.757-0.57-4.109C186.497,20.109,186.519,19.889,186.676,19.668z M186.458,18.567
		c-0.45,0.052-0.83-0.27-1.153-0.566c-0.684-0.625-1.127-1.288-1.906-1.844C184.255,16.586,186.544,17.376,186.458,18.567z"/>
	<path d="M160.475,16.66c1.662,1.052,2.058,3.087,1.352,4.84c-0.611,1.521-1.913,3.146-3.357,3.943
		c-0.107,0.057-0.159,0.124-0.179,0.194c-0.043,0.005-0.082,0.02-0.121,0.032c0.082,0.11,0.166,0.222,0.243,0.332
		c0.174,0.243,0.339,0.474,0.527,0.681c0.411,0.449,0.827,0.896,1.245,1.343c2.97-1.841,7.233-9.882,3.535-11.813
		c0.109,0.056,0.216,0.119,0.318,0.18c4.446,2.748-0.115,9.812-3.83,11.658c0.036,0.039,0.072,0.078,0.109,0.117
		c0.347,0.372,0.689,0.746,1.032,1.12c4.974-1.498,9.897-1.099,14.455,1.771c1.96,1.232,3.808,2.607,5.702,3.934
		c2.938,2.063,6.18,4.229,9.793,4.857c1.834,0.32,3.737,0.363,5.577,0.059c3.116-0.512,6.03-1.865,8.475-3.855
		c1.237-1.006,2.432-2.098,3.456-3.324c0.585-0.703,0.729-1.615,1.849-1.611c0.733,0.004,1.385,0.504,1.757,1.104
		c0.803,1.289,0.604,3.068,0.032,4.4c-0.321,0.742-0.853,1.482-1.581,1.873c-0.648,0.35-1.361,0.539-2.091,0.627
		c0.221-0.025,0.813,0.271,1.088,0.307c0.347,0.043,0.708,0.031,1.057,0.066c0.692,0.072,1.234,0.086,1.943-0.094
		c1.369-0.348,2.661-1.117,3.426-2.33c1.958-3.096,0.969-8.212-2.954-9.084c-0.699-0.155-1.423-0.191-2.123-0.043
		c0.12-1.452,0.026-2.917-1.005-4.03c-1.043-1.126-2.541-1.823-4.027-2.122c-0.08-0.016-0.156-0.024-0.232-0.038
		c-1.854-0.171-3.563,0.153-5.079,0.962c-1.195,0.791-2.15,1.98-2.518,3.362c-0.258,0.974-0.274,2.156-0.173,3.172
		c1.089-2.118,2.688-3.355,5.154-4.001c1.66-0.436,3.09-0.012,4.079,1.173c0.663,0.654,1.108,1.522,1.044,2.321
		c-0.211,2.689-3.549,5.515-5.562,7.019c-2.499,1.867-5.632,2.762-8.747,2.559c-7.005-0.457-10.215-5.205-15.551-8.707
		c-3.701-2.431-7.854-4.362-12.122-4.775c2.63-2.504,2.914-6.352-0.123-9.292c-2.405-2.331-6.295-2.355-9.105-0.668
		c-0.39,0.233-0.737,0.51-1.063,0.813c-0.253,0.239-0.493,0.491-0.729,0.754C157.107,15.969,158.933,15.686,160.475,16.66z
		 M206.374,23.741c-1.5-0.393-3.044-0.517-4.508,0.118c0.635-0.562,1.266-0.747,2.092-0.858c3.588-0.481,7.128,1.97,6.582,5.904
		c0.906-0.009,1.476,0.193,2.305,0.605c1.114,0.555,1.956,1.463,2.367,2.646c0.63,1.82,0.263,4.58-1.497,5.713
		c0.833-0.783,1.205-1.949,1.284-3.068c0.105-1.537,0.118-2.666-1.07-3.703c-1.287-1.125-2.292-1.497-3.939-1.552
		c0.123-0.885,0.135-1.731-0.11-2.604C209.366,25.113,208.102,24.194,206.374,23.741z"/>
	<path d="M175.671,23.083c1.257,0.306,2.514,0.695,3.793,0.949c0.901,0.177,2.334,0.583,3.401,0.322
		c0.556-0.342,1.256-0.777,1.022-1.29c0.05,0.104-1.739,0.19-1.856,0.185c-0.614-0.034-1.32-0.073-1.885-0.334
		c1.111-0.024,3.296,0.444,3.522-1.104c0.136-0.914,0.105-1.138-0.919-0.987c-0.911,0.133-1.783,0.505-2.712,0.5
		c0.706-0.233,1.399-0.506,2.11-0.726c0.461-0.144,1.07-0.042,1.479-0.294c0.005-0.017,0.008-0.032,0.005-0.049
		c-0.035-0.325-0.881-0.743-1.159-0.862c-0.536-0.229-1.033-0.207-1.567,0.027c-0.609,0.263-0.926,0.835-1.518,1.087
		c-0.577,0.245-1.295,0.298-1.917,0.283c0.786-0.151,1.646-0.544,2.303-1.006c0.388-0.272,0.626-0.732,1.089-0.884
		c0.46-0.151,0.908-0.027,1.38-0.033c-0.133-0.784-1.189-1.002-2.051-1.099c-0.64,0.052-1.27,0.302-1.72,0.752
		c-0.435,0.429-0.762,0.95-1.223,1.375c-0.516,0.473-0.951,1.051-1.485,1.486c-1.045,0.845-2.584,1.576-3.922,1.743
		c0.293-0.035,0.599-0.074,0.909-0.108C173.726,22.912,174.757,22.86,175.671,23.083z"/>
	<path d="M212.368,21.879c0.045,0.721,0.276,2.125,0.262,3.36c0.141-0.3,0.283-0.602,0.416-0.929
		c1.529-3.731,4.166-6.806,5.762-10.333c-0.658,3.662-3.69,9.198-5.906,12.634c1.26-0.965,2.698-1.63,4.146-2.307
		c2.224-1.041,4.191-2.462,4.724-5.028c0.921-4.452-1.48-8.309-1.44-12.651c-0.024,2.588-4.28,5.207-5.76,6.985
		c-0.755,0.907-1.275,1.815-1.624,2.741C212.282,18.119,212.249,20.018,212.368,21.879z"/>
	<path d="M202.455,15.302c0.21,1.294,0.747,2.71,1.716,3.619c1.174,1.103,2.828,1.339,4.144,2.214
		c0.923,0.616,1.704,1.381,2.375,2.239c-2.005-3.709-3.454-7.755-6.051-11.101c1.45,1.869,2.943,3.809,3.971,5.948
		c0.537,1.121,1.242,2.106,1.821,3.2c0.365,0.69,0.87,1.51,1.215,2.334c-0.357-1.869-0.759-3.676-0.813-5.612
		c-0.057-2.011-0.965-4.253-2.439-5.588c-1.935-1.749-5.026-1.837-6.809-3.732c-0.139-0.146-0.268-0.304-0.386-0.479
		c0.622,0.908,0.671,2.706,0.828,3.771C202.186,13.174,202.283,14.25,202.455,15.302z"/>
	<path d="M221.274,24.597c-1.604,0.378-3.255,1.061-4.766,1.734c-0.058,0.024-0.112,0.05-0.17,0.075
		c-0.514,0.23-1.042,0.384-1.568,0.537c0.188,0.018,0.354,0.041,0.455,0.052c1.771,0.194,3.499,0.703,5.248,1.013
		c3.076,0.545,6.148,1.133,9.183,1.883c-1.997-0.494-4.451-0.467-6.553-0.785c-0.813-0.126-1.624-0.223-2.434-0.312
		c-1.333-0.146-2.668-0.262-4.005-0.409c-0.128-0.015-0.389-0.038-0.707-0.077c0.773,0.539,1.465,1.216,2.135,1.878
		c0.979,0.969,1.801,2.229,3.05,2.863c1.236,0.627,2.652,0.684,4.005,0.516c1.847-0.23,3.563-0.945,5.317-1.52
		c0.788-0.26,1.551-0.484,2.374-0.561c0.589-0.053,2.241-0.404,2.755-0.127c-0.947-0.514-2.023-0.822-2.891-1.51
		c-1.724-1.367-3.37-2.892-5.155-4.164C225.901,24.509,223.21,24.14,221.274,24.597z"/>
	<path d="M221.104,22.727c-0.182,0.274-0.401,0.552-0.641,0.806c2.374-1.19,4.66-3.006,6.959-4.371
		c-1.104,1.464-2.905,3.051-4.787,4.178c1.303-0.071,2.599,0.2,3.884-0.273c1.529-0.563,2.33-1.318,2.69-2.928
		c0.173-0.773,0.119-3.59,0.881-4.028c-1.131,0.649-2.24,0.832-3.49,1.053c-1.458,0.258-2.784,0.685-3.672,1.945
		c-0.627,0.889-0.944,1.946-1.427,2.914C221.38,22.262,221.252,22.499,221.104,22.727z"/>
	<path d="M211.605,15.812c-0.117-2.182-0.041-4.754,0.271-6.836c0.383,2.328,0.216,4.854,0.158,7.268
		c0.273-0.906,0.597-1.804,1.159-2.573c0.57-0.78,1.371-1.463,1.213-2.536c-0.179-1.207-1.434-2.041-2.05-3.007
		c-0.354-0.552-0.636-1.415-0.699-2.027c-0.198,0.992-0.178,1.806-0.745,2.604c-0.049,0.069-0.104,0.139-0.164,0.208
		c-0.711,0.837-1.407,1.741-1.385,2.885c0.019,1.046,0.658,1.517,1.296,2.257C211.033,14.49,211.388,15.154,211.605,15.812z"/>
	<path d="M195.218,43.316c-2.651-2.004-6.886-3.539-9.888-1.719c0.599-0.195,1.229-0.336,2.149-0.258
		c1.635,0.135,2.984,0.637,4.475,1.258c-1.781-0.744-4.086-1.285-5.907-0.449c1.754-0.045,3.258,0.664,4.827,1.344
		c1.547,0.672,2.392,1.793,3.78,2.594c-2.315-1.336-4.733-2.73-7.391-3.402c-0.563-0.141-1.162-0.234-1.725-0.34
		c2.549,2.377,4.603,4.928,6.75,7.709c-2.495-2.492-4.46-5.277-7.284-7.402c0.009-0.018-0.13,0.08-0.114,0.082
		c-0.398-0.072,0.844,8.697,0.936,9.43c-0.312-2.447-1.067-5.148-1.582-7.588c-0.121-0.568-0.143-1.107-0.34-1.633
		c-2.554,1.121-4.83,3.879-5.429,6.664c0.074-0.355,0.143-0.715,0.211-1.074c0.185-0.969,0.386-1.943,0.855-2.814
		c0.161-0.297,1.95-2.834,2.022-2.83c-1.31-0.072-2.949,0.385-3.954,1.266c1.997-1.75,3.375-1.516,5.699-1.945
		c0.516-0.094,0.93-0.23,1.319-0.367c-3.151-3.764-8.605-6.268-13.353-4.186c-6.039,2.645-16.303,13.375-21.318,2.926
		c-0.228,0.145-0.457,0.301-0.698,0.469c-0.387,0.27-0.779,0.547-1.19,0.775c2.729,3.668,7.416,4.797,12.04,4.158
		c2.637-0.363,5.436-1.496,7.554-3.123c1.821-1.398,3.8-3.268,6.028-3.986c3.771-1.215,6.644,0.492,8.59,3.209
		c-1.729-0.309-3.51-0.232-5.003,0.691c-1.853,1.148-3.686,3.639-1.901,5.758c3.681,4.361,11.859,4.914,17.025,3.529
		C196.874,50.861,199.691,46.703,195.218,43.316z"/>
	<path d="M244.883,36.65c-0.932-0.619-1.932-1.105-2.968-1.498c-0.258,0.348-0.525,0.691-0.797,1.031
		c1.391,0.543,2.633,1.326,3.627,2.451c4.869,5.502,1.041,11.584-4.863,13.363c0.295,0.555,0.487,1.188,0.406,1.758
		c4.062-0.619,8.818-3.02,9.615-7.326C250.687,42.207,248.272,38.9,244.883,36.65z"/>
	<path d="M237.877,16.699c0.823,1.178,1.596,2.288,3.021,2.698c0.042,0.013,0.15,0.035,0.3,0.068
		c1.069,0.235,1.843,0.444,2.399,0.646c-0.005-0.02-0.005-0.038-0.01-0.057c-0.237-1.185-0.872-2.044-1.849-2.74
		c-0.45-0.322-0.999-0.663-1.508-0.886c-0.389-0.17-1.185-0.575-1.573-0.618c1.292,0.145,2.724,0.863,3.788,1.576
		c1.068,0.716,1.847,1.752,1.926,3.049c0.474-0.598,0.735-1.383,1.272-1.926c0.632-0.64,1.838-0.914,2.677-1.177
		c0.575-0.18,1.083-0.429,1.633-0.664c-1.284,1.053-3.383,1.098-4.255,2.716c-0.089,0.164-0.156,0.333-0.227,0.5
		c0.792-0.349,1.689-0.501,2.476-0.629l0.334-0.055c1.097-0.186,1.767-0.717,2.549-1.333c0.46-0.365,0.939-0.744,1.542-1.08
		c0.16-0.087,0.327-0.152,0.499-0.207c-1.177-0.5-2.284-1.228-3.604-1.238c-1.53-0.009-2.846,1.116-3.814,2.199
		c-0.229,0.257-0.43,0.535-0.638,0.81c0.239-0.313-1.124-1.716-1.349-1.908c-0.51-0.442-1.185-0.938-1.814-1.174
		c-1.476-0.552-3.099,0.074-4.604-0.275c-0.263-0.061-0.508-0.142-0.752-0.221C236.913,15.331,237.402,16.017,237.877,16.699z"/>
	<path d="M220.313,35.977c0.069,0.223,0.15,0.461,0.233,0.707c0.117,0.34,0.236,0.701,0.347,1.068
		c0.029-0.004,0.065-0.006,0.091-0.016c4.088-1.156,10.282-2.84,15.644-2.49c0.317-0.383,0.626-0.779,0.926-1.184
		C231.878,33.295,225.553,34.57,220.313,35.977z"/>
	<path d="M237.121,55.35c0.556-0.186,2.534-0.672,2.259-1.59c-0.186-0.615-1.391-0.631-1.896-0.605
		c-1.118,0.061-2.331,0.082-3.44,0.236c0.75-0.346,1.604-0.445,2.406-0.572c0.544-0.082,1.68-0.012,2.036-0.516
		c0.283-0.398-0.318-0.576-0.648-0.686c-1.169-0.389-2.504-0.365-3.721-0.408c0.68-0.129,1.38-0.277,2.081-0.338
		c1.111-0.098,2.369,0.311,3.295,0.912c-0.002-0.004-0.005-0.008-0.005-0.014c-0.075-0.141-0.197-0.313-0.344-0.486
		c-0.622-0.596-1.698-0.832-2.441-0.973c-2.247-0.424-4.791,1-6.739,1.904c-1.757,0.814-3.524,1.848-5.438,2.283
		c-0.836,0.189-1.718,0.354-2.563,0.377c0.48,0.186,1.377,0.094,1.909,0.121c1.421,0.07,2.849,0.041,4.268,0.127
		c1.029,0.063,2.065,0.143,3.089,0.297c0.691,0.104,1.394,0.125,2.079,0.264c1.747,0.352,3.231,0.494,4.993-0.016
		c0.723-0.207,1.856-0.809,1.932-1.67C239.848,55.238,238.078,54.953,237.121,55.35z"/>
	<path d="M237.645,39.029c1.783-1.947,3.466-3.932,4.851-6.084c1.014-1.754,1.818-3.622,2.375-5.57
		c0.389-1.358,0.658-2.748,0.805-4.152c0.063-0.609-0.07-1.572,0.089-2.286c-0.364,0.152-0.729,0.389-1.131,0.515
		c-0.075,0.095-0.185,0.147-0.297,0.147c-0.067,0-0.135-0.027-0.194-0.063c-0.068,0-0.141,0.001-0.212-0.009
		c-0.2-0.026-0.416-0.089-0.635-0.168c0.052,1.97-0.667,4.231-1.335,6.047c-2.563,6.962-7.194,12.118-13.443,14.989
		c-7.988,4.041-17.983,4.316-26.37-0.9c-0.437,0.201-0.882,0.408-1.327,0.629c8.604,5.018,19.304,6.518,28.588,2.359
		C232.501,43.098,235.278,41.244,237.645,39.029z"/>
	<path d="M240.843,13.148c0.655,0.919,1.716,1.696,2.655,2.488c-0.953-1.707-0.552-4.412-0.255-6.121
		c-0.003,0.376-0.014,0.755-0.014,1.135c0.009,1.614-0.049,4.602,1.516,5.691c0.063-0.334,0.185-0.68,0.213-0.954
		c0.251-2.358,0.196-4.817,0.636-7.142c-0.242,1.285-0.083,2.627-0.089,3.925c-0.004,1.461,0.04,2.921,0.014,4.382
		c0.008-0.004,0.014-0.009,0.018-0.013c0.162-0.25,0.323-0.5,0.472-0.76c1.225-2.167,1.477-4.833,1.544-7.28
		c0.578,2.312,0.174,5.414-1.244,7.463c0.283-0.215,0.57-0.424,0.854-0.639c2.413-1.815,3.206-3.403,2.284-6.441
		c-0.943-3.112-3.792-5.398-3.833-8.882c0.037,3.116-2.974,5.376-4.532,7.769c-0.828,1.276-1.209,2.916-0.737,4.405
		C240.452,12.519,240.624,12.841,240.843,13.148z"/>
	<path d="M265.025,28.625c-0.995,0.113-2.326-0.413-3.065-0.301c0.339-0.051,3.745-0.089,3.763-0.379
		c0.087-1.308-0.414-2.842-0.969-4.003c0.451,0.944,1.742,2.66,1.412,3.78c0.406-0.368,0.652-0.79,0.648-1.606
		c-0.006-0.88-0.254-1.656-0.831-2.328c-0.641-0.746-1.591-1.124-2.078-2.006c-0.023,0.629,0.036,1.178-0.039,1.808
		c-0.083,0.689-0.19,1.391,0.008,2.071c0.089,0.298,0.32,0.612,0.372,0.876c-0.083-0.052-0.166-0.104-0.249-0.156
		c-1.242-0.791-2.492-1.552-4.013-1.611c-1.466-0.057-2.921,0.459-4.233,1.072c-3.044,1.419-5.535,3.707-8.218,5.678
		c-1.223,0.898-2.552,1.789-3.949,2.424c0.346,0.162,0.764,0.379,1.124,0.629c5.336-2.348,12.876-12.92,18.966-7.555
		c-0.714-0.626-1.898,0.308-2.489,0.611c-0.479,0.246-1.036,0.437-1.549,0.578c-0.289,0.078-0.594,0.125-0.903,0.166
		c0.599,0.17,1.23,0.113,1.827,0.31c1.354,0.448,2.219,1.18,3.719,0.551C264.635,29.081,264.804,28.852,265.025,28.625z"/>
	<path d="M272.073,33.221c-0.357-0.867-0.62-1.773-0.989-2.641c-0.466-1.096-1.695-2.766-3.052-2.754
		c-0.513,0.003-1,0.158-1.435,0.411c1.265-0.054,2.41,1.509,3.052,2.396c-1.219-1.135-1.945-2.008-3.64-1.957
		c-0.014,0.012-0.032,0.025-0.045,0.04c0.023,1.581,2.05,3.692,3.096,4.802c-1.281-1.357-3.221-2.127-3.56-4.221
		c-0.608,0.6-0.185,2.209,0.289,2.777c-0.41-0.498-0.739-1.176-0.807-1.834c-0.159,0.465-0.224,0.955-0.15,1.434
		c0.106,0.699,0.358,1.252,0.973,1.633c0.967,0.602,2.224,0.99,3.317,1.281c1.294,0.344,2.69,0.4,3.877,1.064
		C272.558,34.916,272.398,34.008,272.073,33.221z"/>
</g>
</svg>
