<?xml version="1.0" encoding="utf-8"?>
<!-- Generator: Adobe Illustrator 16.0.0, SVG Export Plug-In . SVG Version: 6.00 Build 0)  -->
<!DOCTYPE svg PUBLIC "-//W3C//DTD SVG 1.1//EN" "http://www.w3.org/Graphics/SVG/1.1/DTD/svg11.dtd">
<svg version="1.1" id="Calque_1" xmlns="http://www.w3.org/2000/svg" xmlns:xlink="http://www.w3.org/1999/xlink" x="0px" y="0px"
	 width="266px" height="56px" viewBox="0 0 266 56" enable-background="new 0 0 266 56" xml:space="preserve">
<g id="Calque_2" display="none">
	<rect display="inline" fill="#FF7503" width="266" height="56"/>
</g>
<g>
	<path display="none" d="M111.175,29.984c-0.001,0-0.003,0-0.005,0c0.001,0,0.002,0.002,0.003,0.003
		C111.186,29.996,111.186,29.996,111.175,29.984z"/>
	<path d="M132.599,26.473c-0.886-3.832-3.016-7.233-2.985-11.312c0.01-1.229,0.156-2.408,0.756-3.489
		c0.341-0.615,1.433-2.175,2.167-2.335c-0.476,0.104-1.008,0.347-1.439,0.576c-4.018,2.137-5.332,6.978-3.867,11.148
		c1.439,4.093,5.564,8.668,4.208,12.977c0.375-3.983-2.08-8.284-6.405-8.47c-4.186-0.179-8.302,4.155-5.986,7.774
		c0.19,0.36,0.452,0.677,0.765,0.931c0.035,0.035,0.067,0.07,0.103,0.105c0.046,0.043,0.107,0.074,0.179,0.096
		c0.46,0.291,1.006,0.465,1.592,0.465c0.813,0,1.814-0.43,2.304-1.078c0.862-1.14,0.637-2.947-0.63-3.67
		c-0.944-0.537-2.415-0.41-3.089,0.521c-0.62,0.855-0.691,2.134,0.125,2.911c-0.381-0.18-0.595-0.297-0.863-0.649
		c-1.173-1.539-0.233-4.16,1.246-5.168c1.616-1.099,2.965-1.281,4.876-0.886c1.34,0.277,2.21,1.294,2.852,2.434
		c1.387,2.458,1.433,5.385,0.136,7.906c-0.526,1.024-1.441,2.159-2.503,2.625c-0.89,0.391-2.347,0.603-3.292,0.359
		c0.629-0.124,1.239-0.203,1.792-0.558c1.102-0.707,1.954-2.059,2.224-3.327c0.322-1.52-0.052-3.051-0.679-4.438
		c0.162,0.961-0.111,2.138-0.514,3.014c-1.223,2.662-4.43,4.009-7.223,3.618c-1.557-0.216-3.039-0.944-4.452-1.591
		c-1.395-0.641-2.654-1.558-3.803-2.566c-1.174-1.031-2.06-2.497-2.081-4.086c-0.021-1.484,0.881-3.056,2.578-2.704
		c0.724,0.15,1.541,0.777,1.869,1.45c0.353,0.727,0.351,1.613-0.207,2.249c-0.485,0.556-1.47,0.673-2.014,0.113
		c-0.707-0.727-0.028-1.544,0.832-1.431c-0.953-0.574-2.008,0.206-1.578,1.313c0.342,0.874,1.566,1.255,2.418,1.014
		c0.812-0.228,1.433-1.259,1.382-2.061c-0.062-0.972-0.643-1.962-1.409-2.548c-1.453-1.117-3.603-0.553-4.391,1.03
		c-0.5,1.006-0.542,2.476-0.149,3.74c-0.549-0.403-1.102-0.798-1.658-1.175c-1.689-1.868-2.45-4.583-0.283-6.545
		c1.998-1.81,5.729,0.484,7.715,1.177c3.292,1.147,7.525,0.613,9.083-2.919c1.035-2.343-0.52-5.613-3.261-5.5
		c-1.605,0.064-3.164,0.866-3.685,2.156c-0.153,0.315-0.244,0.661-0.244,1.034c0,1.319,1.071,2.389,2.391,2.389
		c1.529,0,2.807-1.597,2.085-3.051c-0.38-0.77-1.353-1.11-2.154-0.989c-0.375,0.058-0.818,0.193-1.096,0.461
		c-0.385,0.371-0.699,0.962-0.659,1.512c-0.236-0.554,0.042-1.208,0.389-1.646c0.329-0.417,0.82-0.687,1.309-0.878
		c0.95-0.374,2.015-0.403,2.928,0.093c1.368,0.744,1.707,2.489,1.31,3.88c-0.455,1.601-1.93,2.659-3.436,3.184
		c-1.875,0.654-3.624,0.051-5.362-0.684c0.175,0.074,0.823-0.354,0.959-0.483c0.238-0.223,0.382-0.563,0.482-0.867
		c0.21-0.648,0.206-1.435-0.241-1.99c0.063,2.98-4.889,0.921-6.539,1.074c-0.83,0.079-1.794,0.376-2.502,0.821
		c-2.292,1.448-3.016,3.941-1.93,6.219c-4.249-1.913-8.498-1.574-13.3-0.228c-1.278,0.357-2.525,0.793-3.75,1.276
		c-2.674,0.826-5.824,1.377-6.569-1.39c-0.279-1.039,0.486-2.312,1.404-2.781c0.457-0.234,1.2-0.285,1.681-0.125
		c1.819,0.604,0.083,3.016-1.085,1.685c-0.163-0.185-0.185-0.782,0.129-0.884c-0.723,0.236-0.634,0.962-0.179,1.433
		c0.831,0.858,2.426,0.147,2.531-0.968c0.194-2.064-2.372-2.178-3.651-1.347c-1.912,1.244-2.474,3.547-0.417,4.953
		c0.811,0.554,1.815,0.688,2.885,0.603c-1.643,0.56-3.914,1.639-5.686,1.317c-1.387-0.251-1.873-1.572-1.869-2.834
		c0.002-0.645,0.189-1.275,0.583-1.792c0.239-0.315,1.17-1.194,1.63-1.07c-1.76-0.473-4.722,0.617-5.249,2.494
		c-0.428-1.056-1.415-1.686-2.53-1.19c1.569,0.525,1.306,2.435,1.258,3.755c-0.038,1.016,0.244,2.321,1.172,2.93
		c1.095,0.717,2.106,0.754,3.39,0.506c0.263-0.052,0.514-0.133,0.765-0.203c-2.357,1.084-4.405,2.929-6.902,3.757
		c-2.254,0.749-4.768,1.369-6.893,0.236c-2.432-1.294-2.602-3.817-1.456-5.92c0.307-0.561,1.115-2.019,0.413-2.61
		c-1.852-1.56-3.397,1.473-3.611,2.94c-0.224,1.537,0.149,3.209,0.951,4.534c1.155,1.908,3.558,2.454,5.826,2.404
		c-0.048,0.014-0.099,0.021-0.146,0.031c-3.48,0.514-6.205-0.975-7.28-4.85c-0.811-2.921-0.083-5.969,2.176-8.016
		c2.022-1.832,5.767-1.832,7.863-0.062c0.697,0.586,1.181,1.485,1.431,2.351c0.239,0.826,0.295,1.603-0.239,2.354
		c0.25-0.351,0.004-1.177-0.2-1.512c-0.31-0.514-0.961-1.037-1.562-1.144c-1.112-0.196-2.394,0.353-2.983,1.326
		c-0.782,1.29-0.348,2.872,0.835,3.739c1.9,1.396,4.516,0.199,4.961-2.057c0.202-1.024,0.083-2.132-0.271-3.107
		c-1.292-3.557-5.367-4.846-8.752-3.662c-0.548,0.193-1.401,0.564-1.831,0.964c-0.062-1.17-1.336-1.955-2.4-2.015
		c-1.063-0.063-2.945,0.845-2.139,2.217c-0.215-0.367,0.53-0.87,0.81-0.863c0.479,0.013,0.692,0.466,0.799,0.868
		c0.211,0.793,0.104,1.718-0.051,2.516c-0.13,0.665-0.291,1.319-0.372,1.989c-0.196,1.644-0.215,3.539,0.23,5.138
		c0.166,0.599,0.376,1.129,0.619,1.603c-0.874-0.391-1.8-0.587-2.888-0.286c-0.811,0.223-1.454,0.947-1.978,1.55
		c-1.078,1.239-2.333,2.983-4.04,3.352c-1.207,0.262-2.811-0.12-2.682-1.629c-0.375,1.946,0.781,2.816,2.566,2.918
		c2.162,0.125,4.18-0.914,6.025-1.929c2.624-1.443,5.035-0.751,7.788-0.712c3.903,0.474,8.863-1.692,12.001-3.326
		c3.572-1.86,6.866-4.205,10.485-5.976c0.674-0.328,1.319-0.586,1.997-0.883c-2.272,0.988-3.219,5.417-6.223,5.034
		c-0.287-0.036-0.605-0.193-0.656-0.484c0.062,1.051,1.211,1.487,2.143,1.481c1.439-0.006,2.248-0.803,2.916-2.007
		c-1.06,1.908,0.569,4.155,2.583,4.022c2.372-0.156,4.023-2.045,4.693-4.157c-0.121,0.381-0.335,0.719-0.63,0.987
		c-1.58,1.435-3.752-0.223-3.208-2.143c0.49-1.736,2.461-2.926,3.93-3.711c2.552-1.364,5.156-1.813,8.019-1.377
		c2.289,0.348,4.365,1.646,6.247,2.938c-2.062-0.734-4.178-1.293-6.372-1.48c-1.373-0.12-2.883-0.029-4.162,0.52
		c-0.556,0.236-1.212,0.574-1.341,1.212c-0.283,1.409,1.058,1.686,2.182,1.556c1.659-0.188,3.214-0.847,4.881-1.07
		c2.139-0.288,4.301,0.005,6.334,0.677c-0.664-0.078-1.343-0.113-2.045-0.104c-5.329,0.063-9.849,1.675-13.593,5.464
		c-2.431,2.459-4.904,4.318-8.182,5.538c-2.412,0.897-6.815,1.744-8.399-1.038c-0.751-1.322-0.052-3.046,0.875-4.07
		c1.454-1.608,3.724,0.566,2.816,2.237c-0.22,0.406-0.687,0.647-1.142,0.693c-0.615,0.061-0.939-0.26-0.857-0.873
		c-0.411,0.584,0.321,1.363,0.852,1.562c0.649,0.239,1.372,0.075,1.899-0.331c2.2-1.691,0.261-4.698-2.112-4.597
		c-3.466,0.15-6.33,4.975-2.885,7.218c2.217,1.443,5.613,0.731,7.97,0.135c3.424-0.866,6.696-2.66,9.283-5.052
		c1.569-1.451,2.903-3.067,4.688-4.275c1.192-0.811,2.698-1.34,4.292-1.636c-2.094,0.867-4.022,1.832-5.569,3.666
		c-0.992,1.175-2.156,2.349-2.716,3.809c-0.243,0.633-0.472,1.462-0.174,2.116c0.678,1.479,2.02-0.092,2.502-0.813
		c0.757-1.13,1.176-2.457,1.735-3.686c0.685-1.509,1.554-2.808,3.024-3.574c-0.806,0.742-1.422,1.657-1.742,2.75
		c-1.609,5.499,4.671,6.628,8.461,4.932c1.986-0.892,3.477-2.464,2.691-4.76c-0.722-2.115-3.353-3.026-5.347-2.374
		c-0.937,0.307-1.857,0.896-2.219,1.854c-0.603,1.597,0.456,2.962,2.058,3.09c0.593,0.048,1.354-0.038,1.703-0.574
		c0.347-0.534,0.425-1.593-0.254-1.901c0.322,0.452,0.305,0.953-0.12,1.336c-0.752,0.679-1.98,0.187-2.25-0.73
		c-0.25-0.847,0.296-1.799,1.072-2.165c0.792-0.374,1.823,0.041,2.466,0.537c1.166,0.9,1.566,2.458,1.032,3.792
		c-0.678,1.7-3.058,2.091-4.632,1.854c-2.756-0.414-3.397-3.314-2.725-5.606c0.872-2.982,4.18-3.723,6.907-3.617
		c0.925,0.037,1.94,0.249,2.76,0.699c0.688,0.378,1.442,0.733,2.089,1.176c3.532,2.419,7.792,5.104,12.256,4.869
		c1.825-0.097,3.508-0.547,5.299-0.866c1.071-0.189,2.644-0.02,3.319,0.985c0.358,0.533,0.284,1.195,0.143,1.786
		c0.795-0.827,0.45-2.625-0.299-3.363c-0.824-0.813-2.402-0.93-3.419-0.428c0.402-0.467,0.97-0.749,1.406-1.178
		c0.471-0.461,0.929-0.923,1.333-1.447c0.756-0.982,1.351-2.099,1.666-3.3c0.367-1.396,0.475-2.961,0.396-4.401
		C132.887,28.469,132.822,27.445,132.599,26.473z"/>
	<path d="M154.838,29.987c0-0.001,0.002-0.003,0.004-0.003c-0.002,0-0.004,0-0.007,0C154.825,29.996,154.825,29.996,154.838,29.987z
		"/>
	<path d="M221.584,42.027c0.127,1.509-1.475,1.89-2.682,1.628c-1.707-0.368-2.962-2.111-4.04-3.351
		c-0.524-0.603-1.167-1.328-1.978-1.551c-1.088-0.301-2.013-0.104-2.888,0.287c0.242-0.475,0.453-1.004,0.619-1.603
		c0.443-1.598,0.426-3.494,0.23-5.137c-0.08-0.673-0.242-1.326-0.371-1.991c-0.154-0.797-0.264-1.722-0.053-2.515
		c0.107-0.402,0.32-0.855,0.8-0.868c0.278-0.008,1.025,0.496,0.81,0.862c0.806-1.371-1.076-2.278-2.141-2.216
		c-1.063,0.061-2.338,0.844-2.398,2.015c-0.43-0.399-1.283-0.771-1.833-0.964c-3.382-1.183-7.459,0.104-8.752,3.661
		c-0.352,0.977-0.471,2.083-0.27,3.107c0.445,2.257,3.063,3.453,4.962,2.058c1.182-0.868,1.617-2.45,0.834-3.739
		c-0.589-0.974-1.872-1.523-2.983-1.326c-0.599,0.106-1.25,0.63-1.562,1.144c-0.204,0.334-0.45,1.159-0.199,1.512
		c-0.535-0.752-0.479-1.528-0.239-2.354c0.251-0.866,0.735-1.765,1.431-2.352c2.097-1.769,5.842-1.769,7.864,0.063
		c2.257,2.047,2.986,5.094,2.176,8.016c-1.077,3.874-3.801,5.363-7.28,4.85c-0.049-0.011-0.098-0.019-0.147-0.031
		c2.268,0.049,4.67-0.496,5.826-2.404c0.801-1.324,1.174-2.997,0.95-4.535c-0.214-1.467-1.76-4.499-3.611-2.939
		c-0.7,0.591,0.107,2.049,0.413,2.61c1.148,2.103,0.976,4.625-1.455,5.92c-2.126,1.133-4.64,0.513-6.894-0.236
		c-2.497-0.829-4.546-2.673-6.901-3.758c0.251,0.07,0.501,0.152,0.765,0.204c1.282,0.249,2.293,0.21,3.389-0.506
		c0.93-0.607,1.209-1.914,1.171-2.93c-0.047-1.319-0.31-3.23,1.26-3.755c-1.117-0.496-2.103,0.134-2.528,1.19
		c-0.527-1.876-3.489-2.967-5.249-2.494c0.459-0.125,1.389,0.754,1.628,1.069c0.394,0.517,0.582,1.148,0.584,1.793
		c0.002,1.262-0.484,2.583-1.87,2.834c-1.771,0.321-4.042-0.758-5.686-1.318c1.069,0.086,2.075-0.049,2.884-0.602
		c2.058-1.405,1.495-3.71-0.416-4.953c-1.278-0.832-3.845-0.717-3.65,1.347c0.104,1.115,1.7,1.826,2.53,0.968
		c0.454-0.471,0.543-1.198-0.18-1.433c0.315,0.101,0.293,0.698,0.129,0.883c-1.168,1.332-2.905-1.081-1.084-1.684
		c0.48-0.161,1.223-0.109,1.679,0.125c0.922,0.47,1.685,1.743,1.406,2.782c-0.746,2.767-3.896,2.216-6.57,1.39
		c-1.226-0.484-2.473-0.92-3.749-1.275c-4.803-1.347-9.052-1.686-13.301,0.227c1.085-2.278,0.363-4.771-1.929-6.219
		c-0.709-0.445-1.675-0.742-2.503-0.821c-1.651-0.153-6.603,1.906-6.54-1.074c-0.447,0.555-0.452,1.342-0.24,1.99
		c0.1,0.303,0.244,0.643,0.482,0.867c0.137,0.128,0.783,0.556,0.959,0.483c-1.737,0.734-3.486,1.337-5.362,0.684
		c-1.506-0.524-2.981-1.582-3.437-3.183c-0.396-1.391-0.057-3.137,1.311-3.881c0.913-0.497,1.978-0.467,2.929-0.093
		c0.487,0.191,0.979,0.461,1.309,0.878c0.347,0.438,0.625,1.093,0.388,1.646c0.04-0.549-0.273-1.141-0.658-1.512
		c-0.278-0.268-0.722-0.404-1.096-0.461c-0.801-0.121-1.772,0.218-2.153,0.988c-0.723,1.454,0.556,3.051,2.087,3.051
		c1.318,0,2.389-1.07,2.389-2.389c0-0.373-0.092-0.719-0.243-1.035c-0.521-1.291-2.079-2.091-3.684-2.155
		c-2.742-0.112-4.297,3.158-3.263,5.5c1.559,3.532,5.79,4.066,9.084,2.918c1.985-0.693,5.718-2.987,7.716-1.176
		c2.165,1.962,1.404,4.677-0.285,6.545c-0.557,0.376-1.108,0.771-1.656,1.175c0.391-1.265,0.349-2.734-0.15-3.74
		c-0.788-1.583-2.938-2.148-4.391-1.031c-0.765,0.586-1.347,1.577-1.409,2.547c-0.053,0.802,0.57,1.833,1.382,2.062
		c0.852,0.24,2.077-0.141,2.417-1.014c0.432-1.106-0.625-1.887-1.575-1.313c0.858-0.113,1.537,0.704,0.83,1.43
		c-0.543,0.561-1.529,0.443-2.014-0.113c-0.556-0.635-0.562-1.521-0.207-2.248c0.328-0.674,1.146-1.3,1.869-1.45
		c1.695-0.352,2.599,1.221,2.578,2.704c-0.021,1.589-0.906,3.054-2.081,4.086c-1.147,1.009-2.408,1.926-3.804,2.566
		c-1.411,0.646-2.894,1.374-4.451,1.591c-2.792,0.391-6-0.956-7.223-3.618c-0.402-0.876-0.677-2.053-0.515-3.014
		c-0.626,1.388-1.002,2.919-0.678,4.438c0.27,1.27,1.121,2.621,2.224,3.328c0.551,0.354,1.162,0.434,1.79,0.557
		c-0.942,0.244-2.399,0.031-3.291-0.359c-1.061-0.465-1.976-1.6-2.502-2.624c-1.297-2.521-1.25-5.449,0.136-7.906
		c0.643-1.139,1.513-2.157,2.852-2.434c1.911-0.395,3.262-0.212,4.877,0.887c1.479,1.008,2.42,3.63,1.246,5.168
		c-0.269,0.351-0.482,0.47-0.863,0.648c0.814-0.776,0.744-2.056,0.123-2.91c-0.671-0.932-2.144-1.058-3.088-0.521
		c-1.266,0.723-1.492,2.531-0.63,3.67c0.491,0.648,1.492,1.078,2.303,1.078c0.588,0,1.133-0.173,1.594-0.465
		c0.07-0.021,0.133-0.052,0.18-0.095c0.038-0.035,0.068-0.07,0.103-0.105c0.314-0.254,0.575-0.57,0.765-0.931
		c2.315-3.619-1.8-7.954-5.985-7.774c-4.325,0.185-6.781,4.487-6.406,8.47c-1.355-4.31,2.769-8.884,4.209-12.977
		c1.465-4.169,0.152-9.01-3.867-11.147c-0.43-0.23-0.964-0.472-1.439-0.576c0.734,0.161,1.825,1.72,2.167,2.335
		c0.602,1.081,0.748,2.26,0.757,3.489c0.03,4.078-2.1,7.48-2.986,11.312c-0.224,0.971-0.288,1.996-0.343,2.981
		c-0.078,1.44,0.03,3.005,0.397,4.402c0.315,1.2,0.91,2.317,1.665,3.299c0.404,0.524,0.861,0.986,1.332,1.447
		c0.438,0.429,1.007,0.711,1.407,1.179c-1.017-0.503-2.595-0.386-3.418,0.427c-0.75,0.738-1.095,2.537-0.299,3.364
		c-0.142-0.591-0.216-1.254,0.143-1.786c0.675-1.005,2.247-1.176,3.318-0.985c1.791,0.318,3.474,0.769,5.3,0.865
		c4.463,0.235,8.725-2.45,12.255-4.869c0.647-0.442,1.403-0.797,2.092-1.176c0.816-0.449,1.833-0.662,2.757-0.698
		c2.729-0.105,6.036,0.634,6.908,3.616c0.671,2.292,0.031,5.193-2.726,5.607c-1.573,0.236-3.954-0.154-4.633-1.854
		c-0.533-1.334-0.133-2.892,1.032-3.792c0.645-0.496,1.676-0.91,2.468-0.536c0.774,0.365,1.322,1.317,1.071,2.165
		c-0.27,0.916-1.497,1.408-2.249,0.73c-0.423-0.383-0.441-0.885-0.119-1.336c-0.68,0.309-0.601,1.367-0.254,1.9
		c0.348,0.536,1.109,0.623,1.702,0.574c1.602-0.128,2.662-1.493,2.059-3.089c-0.363-0.959-1.283-1.547-2.219-1.854
		c-1.994-0.652-4.625,0.259-5.347,2.375c-0.784,2.295,0.705,3.868,2.692,4.759c3.79,1.696,10.071,0.568,8.461-4.931
		c-0.32-1.093-0.937-2.009-1.74-2.75c1.469,0.767,2.339,2.066,3.022,3.573c0.559,1.229,0.979,2.556,1.736,3.687
		c0.481,0.72,1.823,2.291,2.5,0.812c0.3-0.653,0.069-1.483-0.171-2.115c-0.562-1.459-1.726-2.634-2.717-3.809
		c-1.547-1.835-3.476-2.799-5.57-3.666c1.596,0.295,3.102,0.825,4.292,1.635c1.785,1.209,3.119,2.825,4.689,4.275
		c2.587,2.392,5.857,4.186,9.283,5.053c2.356,0.597,5.754,1.309,7.97-0.136c3.444-2.242,0.582-7.067-2.885-7.218
		c-2.374-0.101-4.311,2.906-2.112,4.598c0.527,0.405,1.252,0.569,1.901,0.33c0.528-0.197,1.263-0.978,0.852-1.561
		c0.081,0.613-0.242,0.934-0.859,0.872c-0.455-0.046-0.921-0.286-1.142-0.692c-0.906-1.672,1.363-3.846,2.817-2.237
		c0.927,1.023,1.627,2.748,0.874,4.07c-1.583,2.782-5.987,1.935-8.399,1.038c-3.278-1.22-5.752-3.079-8.181-5.539
		c-3.745-3.788-8.265-5.4-13.595-5.464c-0.7-0.009-1.38,0.026-2.042,0.104c2.032-0.672,4.193-0.965,6.333-0.678
		c1.666,0.225,3.222,0.882,4.882,1.07c1.124,0.13,2.462-0.146,2.181-1.556c-0.127-0.638-0.786-0.975-1.341-1.212
		c-1.28-0.548-2.79-0.64-4.163-0.52c-2.191,0.188-4.308,0.746-6.369,1.48c1.88-1.292,3.957-2.591,6.245-2.938
		c2.862-0.436,5.466,0.014,8.02,1.377c1.469,0.785,3.438,1.976,3.93,3.711c0.544,1.92-1.629,3.577-3.208,2.143
		c-0.296-0.268-0.511-0.606-0.632-0.986c0.671,2.111,2.323,4,4.695,4.156c2.013,0.133,3.643-2.114,2.581-4.022
		c0.669,1.204,1.478,2.001,2.916,2.008c0.932,0.006,2.081-0.431,2.144-1.481c-0.052,0.29-0.37,0.447-0.658,0.484
		c-3.003,0.382-3.949-4.046-6.222-5.035c0.679,0.297,1.322,0.555,1.997,0.883c3.621,1.771,6.913,4.115,10.484,5.976
		c3.139,1.634,8.098,3.801,12.004,3.326c2.751-0.039,5.161-0.731,7.787,0.713c1.845,1.014,3.861,2.053,6.025,1.928
		C220.803,44.843,221.959,43.974,221.584,42.027z"/>
</g>
</svg>
