<?xml version="1.0" encoding="utf-8"?>
<!-- Generator: Adobe Illustrator 16.0.0, SVG Export Plug-In . SVG Version: 6.00 Build 0)  -->
<!DOCTYPE svg PUBLIC "-//W3C//DTD SVG 1.1//EN" "http://www.w3.org/Graphics/SVG/1.1/DTD/svg11.dtd">
<svg version="1.1" id="Calque_1" xmlns="http://www.w3.org/2000/svg" xmlns:xlink="http://www.w3.org/1999/xlink" x="0px" y="0px"
	 width="220px" height="18.5px" viewBox="0 0 220 18.5" enable-background="new 0 0 220 18.5" xml:space="preserve">
<path fill-rule="evenodd" clip-rule="evenodd" fill="#FFFFFF" stroke="#FFFFFF" stroke-width="0.5" stroke-miterlimit="10" d="
	M50.132,8.542c5.789-0.998,11.383-2.036,17.588-2.782c0.078,0.077,0.165,0.165,0.242,0.242c3.433,3.239,14.312,5.817,25.365,7.174
	c2.22,2.153,6.089,4.044,12.022,4.887c3.064,0.438,6.128,0.438,9.182,0c5.944-0.843,9.804-2.733,12.024-4.887
	c11.053-1.357,21.931-3.935,25.354-7.174c0.087-0.077,0.164-0.165,0.242-0.242c6.215,0.746,11.81,1.784,17.598,2.782l0,0
	c12.139,1.988,16.512,2.385,24.821,2.259c9.56-0.136,18.916-1.852,25.142-4.625c0.475-0.213,0.077-0.241-0.059-0.193
	c-4.421,1.599-8.571,2.928-15.136,3.393c-4.886,0.349-9.753,0.31-14.446-0.165c-7.28-0.747-13.633-1.939-20.235-3.084v0.01
	c-7.641-1.25-12.197-1.871-16.6-2.133c0.389-1.288-0.106-2.356-0.648-2.763c-0.243-0.184-0.369-0.039-0.184,0.184
	c0.648,0.757,0.745,1.657,0.348,2.56c-2.433-0.136-4.849-0.156-7.737-0.117c-5.866,0.088-11.663,0.767-16.706,1.93
	c-0.222-0.369-0.494-0.699-0.804-0.99c-1.727-1.598-3.994-1.997-6.342-0.387c-0.078,0.136,0.069,0.214,0.146,0.156
	c2.793-1.794,5.431-0.718,6.583,1.318c-2.996,0.709-5.711,1.58-8.009,2.608c-0.465,0.204-0.078,0.242,0.059,0.194
	c2.618-0.95,5.147-1.804,8.135-2.442c0.601,1.338,0.592,3.014-0.369,4.546c-0.077,0.126-0.174,0.261-0.262,0.389
	c-5.827,0.514-11.944,0.766-17.5,0.736c-5.556,0.029-11.674-0.223-17.502-0.736c-0.096-0.128-0.184-0.263-0.271-0.389
	c-0.959-1.533-0.97-3.199-0.359-4.537c2.986,0.629,5.507,1.483,8.126,2.433c0.144,0.048,0.533,0.01,0.058-0.194
	c-2.289-1.028-5.003-1.899-8-2.608c1.145-2.036,3.792-3.112,6.574-1.318c0.088,0.058,0.232-0.02,0.156-0.156
	c-2.355-1.609-4.616-1.211-6.341,0.387c-0.321,0.292-0.591,0.622-0.805,0.99c-5.042-1.164-10.85-1.842-16.726-1.93
	c-2.889-0.039-5.304-0.02-7.737,0.117c-0.397-0.903-0.292-1.803,0.348-2.56c0.184-0.223,0.06-0.368-0.184-0.184
	c-0.532,0.407-1.037,1.475-0.64,2.763c-4.402,0.262-8.968,0.884-16.599,2.123h-0.01C43.443,7.272,37.091,8.465,29.8,9.212
	c-4.693,0.474-9.55,0.514-14.436,0.165C8.799,8.912,4.639,7.583,0.218,5.983C0.083,5.936-0.306,5.963,0.17,6.177
	c6.213,2.773,15.58,4.489,25.131,4.625c8.31,0.126,12.691-0.271,24.821-2.259H50.132L50.132,8.542z M109.984,0.892l1.058,5.876
	l1.832-4.731c-0.185-0.039-0.319-0.204-0.319-0.397c0-0.223,0.185-0.407,0.406-0.407c0.214,0,0.397,0.184,0.397,0.407
	s-0.174,0.407-0.387,0.407l0.02,5.284l2.704-3.868c-0.117-0.077-0.185-0.205-0.185-0.349c0-0.224,0.175-0.408,0.397-0.408
	c0.224,0,0.408,0.184,0.408,0.408c0,0.223-0.185,0.407-0.408,0.407c-0.028,0-0.058,0-0.088-0.01l-1.812,6.447
	c-2.695-0.446-5.392-0.417-8.087,0L104.1,3.482c-0.039,0.009-0.078,0.02-0.126,0.02c-0.213,0-0.397-0.185-0.397-0.408
	s0.184-0.407,0.397-0.407c0.223,0,0.407,0.184,0.407,0.407c0,0.136-0.067,0.261-0.175,0.33l2.736,3.907l0.019-5.303
	c-0.019,0-0.029,0-0.048,0c-0.224,0-0.398-0.184-0.398-0.408c0-0.223,0.175-0.408,0.398-0.408c0.223,0,0.397,0.185,0.397,0.408
	c0,0.184-0.107,0.33-0.262,0.388l1.813,4.683l1.038-5.799c-0.194-0.018-0.358-0.193-0.358-0.407c0-0.223,0.184-0.407,0.407-0.407
	c0.223,0,0.397,0.184,0.397,0.407C110.343,0.699,110.188,0.874,109.984,0.892L109.984,0.892z M68.505,5.664
	c0.611-0.069,1.232-0.136,1.862-0.195c4.683-0.485,9.551-0.524,14.438-0.175c2.492,0.184,4.634,0.485,6.574,0.873
	c-0.678,1.405-0.63,3.189,0.349,4.954c-9.783-0.9-18.616-2.54-22.329-4.828C69.068,6.09,68.768,5.887,68.505,5.664L68.505,5.664z
	 M128.154,11.121c0.989-1.764,1.037-3.548,0.35-4.954c1.948-0.388,4.093-0.689,6.582-0.873c4.889-0.349,9.735-0.31,14.429,0.175
	c0.62,0.059,1.241,0.126,1.852,0.195c-0.262,0.223-0.552,0.426-0.882,0.629C146.771,8.582,137.948,10.221,128.154,11.121
	L128.154,11.121z M124.927,13.361c-2.338,1.415-5.876,2.503-10.676,3.034c-2.89,0.312-5.73,0.32-8.619,0
	c-4.8-0.531-8.329-1.619-10.677-3.034c5.315,0.593,10.569,0.894,14.991,0.844C114.358,14.255,119.623,13.954,124.927,13.361z"/>
</svg>
