<?xml version="1.0" encoding="utf-8"?>
<!-- Generator: Adobe Illustrator 16.0.0, SVG Export Plug-In . SVG Version: 6.00 Build 0)  -->
<!DOCTYPE svg PUBLIC "-//W3C//DTD SVG 1.1//EN" "http://www.w3.org/Graphics/SVG/1.1/DTD/svg11.dtd">
<svg version="1.1" id="Calque_1" xmlns="http://www.w3.org/2000/svg" xmlns:xlink="http://www.w3.org/1999/xlink" x="0px" y="0px"
	 width="431px" height="56px" viewBox="0 0 431 56" enable-background="new 0 0 431 56" xml:space="preserve">
<g>
	<g>
		<path d="M78.903,41.351c-0.611-0.588-1.16-0.18-1.929-0.364c-0.344-0.085-0.709-0.45-0.336-0.692
			c-0.849,0.414-0.798,1.033-0.146,1.592c-0.329-0.282-0.938,0.608-1.026,0.793c-0.435-1.166-1.431,0.021-2.215-0.102
			c0.267,0.13,0.668,0.336,0.935,0.396c-0.534-0.117-1.245,0.221-1.77,0.504c0.525,0.287,1.236,0.625,1.77,0.507
			c-0.267,0.059-0.667,0.266-0.935,0.396c0.784-0.122,1.78,1.065,2.215-0.1c0.088,0.182,0.697,1.076,1.026,0.793
			c-0.653,0.559-0.704,1.178,0.146,1.592c-0.373-0.243-0.007-0.61,0.336-0.693c0.769-0.187,1.317,0.224,1.929-0.363
			c0.349-0.335,0.496-0.811,0.654-1.215c0.119-0.297,0.243-0.637,0.43-0.916c-0.187-0.277-0.311-0.615-0.43-0.911
			C79.398,42.158,79.251,41.686,78.903,41.351z M77.885,44.498c-1.02,0.083-1.441-0.598-2.138-1.021
			c0.696-0.422,1.118-1.102,2.138-1.018c0.775,0.063,1.162,0.548,1.54,1.018C79.047,43.949,78.66,44.434,77.885,44.498z"/>
		<path d="M359.266,43.477c-0.524-0.283-1.236-0.621-1.77-0.504c0.266-0.06,0.666-0.266,0.936-0.396
			c-0.785,0.122-1.78-1.064-2.216,0.102c-0.09-0.185-0.695-1.075-1.026-0.793c0.653-0.559,0.704-1.178-0.148-1.592
			c0.375,0.242,0.009,0.607-0.335,0.692c-0.77,0.185-1.317-0.224-1.931,0.364c-0.346,0.335-0.493,0.808-0.652,1.215
			c-0.117,0.296-0.242,0.633-0.43,0.911c0.187,0.279,0.313,0.619,0.43,0.914c0.159,0.405,0.308,0.881,0.652,1.217
			c0.613,0.587,1.161,0.177,1.931,0.363c0.344,0.083,0.71,0.45,0.335,0.693c0.853-0.414,0.802-1.035,0.148-1.594
			c0.331,0.284,0.937-0.61,1.026-0.793c0.436,1.166,1.431-0.021,2.216,0.101c-0.27-0.129-0.67-0.337-0.936-0.396
			C358.029,44.102,358.741,43.764,359.266,43.477z M353.796,44.498c-0.774-0.064-1.162-0.549-1.54-1.021
			c0.378-0.47,0.765-0.954,1.54-1.018c1.02-0.084,1.441,0.596,2.139,1.018C355.237,43.9,354.815,44.581,353.796,44.498z"/>
		<path d="M351.091,42.877c-0.325,0-0.591,0.263-0.598,0.587h-0.003v-0.293c0-0.101-0.082-0.18-0.181-0.18s-0.181,0.079-0.181,0.18
			v0.29l-134.288-1.445L81.554,43.461v-0.29c0-0.101-0.082-0.18-0.181-0.18c-0.101,0-0.182,0.079-0.182,0.18v0.293h-0.003
			c-0.008-0.324-0.271-0.587-0.599-0.587c-0.332,0-0.601,0.27-0.601,0.6c0,0.332,0.269,0.602,0.601,0.602
			c0.328,0,0.592-0.263,0.599-0.59h0.003v0.296c0,0.101,0.081,0.181,0.182,0.181c0.099,0,0.181-0.08,0.181-0.181v-0.29
			l134.287,1.325l134.288-1.325v0.29c0,0.101,0.082,0.181,0.181,0.181s0.181-0.08,0.181-0.181v-0.296h0.003
			c0.008,0.327,0.272,0.59,0.598,0.59c0.332,0,0.603-0.27,0.603-0.602C351.695,43.147,351.423,42.877,351.091,42.877z"/>
	</g>
	<g>
		<path d="M194.699,32.956c0.981-0.761,1.993-1.14,2.838-1.957l-1.437-2.163c-1.011,1.376-2.555,2.442-4.52,2.985
			c-2.487,0.684-6.411-0.404-7.052-3.151c-0.233-0.988-0.141-2.213,0.678-2.942c0.743-0.664,2.262-0.29,2.031,0.9
			c0.777-1.915-0.566-4.132-2.791-3.147c-0.013-0.131-0.025-0.283-0.035-0.479c-0.068-1.285,1.812-3.241,3.139-2.492
			c0.709,0.402,0.824,1.534,0.091,1.991c-0.364,0.228-0.861,0.138-1.251,0.03c1.592,0.743,3.522,0.062,3.417-1.988
			c-0.069-1.327-1.146-1.921-2.313-2.147c0.52-0.074,1.05-0.055,1.575,0.028c0.373,0.373,0.733,0.751,1.077,1.139
			c1.043,1.178,1.999,2.421,2.928,3.7c-0.25,1.08-1.639,1.987-2.627,1.268c-0.653-0.472-0.771-1.738,0.324-1.696
			c-1.969-0.078-2.68,2.536-1.344,3.787c0.708,0.666,1.684,0.782,2.624,0.635c1.277-0.336,2.533-1.066,3.087-2.148
			c0.349-0.678,0.426-1.36,0.371-2.052c-0.234-1.25-0.986-2.524-1.898-3.465c-1.026-1.059-2.288-1.606-3.608-1.767
			c-1.096-1.14-2.288-2.185-3.63-3.092c2.77,1.02,5.423,2.375,7.784,3.888c1.095,0.703,1.949,1.569,2.544,2.728
			c0.692,1.343,0.894,3.085,0.632,4.627l0.623,0.719c0.236,0.273,0.454,0.561,0.668,0.848c0.146,0.193,0.294,0.381,0.446,0.569
			c0.037-0.118,0.076-0.233,0.109-0.354c1.162-4.276-1.458-7.761-4.757-9.992c0.579,0.391,2.112,0.033,2.722-0.115
			c0.748-0.183,1.521-0.139,2.298-0.25c-1.027-0.377-1.969-0.715-2.846-1.383c-0.319-0.243-2.338-1.481-2.743-1.001
			c1.171-1.386,0.56-4.065-0.908-5.051c-0.877-0.589-2.007-0.708-3.032-0.583c-1.363,0.165-3.481,0.963-3.679,2.583
			c1.083-1.641,4.801-1.333,4.566,1.039c-0.144,1.455-1.642,1.534-2.782,1.246c-1.751-0.442-3.61-0.814-5.328-1.372
			c-2.213-0.719-4.909-0.948-7.312-0.442c-1.13,0.156-2.239,0.398-3.336,0.761c-1.451,0.478-2.894,1.483-4.477,1.324
			c-1.236-0.126-2.307-1.012-0.894-1.94c-1.302,0.314-2.989,1.054-2.818,2.672c0.083,0.786,0.64,1.446,1.329,1.793
			c0.438,0.223,2.111,0.638,2.519,0.188c-1.123,1.243-2.106,2.619-3.027,4.056c-0.737-1.034-1.821-1.845-3.119-2.234
			c-3.153-0.943-6.235,1.507-7.809,3.977c-2.138,3.353-1.457,7.686,1.319,10.384c0.265,0.257,0.546,0.474,0.834,0.667
			c-2.952,2.404-6.789,3.751-10.563,3.742c-4.527-0.011-8.272-2.863-11.35-5.882c-0.079-0.077-0.154-0.154-0.233-0.232
			c-0.199,0.221-0.393,0.443-0.583,0.672c2.64,2.694,5.533,5.004,9.65,5.774c4.744,0.886,9.769-0.955,13.581-3.771
			c0.487,0.259,0.996,0.445,1.519,0.559c-1.283,0.471-2.351,1.654-2.453,3.032c-0.13,1.779,1.285,2.25,2.72,2.453
			c0.75,0.107,1.644,0.009,2.358-0.256c0.343-0.125,0.642-0.34,0.974-0.462c-0.884,0.321-2.259,0.317-2.67-0.698
			c-0.628-1.548,0.792-3.175,1.898-4.061c1.269-0.234,2.516-0.754,3.604-1.436c2.655-1.668,3.991-4.468,4.455-7.468
			c0.123-0.792,0.335-1.6,0.406-2.389c0.076-0.855,0.16-1.703,0.273-2.542c-0.051,0.382,1.412,0.631,1.629,0.644
			c0.673,0.042,1.377-0.116,2.011-0.334c1.493-0.518,2.953-3.321,1.047-4.192c0.936,0.429,0.597,1.81-0.209,2.153
			c-1.572,0.67-1.949-1.501-1.993-2.534c-0.093-2.134,2.05-3.523,3.948-3.825c1.542-0.245,3.155-0.276,4.685,0.149
			c2.831,0.785,5.55,2.522,7.821,4.63c-1.145,0.11-2.29,0.464-3.332,0.994c-3.506,1.786-4.349,6.206-3.207,9.64
			c0.396,1.191,1.154,2.205,2.102,3.013c1.717,1.462,4.102,2.353,6.358,2.396c1.419,0.028,6.265,0.128,5.448,2.87
			c-0.441,1.474-3.509,1.56-4.663,1.251c-2.495-0.668-4.052-1.409-6.611-0.195c-1.762,0.836-2.939,2.376-4.522,3.403
			c1.724-1.198,4.609-2.517,6.741-2.319c1.523,0.141,2.934,1.273,4.396,1.76c2.458,0.813,6.216,0.563,7.832-1.764
			C201.228,35.604,197.596,33.345,194.699,32.956z M194.114,23.607c-0.099,0.606-0.379,1.241-0.86,1.641
			c-0.552,0.458-1.229,0.417-1.902,0.393c0.071,0.003,0.143,0.001,0.212-0.003c0.952-0.065,1.687-0.783,2.019-1.65
			c0.173-0.45,0.262-0.934,0.259-1.417c0-0.297-0.004-1.047-0.259-1.264C194.183,21.816,194.229,22.908,194.114,23.607z
			 M192.341,14.08c0.497-0.828,0.32-1.672-0.014-2.478c-0.1-0.244-0.215-0.486-0.33-0.723c0.728,0.786,1.265,1.691,1.143,2.81
			c-0.187,1.731-2.188,1.732-3.499,1.448C190.715,15.37,191.772,15.026,192.341,14.08z M168.434,20.728
			c-0.125,0.838-0.206,1.688-0.306,2.527c-0.105,0.875-0.284,1.746-0.539,2.583c-0.821,2.698-2.443,5.062-4.998,6.213
			c-0.743,0.417-1.568,0.71-2.356,0.735c-0.061,0.002-0.122,0.004-0.182,0.004c-1.043,0-1.853-0.297-2.51-0.774
			c-1.256-0.828-2.146-2.274-2.568-3.753c-0.727-2.542,0.069-5.376,2.167-7.003c0.654-0.508,1.675-0.911,2.509-0.88
			c1.36,0.05,2.704,1.076,2.99,2.417c0.296,1.396-0.42,3.769-2.278,3.583c-0.919-0.09-1.27-0.949-1.152-1.806
			c0.133-0.978,1.035-1.238,1.906-1.219c-1.822-0.658-3.403,1.064-3.584,2.76c-0.052,0.468,0.049,0.918,0.247,1.33
			c0.242,0.403,0.58,0.761,1.012,1.054c1.427,0.972,3.397,0.997,4.792,0.064c0.472-0.316,0.927-0.769,1.276-1.254
			c1.018-1.577,1.069-3.338,0.458-4.849c1.289-2.21,2.649-4.356,4.361-6.172c0.133-0.141,0.268-0.271,0.401-0.401
			C168.979,16.961,168.646,19.287,168.434,20.728z M172.29,20.215c0.011,0,0.015,0.002,0.024,0.002c0.022,0,0.018,0-0.014,0.001
			C172.297,20.217,172.293,20.217,172.29,20.215c-0.206,0.002-0.395-0.01-0.562-0.038c-2.088-0.35-1.228-2.85-0.637-4.456
			c0,0.002,0,0.009,0,0.018C171.045,17.185,170.31,19.698,172.29,20.215z M183.371,28.652c-0.772-1.647-0.645-3.795-0.133-5.496
			c0.018,0.756-0.131,1.394,0.148,2.112c0.273-0.342,0.801-0.375,1.177-0.215C183.143,24.449,183.228,28.023,183.371,28.652z"/>
		<path d="M123.575,32.797c1.863-1.539,1.058-3.941-1.211-4.412c-1.532-0.318-3.521,0.66-3.55,2.069c-2-1.038-1.073-4.34,1.759-4.19
			c1.489,0.079,3.017,0.652,4.285,1.414c0.318,0.192,2.092,1.672,2.964,2.607c0.223-0.246,0.454-0.479,0.679-0.703
			c-1.196-1.363-4.555-4.548-4.916-4.857c-1.988-1.708-5.456-3.991-8.271-3.339c-3.083,0.711-6.223,4.171-3.714,7.285
			c-0.803-0.998,0.568-2.887,1.399-3.333c1.417-0.759,3.48-0.079,4.882,0.404c-2.259,1.227-3.226,4.526-1.045,6.481
			C118.489,33.708,121.707,34.341,123.575,32.797z M113.666,23.91c1.618-2.17,4.254-1.275,6.615,0.004
			c1.354,0.732,2.618,1.595,3.542,2.073c-0.604-0.312-1.249-0.58-1.878-0.831C119.546,24.198,116.224,22.898,113.666,23.91z
			 M118.25,31.495c0.585,0.321,1.431,0.552,2.068,0.305c-0.185-0.663-0.318-1.354,0.432-1.746c1.331-0.692,2.104,1.375,1.078,2.122
			C120.833,32.898,119.042,32.187,118.25,31.495z"/>
		<path d="M158.503,31.362c-0.032,0.043-0.068,0.08-0.098,0.122c0.254,0.141,0.539,0.242,0.847,0.309
			c0.484-0.539,0.94-1.108,1.376-1.692c-0.37-0.045-0.733-0.127-1.089-0.245C159.204,30.37,158.861,30.876,158.503,31.362z"/>
		<path d="M143.847,39.487c-1.905-0.041-3.835-0.411-5.564-1.225c-1.281-0.605-2.461-1.421-3.56-2.306
			c-0.213-0.171-1.712-1.418-2.579-2.238c-0.223,0.337-0.392,0.662-0.467,0.979c0.75,0.748,1.524,1.448,2.325,2.076
			c-0.08,0.032-0.16,0.07-0.238,0.106c-2.079,0.66-2.979-0.269-3.016-1.534c-0.116-0.848,0.306-1.66,0.783-2.338
			c0.001-0.003-0.001-0.004-0.001-0.005c0.02-0.029,0.043-0.055,0.064-0.085c0.071-0.098,0.144-0.196,0.215-0.289
			c0.108-0.142,0.215-0.282,0.331-0.421l0.082-0.103c0.387-0.489,0.812-0.949,1.221-1.392c0.355-0.386,0.722-0.784,1.053-1.189
			c0.275-0.338,0.508-0.702,0.736-1.056c0.043-0.069,0.087-0.138,0.131-0.207c0.428-0.722,0.872-1.421,1.483-1.831
			c0.973-0.653,2.217-0.513,2.717,0.615c0.241,0.542,0.216,1.154,0.106,1.726c1.165-1.396,1.128-5.332-1.216-5.463
			c-0.622-0.037-1.603,0.194-2.349,0.641c-1.271-3.65-6.629-3.713-9.242-1.74c0.014,0,0.028-0.004,0.04-0.016
			c2.219-0.412,4.598,0.723,4.578,3.274c-0.005,0.555-0.119,1.149-0.314,1.707c-0.27,0.914-0.776,1.774-1.517,2.535
			c-0.138,0.141-0.281,0.282-0.427,0.424c-0.465,0.463-0.939,0.936-1.288,1.459c-0.173,0.303-0.318,0.614-0.449,0.935
			c-0.145,0.419-0.269,0.829-0.372,1.238c-0.15,0.75-0.169,1.524,0.003,2.302c0.861,3.865,5.831,3.332,8.337,1.747
			c0.227,0.151,0.457,0.296,0.689,0.434c-2.398,0.715-3.55,2.246-6.688,1.833c-2.104-0.275-3.777-1.91-5.597-2.87
			c-1.981-1.05-5.279-0.464-6.933,1.037c0.797-0.37,1.826-0.61,2.703-0.382c1.028,0.269,2.068,1.319,2.905,1.953
			c1.557,1.179,3.116,2.532,5.117,2.637c1.469,0.073,3.122-0.265,4.503-0.742c2.001-0.695,2.799-2.604,5.091-2.631
			c1.153-0.015,2.467,0.707,3.639,0.893c2.598,0.409,5.271-0.207,7.775-0.885c0.599-0.163,1.095-0.484,1.663-0.689
			C148.239,39.15,146.067,39.537,143.847,39.487z M130.901,30.233c0.882-1.147,1.881-2.25,2.401-3.555
			c0.598-1.505,0.219-2.464-0.486-3.793c1.224,0.892,1.722,1.508,1.608,3.102c0.955-0.764,3.924-2.776,4.516-0.608
			c-0.369-1.352-2.603,0.25-3.158,0.633c-1.333,0.924-2.455,2.246-3.516,3.452c-0.864,0.988-2.843,2.769-3.034,4.111
			C129.414,32.313,130.11,31.258,130.901,30.233z"/>
		<path d="M113.23,40.37c-1.155-0.182-1.989-1.557-2.692-2.393c-0.982-1.165-1.805-2.594-3.145-3.396
			c0.583,0.348,2.461-1.074,2.87-1.425c0.875-0.748,1.463-1.782,2.079-2.75c-0.489,0.422-1.098,1.002-1.761,1.102
			c-0.642,0.096-1.295-0.278-1.928-0.313c-0.912-0.048-1.604,0.239-2.209,0.931c0.119-1.754-1.094-3.321-2.598-4.25
			c-1.01-0.413-2.012-0.624-2.913-0.593c-1.62,0.056-3.003,1.011-3.519,2.435c-0.322,0.885-0.403,1.872-0.222,2.709
			c0.244,1.135,1.019,1.594,1.625,1.782c0.842,0.26,1.852,0.145,2.698-0.248c0.693-0.462,1.107-1.223,0.807-2.227
			c-0.446-1.491-2.177-1.702-2.817-0.258c0.48-1.086,1.832-0.481,1.859,0.521c0.046,1.771-2.428,1.48-3.012,0.257
			c-0.193-0.402-0.252-0.849-0.248-1.296c0.992-0.887,1.931-1.862,2.824-2.855c0.045-0.05,0.088-0.098,0.131-0.147
			c0.683,0.025,1.368,0.209,1.911,0.505c1.055,0.584,1.688,1.638,2.055,2.743c0.815,2.454-1.551,4.875-3.636,5.599
			c-2.936,1.023-5.171-1.335-5.913-3.868c0.273-0.167,0.541-0.344,0.804-0.526c-0.114-0.67-0.102-1.398,0.042-2.114
			c-0.353,0.302-0.717,0.59-1.088,0.859c0.128-4.825,6.55-8.743,10.288-10.083c1.548-0.555,3.063-0.895,4.56-1.058
			c-3.778,1.298-6.896,3.446-9.848,6.439c0.219-0.035,0.44-0.063,0.667-0.069c0.466-0.016,0.957,0.032,1.456,0.121
			c2.773-3.097,5.43-5.763,10.12-6.269c6.598-0.708,12.697,3.67,17.041,8.232c0.166-0.221,0.308-0.45,0.431-0.683
			c-0.969-1.019-2.823-2.99-3.069-3.291c-1.106-1.348-2.27-2.793-2.639-4.542c-0.154-0.728-0.311-2.192,0.253-2.793
			c0.305-0.323,1.808-0.537,2.016,0.053c-0.127-0.888-1.266-1.631-2.048-1.877c-1.4-0.447-2.704,0.468-3.462,1.587
			c-0.737,1.089-0.63,2.307-0.276,3.542c-4.365-0.958-8.205-2.014-12.716-0.975c-4.801,1.106-8.887,3.346-11.909,7.274
			c-0.486,0.633-0.881,1.314-1.186,2.016c-0.234,0.714-0.398,1.473-0.477,2.259c-0.121,1.232,0.075,2.536,0.554,3.677
			c0.104,0.249,0.24,0.498,0.385,0.762c0.031,0.057,0.061,0.113,0.091,0.17c0.35,0.462,0.772,0.898,1.284,1.29
			c1.896,1.451,4.905,1.107,6.836-0.247c2.167-0.814,2.925,2.47,3.834,3.782c0.757,1.096,2.068,1.631,3.327,1.839
			c2.453,0.406,4.546-1.124,5.013-3.482C115.542,39.928,114.254,40.53,113.23,40.37z M121.744,18.69
			c0.159-1.039,1.009-2.157,2.111-2.238c0.088-0.007,0.179-0.007,0.27,0c-1.577,1.085-1.84,3.694-0.68,5.195
			c-0.275-0.356-0.859-0.439-1.179-0.945C121.873,20.08,121.63,19.442,121.744,18.69z M110.898,41.174
			c-1.225-0.148-2.327-1.188-2.823-2.253c-0.527-1.131-0.864-2.33-1.464-3.433c-0.207-0.381-0.517-0.922-0.984-1.023
			c-0.008,0.005-0.014,0.008-0.021,0.012c0.001-0.006,0.005-0.01,0.009-0.014c-0.002-0.001-0.005-0.002-0.006-0.002
			c0.004-0.004,0.009-0.004,0.011-0.007c0.406-0.598,0.775-1.203,1.391-1.611c0.563-0.377,1.266-0.183,1.909-0.242
			c-0.413,0.367-0.635,0.855-1.151,1.122c-0.451,0.232-0.993,0.342-1.482,0.484c-0.139,0.039-0.271,0.083-0.401,0.137
			c0.418-0.072,0.846,0.341,1.098,0.638c0.918,1.077,1.763,3.127,2.046,3.51c0.641,0.867,1.353,1.773,2.392,2.172
			c0.419,0.16,0.838,0.246,1.283,0.295C112.262,41.265,111.415,41.235,110.898,41.174z"/>
		<path d="M88.992,34.588c1.739,0.143,3.316-0.17,4.769-0.777c-0.128-0.528-0.21-1.068-0.24-1.612
			c-1.731,0.852-3.653,1.16-5.839,0.416c-1.659-0.566-2.76-1.928-3.067-3.611c-0.257-1.418,0.551-3.126,2.179-3.157
			c1.068-0.02,2.403,1.112,1.258,2.047c-0.602,0.491-2.235,0.591-2.035-0.556c-0.255,1.461,0.456,2.826,2.093,2.802
			c1.597-0.022,3.359-1.024,3.555-2.734c0.218-1.891-1.598-3.613-3.43-3.706c-1.682-0.084-3.123,0.417-4.312,1.637
			C80.29,29.058,85.054,34.267,88.992,34.588z"/>
		<path d="M181.263,36.309c2.077-0.223,3.532-3.026,1.502-4.36c-0.755-0.499-1.806-0.607-2.247,0.348
			c0.314-0.17,0.693-0.276,1.049-0.203c0.777,0.16,0.936,0.982,0.59,1.631c-0.438,0.827-1.676,0.833-2.346,0.313
			c-0.698-0.542-0.838-1.55-0.952-2.37c-0.106-0.764-0.069-1.547,0.024-2.329c0.459-1.3,0.703-2.675,0.798-4.064
			c0.142-2.039,0.272-4.209,1.35-6.004c1.007-1.674,3.291-2.66,5.257-2.186c-0.269-0.064-0.501-0.164-0.732-0.26
			c-0.348-0.15-0.692-0.301-1.153-0.339c-1.023-0.082-1.87,0.167-2.825,0.475c-0.986,0.316-1.857-0.047-2.137-1.068
			c-0.197-0.715,0.265-2.206,1.32-1.782c-1.511-0.606-3.504-0.1-4.01,1.553c-0.21,0.682-0.237,1.336,0.01,2.013
			c0.113,0.314,0.891,1.813,1.349,1.707c-1.158,0.271-2.049,1.019-2.037,2.488c0.013,1.385,1.23,2.826,1.419,4.283
			c0.244,1.918-0.593,5.014-3.973,3.827c-1.007-0.353-1.469-1.7-1.528-2.664c-0.073-1.23,1.233-2.206,2.237-1.527
			c-1.203-0.813-2.213,1.527-0.957,2.35c0.847,0.558,2.26,0.083,2.656-0.839c0.509-1.181-0.392-2.341-1.537-2.615
			c-0.777-0.188-1.686-0.156-2.374,0.284c-1.09,0.696-1.6,2.238-1.333,3.466c0.402,1.846,1.47,2.579,3.272,2.862
			c-1.035,0.689-2.117,1.007-3.347,0.725c-1.027-0.237-1.916-0.94-1.911-2.073c-0.542,2.005-0.15,4.442,2.042,5.227
			c2.23,0.795,4.876-0.944,6.283-2.547C177.083,34.911,178.349,36.623,181.263,36.309z M177.464,22.069
			c0.158-1.012,0.987-1.189,1.589-1.876c0.304-0.348,0.561-0.564,0.625-1.055c-0.039,0.297-1.182-0.545-1.268-0.687
			c-0.538-0.901-0.151-1.905,0.197-2.786c-0.272,1.087,0.039,2.504,1.325,2.575c0.274,0.015,0.538-0.011,0.797-0.097
			c-0.78,0.259-1.374,2-1.651,2.668c-0.474,1.142-0.792,2.332-0.934,3.559C177.978,23.569,177.324,22.956,177.464,22.069z"/>
		<path d="M205.774,31.192c-1.043-0.205-2.06-0.783-3.056-1.111c-0.992-0.328-2.043-0.997-3.016-1.223
			c0.017,0.017,0.031,0.032,0.045,0.051c2.117,1.398,3.842,3.568,6.204,4.531c1.75,0.712,3.711,0.776,5.423-0.1
			c1.887-0.966,2.642-3.087,2.748-5.083c0.056-1.026-0.097-2.514-0.574-3.75c-0.315-0.819-0.774-1.529-1.411-1.916
			c0.569,0.744,0.752,1.708,0.52,2.613c-0.19,0.749-0.918,1.228-1.098,1.958c-0.173,0.708,0.137,1.658,0.32,2.349
			c0.293,1.099,0.438,1.884-0.53,2.672c-0.787,0.642-1.796,1.015-2.809,1.05c1.661-0.523,2.574-3.115,1.581-4.491
			c-1.235-1.712-3.343-0.852-4.521,0.453c0.792-0.875,2.222-0.346,2.503,0.708C208.528,31.485,206.813,31.398,205.774,31.192z"/>
		<path d="M176.82,33.22c-0.372,1.009-1.038,1.677-1.835,2.348c-0.615,0.517-1.219,1.074-1.356,1.906
			c-0.155,0.95,0.223,2.014,0.23,2.973c0.004,0.537-0.09,1.018-0.19,1.544c0.181-0.935,1.846-1.938,2.54-2.444
			c1.879-1.371,0.455-3.107,0.405-4.904C176.601,34.146,176.658,33.661,176.82,33.22z"/>
		<path d="M149.91,32.598c1.268,1.121,2.665,1.314,4.209,1.443c0.249,0.021,0.501,0.041,0.758,0.062
			c-0.563-0.165-1.129-0.289-1.682-0.483c-1.126-0.4-1.945-0.772-2.625-1.798c-0.546-0.818-0.927-1.752-1.122-2.716
			c-0.19-0.936,0.078-1.762,0.065-2.694c-0.008-0.582-0.471-0.986-1.085-0.772c-0.884,0.307-0.746,1.934-0.662,2.588
			C147.979,29.872,148.649,31.481,149.91,32.598z"/>
		<path d="M145.065,31.855c1.289,1.773,3.054,2.836,5.172,3.271c0.743,0.152,1.554,0.202,2.349,0.129
			c0.565-0.05,1.124-0.164,1.644-0.347c-1.473,0.096-2.715,0.14-4.147-0.301c-1.855-0.568-3.615-3.069-4.12-4.908
			c-0.232-0.846,0.081-3.328-1.203-3.476c-0.981-0.113-1.218,1.402-1.127,2.102C143.793,29.573,144.332,30.844,145.065,31.855z"/>
		<path d="M139.81,31.746c0.017,0.099,0.048,0.199,0.09,0.296c0.612,1.384,2.063,2.597,3.348,3.323
			c2.22,1.258,4.348,1.004,6.73,0.695c-2.082,0.269-4.651-0.224-6.136-1.802c-0.949-1.008-1.353-2.482-2.23-3.52
			C140.718,29.679,139.616,30.706,139.81,31.746z"/>
		<path d="M95.023,23.301c2.844,0.666,4.527-1.661,6.764-2.968c4.086-2.385,9.277-2.69,13.855-2.146
			c0.966,0.115,1.897,0.217,2.867,0.279c-0.264-0.077-0.538-0.149-0.811-0.214c-0.246-0.059-0.495-0.116-0.736-0.172
			c-3.58-0.833-7.537-1.489-11.159-0.493c-3.883,1.066-4.884-0.483-4.487-2.171c0.551,0.725,1.653,1.128,2.801,0.82
			c1.89-0.507,2.783-3.189,1.032-4.422c-2.211-1.561-4.729-0.024-5.872,2.062c-1.047,1.912-0.464,4.437,2.059,4.768
			c-1.729-0.227-2.828,1.388-4.456-0.146c-1.214-1.146-1.409-3.068-0.909-4.584c0.282-0.857,0.808-1.357,1.637-1.712
			c-2.872-0.303-4.978,3.522-5.238,5.944C92.163,20.035,92.826,22.787,95.023,23.301z M94.222,16.57
			c-0.422,0.929,0.172,2.466,0.892,3.073c0.95,0.8,2.016,1.062,3.16,0.867c0.232-0.039,0.468-0.1,0.708-0.177
			c-0.69,0.224-1.218,0.764-2.013,0.86c-0.77,0.093-1.642-0.083-2.211-0.64C93.731,19.555,93.662,17.799,94.222,16.57z"/>
		<path d="M97.613,12.196c-0.003,0.001-0.003,0.003-0.006,0.003c0.001,0.001,0.003,0,0.006,0.001
			C97.669,12.199,97.669,12.197,97.613,12.196z"/>
		<path d="M154.217,37.228c-0.518,0.364-1.069,0.697-1.579,0.938c-1.001,0.474-2.125,1.099-2.836,1.962
			c-0.346,0.416-0.602,0.783-0.184,1.244c0.67,0.74,2,0.172,2.593-0.381c0.666-0.617,1.116-1.453,1.528-2.252
			c0.45-0.874,1.012-1.879,1.766-2.528C155.097,36.561,154.659,36.916,154.217,37.228z"/>
		<path d="M138.041,21.96c1.155-1.237,0.924-3.596,1.533-5.134c-0.267,0.321-0.652,0.629-1.078,0.942
			c-1.271,0.932-2.91,1.9-2.85,3.362C135.695,22.359,137.24,22.822,138.041,21.96z"/>
		<path d="M94.892,39.709c-0.202,0.059-0.403,0.086-0.552,0.073c-0.785-0.058-0.923-0.494-1.073-1.174
			c-0.276-1.253-0.228-2.638-0.035-3.901c-1.36,2.356-5.06,3.45-7.655,3.444c-0.683-0.002-1.423-0.013-1.965-0.475
			c-0.365-0.313-1.004-1.378-0.726-1.892c-0.985,1.813,0.183,4.157,2.095,4.714c0.881,0.258,1.842,0.21,2.731,0.025
			c0.978-0.202,1.917-0.675,2.753-1.197c-0.019,2.437,3.375,3.32,4.795,1.42c0.388-0.518,0.47-1.207,0.503-1.835
			C95.742,39.313,95.311,39.584,94.892,39.709z"/>
		<path d="M215.881,20.398v0.01c0.008,0,0.013-0.003,0.018-0.004c0.008,0.001,0.014,0.004,0.021,0.004v-0.01
			c3.377-0.745,1.186-4.982-0.019-7.175v-0.005c0,0.001-0.001,0.001-0.002,0.002c0,0,0,0,0-0.002v0.004
			C214.693,15.417,212.502,19.654,215.881,20.398z"/>
		<path d="M273.881,34.942c0.524-0.114,1.032-0.3,1.517-0.559c3.814,2.816,8.839,4.657,13.582,3.771
			c4.117-0.771,7.012-3.08,9.651-5.775c-0.19-0.228-0.385-0.451-0.585-0.67c-0.078,0.076-0.154,0.153-0.232,0.231
			c-3.076,3.02-6.821,5.872-11.35,5.882c-3.775,0.01-7.611-1.338-10.565-3.741c0.291-0.194,0.57-0.412,0.836-0.669
			c2.777-2.697,3.457-7.031,1.319-10.384c-1.574-2.469-4.655-4.919-7.809-3.976c-1.296,0.389-2.382,1.2-3.118,2.233
			c-0.92-1.438-1.904-2.813-3.026-4.056c0.407,0.451,2.079,0.035,2.518-0.188c0.688-0.347,1.247-1.007,1.329-1.793
			c0.171-1.618-1.517-2.358-2.818-2.671c1.412,0.927,0.344,1.812-0.894,1.939c-1.583,0.159-3.027-0.846-4.479-1.324
			c-1.096-0.362-2.206-0.605-3.336-0.761c-2.402-0.506-5.098-0.277-7.311,0.442c-1.718,0.558-3.577,0.93-5.328,1.373
			c-1.141,0.288-2.638,0.209-2.782-1.246c-0.235-2.371,3.482-2.679,4.567-1.039c-0.198-1.621-2.317-2.419-3.681-2.583
			c-1.024-0.125-2.153-0.007-3.029,0.583c-1.471,0.986-2.082,3.666-0.908,5.051c-0.406-0.479-2.423,0.759-2.744,1.002
			c-0.876,0.668-1.816,1.006-2.845,1.383c0.777,0.11,1.548,0.066,2.297,0.249c0.61,0.148,2.144,0.506,2.722,0.115
			c-3.298,2.231-5.917,5.716-4.759,9.992c0.034,0.122,0.074,0.236,0.111,0.355c0.15-0.188,0.301-0.376,0.446-0.569
			c0.216-0.287,0.431-0.575,0.668-0.848l0.624-0.718c-0.264-1.542-0.062-3.285,0.63-4.627c0.598-1.158,1.453-2.024,2.547-2.728
			c2.36-1.513,5.013-2.869,7.78-3.889c-1.341,0.907-2.532,1.953-3.625,3.092c-1.322,0.161-2.584,0.708-3.611,1.768
			c-0.913,0.94-1.663,2.214-1.898,3.465c-0.058,0.691,0.021,1.374,0.371,2.052c0.555,1.082,1.81,1.812,3.087,2.148
			c0.94,0.147,1.914,0.031,2.624-0.635c1.337-1.25,0.625-3.864-1.343-3.787c1.095-0.042,0.977,1.224,0.323,1.696
			c-0.99,0.719-2.378-0.188-2.628-1.268c0.93-1.278,1.883-2.522,2.929-3.699c0.344-0.388,0.703-0.766,1.075-1.139
			c0.524-0.083,1.052-0.103,1.574-0.029c-1.167,0.226-2.245,0.82-2.313,2.147c-0.105,2.05,1.825,2.732,3.418,1.988
			c-0.393,0.108-0.887,0.197-1.254-0.03c-0.733-0.458-0.616-1.589,0.093-1.992c1.329-0.75,3.208,1.208,3.14,2.492
			c-0.009,0.195-0.021,0.348-0.033,0.479c-2.226-0.985-3.573,1.232-2.792,3.147c-0.232-1.189,1.286-1.564,2.031-0.9
			c0.817,0.728,0.91,1.954,0.68,2.942c-0.644,2.746-4.566,3.834-7.055,3.152c-1.963-0.543-3.509-1.609-4.52-2.985l-1.437,2.161
			c0.847,0.818,1.857,1.196,2.838,1.958c-2.896,0.39-6.527,2.648-4.267,5.899c1.616,2.326,5.374,2.575,7.833,1.763
			c1.46-0.485,2.872-1.618,4.396-1.759c2.13-0.199,5.016,1.121,6.739,2.318c-1.582-1.028-2.759-2.568-4.521-3.403
			c-2.561-1.212-4.117-0.473-6.612,0.195c-1.154,0.309-4.222,0.223-4.66-1.251c-0.819-2.741,4.027-2.841,5.447-2.87
			c2.258-0.041,4.642-0.933,6.358-2.396c0.948-0.807,1.707-1.821,2.102-3.013c1.142-3.434,0.298-7.854-3.208-9.64
			c-1.04-0.529-2.185-0.884-3.33-0.994c2.271-2.108,4.991-3.845,7.822-4.63c1.529-0.425,3.143-0.394,4.685-0.149
			c1.897,0.302,4.04,1.69,3.946,3.825c-0.043,1.032-0.42,3.204-1.991,2.534c-0.805-0.343-1.147-1.725-0.21-2.153
			c-1.907,0.871-0.445,3.673,1.049,4.192c0.633,0.218,1.337,0.375,2.008,0.334c0.22-0.013,1.685-0.263,1.63-0.644
			c0.115,0.84,0.197,1.688,0.277,2.542c0.067,0.79,0.281,1.597,0.402,2.389c0.462,3.001,1.801,5.8,4.455,7.468
			c1.09,0.682,2.336,1.203,3.605,1.436c1.106,0.886,2.525,2.514,1.899,4.062c-0.414,1.016-1.788,1.02-2.673,0.697
			c0.333,0.124,0.631,0.339,0.975,0.464c0.714,0.263,1.608,0.362,2.356,0.254c1.434-0.203,2.85-0.673,2.719-2.453
			C276.232,36.598,275.164,35.414,273.881,34.942z M238.661,13.689c-0.124-1.119,0.414-2.024,1.143-2.81
			c-0.114,0.236-0.23,0.479-0.329,0.723c-0.333,0.805-0.515,1.65-0.016,2.478c0.57,0.946,1.629,1.29,2.701,1.058
			C240.85,15.422,238.847,15.42,238.661,13.689z M240.236,25.639c0.068,0.004,0.142,0.007,0.213,0.003
			c-0.673,0.024-1.35,0.065-1.903-0.393c-0.481-0.4-0.762-1.035-0.86-1.641c-0.114-0.699-0.067-1.791,0.532-2.298
			c-0.256,0.216-0.26,0.966-0.262,1.263c0,0.482,0.088,0.967,0.261,1.417C238.549,24.856,239.286,25.573,240.236,25.639z
			 M248.412,25.27c0.281-0.718,0.135-1.356,0.151-2.112c0.512,1.7,0.64,3.848-0.133,5.496c0.144-0.63,0.228-4.204-1.191-3.598
			C247.613,24.894,248.142,24.928,248.412,25.27z M260.072,20.177c-0.167,0.028-0.357,0.041-0.563,0.039
			c-0.002,0.002-0.008,0.002-0.01,0.003c-0.032-0.001-0.039-0.001-0.016-0.001c0.011,0,0.016-0.002,0.025-0.002
			c1.981-0.518,1.244-3.03,1.199-4.476c0-0.01,0-0.016,0-0.018C261.3,17.327,262.16,19.827,260.072,20.177z M271.745,32.79
			c-0.059,0-0.119-0.002-0.181-0.004c-0.788-0.025-1.612-0.318-2.355-0.735c-2.555-1.152-4.177-3.515-4.998-6.213
			c-0.254-0.837-0.431-1.708-0.536-2.583c-0.102-0.839-0.183-1.689-0.309-2.527c-0.214-1.441-0.545-3.767-1.644-4.841
			c0.134,0.13,0.27,0.26,0.402,0.401c1.712,1.815,3.072,3.961,4.361,6.172c-0.611,1.511-0.563,3.273,0.459,4.85
			c0.348,0.485,0.801,0.938,1.275,1.254c1.395,0.932,3.366,0.906,4.792-0.064c0.431-0.293,0.768-0.651,1.011-1.055
			c0.197-0.412,0.299-0.862,0.249-1.331c-0.183-1.695-1.764-3.418-3.586-2.76c0.87-0.019,1.77,0.241,1.905,1.219
			c0.117,0.857-0.234,1.716-1.152,1.807c-1.858,0.186-2.572-2.187-2.279-3.583c0.286-1.342,1.63-2.367,2.989-2.417
			c0.836-0.03,1.854,0.372,2.513,0.88c2.094,1.626,2.889,4.461,2.164,7.003c-0.424,1.479-1.314,2.926-2.569,3.753
			C273.601,32.493,272.79,32.79,271.745,32.79z"/>
		<path d="M313.921,25.742c1.403-0.483,3.466-1.164,4.884-0.404c0.829,0.445,2.201,2.334,1.396,3.333
			c2.512-3.114-0.629-6.575-3.715-7.286c-2.813-0.651-6.28,1.633-8.268,3.34c-0.36,0.309-3.722,3.494-4.917,4.857
			c0.225,0.223,0.457,0.457,0.681,0.703c0.87-0.935,2.647-2.415,2.963-2.608c1.269-0.762,2.795-1.335,4.285-1.414
			c2.831-0.151,3.757,3.15,1.758,4.19c-0.031-1.409-2.017-2.388-3.549-2.07c-2.271,0.471-3.074,2.874-1.21,4.412
			c1.867,1.544,5.082,0.911,6.738-0.573C317.146,30.269,316.18,26.97,313.921,25.742z M309.857,25.157
			c-0.632,0.251-1.275,0.519-1.878,0.831c0.926-0.479,2.188-1.341,3.541-2.074c2.358-1.279,4.999-2.174,6.616-0.003
			C315.575,22.898,312.254,24.198,309.857,25.157z M309.971,32.176c-1.023-0.747-0.252-2.814,1.078-2.122
			c0.749,0.392,0.619,1.083,0.435,1.746c0.638,0.247,1.48,0.017,2.066-0.305C312.758,32.187,310.969,32.898,309.971,32.176z"/>
		<path d="M272.261,29.855c-0.355,0.118-0.719,0.2-1.088,0.243c0.436,0.586,0.892,1.154,1.376,1.693
			c0.31-0.065,0.591-0.167,0.849-0.308c-0.031-0.043-0.067-0.079-0.099-0.122C272.94,30.876,272.599,30.37,272.261,29.855z"/>
		<path d="M307.941,37.212c-1.818,0.962-3.493,2.596-5.597,2.872c-3.14,0.413-4.29-1.118-6.686-1.833
			c0.23-0.14,0.458-0.284,0.686-0.434c2.508,1.583,7.478,2.117,8.34-1.749c0.174-0.777,0.153-1.551,0.004-2.302
			c-0.104-0.407-0.23-0.818-0.375-1.238c-0.128-0.318-0.273-0.631-0.445-0.934c-0.352-0.524-0.823-0.996-1.289-1.459
			c-0.145-0.141-0.289-0.283-0.427-0.424c-0.74-0.76-1.25-1.621-1.519-2.535c-0.194-0.557-0.31-1.153-0.313-1.707
			c-0.019-2.551,2.36-3.685,4.577-3.274c0.014,0.011,0.027,0.016,0.043,0.016c-2.612-1.973-7.975-1.91-9.242,1.74
			c-0.748-0.446-1.729-0.678-2.351-0.641c-2.344,0.132-2.379,4.068-1.215,5.463c-0.109-0.571-0.134-1.183,0.104-1.726
			c0.501-1.128,1.746-1.268,2.718-0.615c0.612,0.41,1.057,1.109,1.486,1.831c0.043,0.068,0.086,0.136,0.131,0.207
			c0.226,0.353,0.46,0.719,0.736,1.057c0.332,0.405,0.697,0.804,1.053,1.188c0.409,0.443,0.833,0.902,1.22,1.393l0.082,0.103
			c0.115,0.137,0.225,0.278,0.331,0.421c0.069,0.091,0.145,0.189,0.214,0.289c0.021,0.028,0.044,0.056,0.066,0.084
			c0,0.002-0.003,0.003-0.003,0.004c0.478,0.68,0.898,1.491,0.782,2.34c-0.036,1.265-0.938,2.194-3.017,1.534
			c-0.074-0.038-0.157-0.076-0.235-0.108c0.798-0.628,1.571-1.328,2.324-2.075c-0.074-0.315-0.244-0.643-0.467-0.979
			c-0.869,0.82-2.369,2.069-2.579,2.238c-1.102,0.886-2.279,1.702-3.56,2.306c-1.731,0.815-3.659,1.185-5.564,1.226
			c-2.223,0.049-4.393-0.338-6.478-1.085c0.57,0.204,1.065,0.526,1.664,0.688c2.504,0.68,5.178,1.295,7.775,0.887
			c1.171-0.188,2.485-0.908,3.64-0.895c2.29,0.027,3.087,1.937,5.089,2.632c1.38,0.478,3.035,0.816,4.505,0.742
			c2-0.104,3.56-1.46,5.117-2.637c0.838-0.633,1.879-1.684,2.907-1.953c0.873-0.229,1.904,0.013,2.7,0.382
			C313.22,36.75,309.924,36.164,307.941,37.212z M299.532,29.466c-1.059-1.207-2.18-2.529-3.514-3.452
			c-0.555-0.384-2.789-1.985-3.157-0.634c0.591-2.167,3.562-0.155,4.513,0.608c-0.111-1.595,0.385-2.211,1.61-3.102
			c-0.704,1.329-1.085,2.288-0.483,3.792c0.515,1.304,1.516,2.407,2.398,3.556c0.792,1.023,1.488,2.081,1.671,3.345
			C302.376,32.234,300.398,30.454,299.532,29.466z"/>
		<path d="M336.424,35.474c0.146-0.265,0.284-0.513,0.388-0.762c0.477-1.141,0.675-2.445,0.553-3.677
			c-0.078-0.786-0.244-1.544-0.479-2.259c-0.302-0.703-0.697-1.384-1.186-2.016c-3.022-3.928-7.107-6.167-11.908-7.274
			c-4.509-1.038-8.35,0.017-12.715,0.975c0.354-1.233,0.459-2.452-0.278-3.542c-0.758-1.118-2.061-2.034-3.463-1.587
			c-0.78,0.247-1.916,0.989-2.048,1.877c0.21-0.59,1.715-0.375,2.02-0.053c0.563,0.602,0.405,2.066,0.253,2.793
			c-0.371,1.749-1.534,3.194-2.641,4.542c-0.246,0.3-2.098,2.271-3.067,3.29c0.121,0.233,0.265,0.463,0.431,0.682
			c4.345-4.562,10.443-8.939,17.039-8.232c4.692,0.505,7.348,3.172,10.12,6.269c0.503-0.088,0.991-0.137,1.459-0.121
			c0.225,0.006,0.447,0.034,0.666,0.069c-2.954-2.993-6.069-5.141-9.848-6.439c1.497,0.164,3.013,0.503,4.56,1.058
			c3.737,1.34,10.16,5.259,10.289,10.083c-0.373-0.27-0.734-0.558-1.087-0.859c0.142,0.716,0.153,1.443,0.038,2.114
			c0.264,0.183,0.533,0.359,0.807,0.526c-0.74,2.533-2.979,4.891-5.913,3.868c-2.085-0.726-4.453-3.146-3.637-5.599
			c0.367-1.104,1-2.159,2.053-2.743c0.542-0.296,1.23-0.479,1.913-0.505c0.044,0.049,0.087,0.098,0.132,0.148
			c0.893,0.992,1.829,1.968,2.825,2.855c0.002,0.446-0.059,0.894-0.25,1.296c-0.586,1.224-3.059,1.514-3.011-0.257
			c0.026-1.003,1.378-1.606,1.858-0.521c-0.641-1.444-2.371-1.233-2.817,0.258c-0.3,1.004,0.111,1.764,0.807,2.226
			c0.847,0.394,1.856,0.508,2.698,0.249c0.605-0.188,1.383-0.648,1.626-1.782c0.18-0.837,0.099-1.823-0.223-2.71
			c-0.516-1.424-1.898-2.378-3.518-2.434c-0.901-0.031-1.904,0.18-2.915,0.592c-1.503,0.93-2.715,2.497-2.598,4.251
			c-0.605-0.69-1.296-0.979-2.208-0.931c-0.633,0.035-1.289,0.408-1.929,0.313c-0.663-0.101-1.271-0.681-1.763-1.102
			c0.617,0.968,1.205,2.001,2.079,2.75c0.406,0.349,2.289,1.771,2.869,1.424c-1.338,0.803-2.163,2.23-3.144,3.396
			c-0.703,0.836-1.536,2.211-2.691,2.394c-1.024,0.16-2.313-0.442-2.53-1.546c0.468,2.358,2.562,3.89,5.013,3.483
			c1.26-0.209,2.571-0.743,3.329-1.84c0.905-1.313,1.666-4.596,3.832-3.782c1.931,1.355,4.939,1.699,6.836,0.247
			c0.514-0.392,0.935-0.826,1.285-1.29C336.367,35.587,336.396,35.529,336.424,35.474z M309.535,20.701
			c-0.32,0.506-0.904,0.589-1.181,0.945c1.161-1.501,0.898-4.11-0.679-5.195c0.093-0.007,0.183-0.007,0.271,0
			c1.102,0.081,1.953,1.199,2.107,2.238C310.17,19.442,309.926,20.08,309.535,20.701z M326.174,34.463
			c-0.467,0.102-0.776,0.645-0.983,1.023c-0.599,1.104-0.937,2.304-1.466,3.435c-0.493,1.064-1.599,2.104-2.821,2.253
			c-0.519,0.062-1.363,0.091-1.806-0.219c0.442-0.048,0.864-0.134,1.279-0.294c1.043-0.397,1.754-1.304,2.396-2.171
			c0.284-0.383,1.126-2.434,2.047-3.51c0.251-0.297,0.681-0.71,1.099-0.64c-0.131-0.052-0.267-0.098-0.403-0.136
			c-0.488-0.142-1.031-0.251-1.483-0.484c-0.517-0.267-0.736-0.755-1.151-1.122c0.645,0.059,1.347-0.134,1.911,0.242
			c0.613,0.409,0.982,1.013,1.387,1.61c0.005,0.003,0.008,0.003,0.013,0.007c-0.003,0-0.005,0.001-0.005,0.003
			c0.002,0.005,0.006,0.009,0.01,0.014C326.189,34.473,326.179,34.47,326.174,34.463z"/>
		<path d="M235.939,25.656l-1.412,1.627c-0.222,0.257-0.425,0.526-0.628,0.799c-0.195,0.259-0.392,0.521-0.603,0.771
			c-0.596,0.702-1.147,1.296-1.691,1.823c-2.926,3.065-7.615,6.895-11.857,3.608c-3.804-2.946-4.143-9.283-1.145-12.946
			c0.845-1.033,1.973-1.862,3.254-2.256c2.513-0.774,5.36,0.334,5.264,3.188c-0.021,0.561-0.052,1.16-0.256,1.691
			c-1.891,4.924-4.259-3.025-1.137-2.052c-1.6-0.79-4.056-0.347-4.229,1.702c-0.137,1.617,1.311,3.01,2.78,3.403
			c3.882,1.04,6.321-3.548,4.333-6.642c-1.591-2.478-4.522-3.531-7.346-2.382c-2.211,0.899-3.98,2.557-4.918,4.763
			c-0.179,0.418-0.321,0.847-0.45,1.281c-0.127-0.435-0.27-0.863-0.449-1.281c-0.938-2.206-2.706-3.864-4.918-4.763
			c-2.822-1.149-5.752-0.096-7.343,2.382c-1.991,3.094,0.45,7.681,4.333,6.642c1.47-0.393,2.916-1.786,2.778-3.403
			c-0.173-2.048-2.629-2.492-4.228-1.702c3.12-0.971,0.754,6.977-1.138,2.052c-0.204-0.531-0.235-1.13-0.254-1.691
			c-0.098-2.854,2.749-3.962,5.263-3.188c1.281,0.395,2.407,1.224,3.252,2.256c2.998,3.663,2.659,10-1.143,12.946
			c-4.241,3.286-8.932-0.543-11.857-3.608c-0.544-0.527-1.096-1.122-1.692-1.823c-0.209-0.25-0.406-0.512-0.603-0.771
			c-0.203-0.273-0.406-0.542-0.626-0.799l-1.414-1.627c-0.117,0.208-0.25,0.403-0.401,0.584l5.672,8.535
			c0.937,1.199,2.022,2.246,3.556,2.819c1.997,0.75,4.376,0.592,6.474,0.883c0.868,0.119,1.694,0.185,1.887,1.231
			c0.148,0.808-0.366,1.402-1.198,1.301c1.456,0.836,3.701-0.417,3.341-2.145c-0.326-1.556-1.936-1.177-2.725-2.282
			c0.672-1.073,1.631-1.938,2.27-3.06c0.492-0.866,0.881-1.793,1.164-2.75c0.285,0.957,0.672,1.884,1.165,2.75
			c0.64,1.122,1.599,1.986,2.271,3.06c-0.79,1.105-2.398,0.727-2.724,2.282c-0.36,1.728,1.884,2.98,3.34,2.145
			c-0.831,0.101-1.344-0.493-1.195-1.301c0.191-1.046,1.016-1.112,1.885-1.231c2.097-0.291,4.477-0.133,6.476-0.883
			c1.532-0.573,2.618-1.62,3.556-2.819l5.67-8.535C236.19,26.059,236.059,25.864,235.939,25.656z"/>
		<path d="M343.693,30.14c1.635,0.023,2.347-1.341,2.091-2.802c0.201,1.146-1.431,1.046-2.034,0.556
			c-1.146-0.935,0.191-2.066,1.259-2.047c1.625,0.03,2.437,1.738,2.178,3.157c-0.308,1.684-1.406,3.045-3.065,3.611
			c-2.188,0.744-4.108,0.436-5.842-0.416c-0.028,0.543-0.109,1.084-0.239,1.614c1.453,0.605,3.029,0.918,4.769,0.775
			c3.938-0.321,8.703-5.53,5.07-9.251c-1.19-1.219-2.63-1.721-4.313-1.636c-1.83,0.092-3.646,1.814-3.428,3.705
			C340.335,29.115,342.097,30.117,343.693,30.14z"/>
		<path d="M261.188,32.023c-1.229,0.282-2.313-0.035-3.345-0.724c1.801-0.285,2.868-1.018,3.27-2.863
			c0.268-1.229-0.242-2.771-1.333-3.466c-0.686-0.44-1.596-0.472-2.373-0.284c-1.143,0.273-2.044,1.434-1.537,2.615
			c0.396,0.921,1.81,1.396,2.656,0.839c1.258-0.823,0.246-3.164-0.956-2.35c1.004-0.68,2.309,0.296,2.235,1.526
			c-0.056,0.964-0.521,2.311-1.525,2.664c-3.379,1.186-4.218-1.909-3.974-3.827c0.188-1.458,1.406-2.898,1.419-4.283
			c0.013-1.47-0.878-2.218-2.036-2.488c0.458,0.106,1.234-1.393,1.349-1.708c0.247-0.676,0.22-1.331,0.009-2.013
			c-0.508-1.652-2.498-2.159-4.01-1.553c1.055-0.424,1.516,1.066,1.321,1.782c-0.279,1.02-1.152,1.384-2.138,1.068
			c-0.956-0.308-1.801-0.557-2.826-0.475c-0.459,0.038-0.803,0.189-1.151,0.339c-0.23,0.097-0.464,0.196-0.731,0.261
			c1.965-0.474,4.249,0.511,5.257,2.185c1.077,1.794,1.207,3.965,1.351,6.004c0.095,1.389,0.339,2.763,0.795,4.063
			c0.094,0.782,0.132,1.566,0.025,2.329c-0.113,0.82-0.254,1.828-0.953,2.371c-0.669,0.52-1.907,0.513-2.347-0.314
			c-0.342-0.647-0.185-1.471,0.593-1.631c0.355-0.073,0.733,0.034,1.048,0.203c-0.441-0.954-1.492-0.847-2.248-0.348
			c-2.028,1.335-0.573,4.138,1.504,4.36c2.915,0.315,4.181-1.397,4.235-3.678c1.407,1.603,4.054,3.342,6.283,2.545
			c2.192-0.784,2.584-3.22,2.043-5.225C263.104,31.083,262.215,31.786,261.188,32.023z M253.657,24.37
			c-0.143-1.227-0.463-2.417-0.937-3.559c-0.275-0.669-0.869-2.41-1.648-2.668c0.257,0.086,0.525,0.111,0.795,0.097
			c1.287-0.071,1.6-1.487,1.322-2.574c0.352,0.88,0.738,1.885,0.2,2.786c-0.084,0.141-1.229,0.984-1.267,0.687
			c0.065,0.491,0.318,0.708,0.624,1.055c0.602,0.688,1.432,0.865,1.59,1.876C254.475,22.956,253.822,23.569,253.657,24.37z"/>
		<path d="M218.252,24.508c-0.478,1.235-0.63,2.722-0.574,3.75c0.105,1.998,0.859,4.118,2.749,5.083
			c1.709,0.876,3.673,0.812,5.423,0.1c2.361-0.963,4.087-3.133,6.203-4.531c0.015-0.019,0.03-0.034,0.045-0.051
			c-0.973,0.226-2.024,0.895-3.016,1.223c-0.995,0.328-2.014,0.906-3.056,1.111c-1.039,0.206-2.753,0.293-2.331-1.29
			c0.283-1.053,1.714-1.583,2.506-0.708c-1.179-1.305-3.288-2.166-4.522-0.453c-0.993,1.375-0.08,3.967,1.581,4.49
			c-1.012-0.035-2.022-0.407-2.81-1.049c-0.967-0.789-0.823-1.573-0.53-2.672c0.184-0.691,0.495-1.642,0.319-2.35
			c-0.179-0.73-0.905-1.209-1.097-1.958c-0.232-0.906-0.049-1.869,0.521-2.612C219.027,22.979,218.566,23.688,218.252,24.508z"/>
		<path d="M258.171,37.474c-0.136-0.832-0.739-1.388-1.355-1.906c-0.795-0.671-1.462-1.339-1.834-2.348
			c0.161,0.441,0.219,0.929,0.205,1.423c-0.051,1.797-1.475,3.535,0.405,4.905c0.692,0.505,2.357,1.509,2.54,2.443
			c-0.102-0.525-0.194-1.008-0.19-1.544C257.947,39.487,258.326,38.424,258.171,37.474z"/>
		<path d="M276.924,34.103c0.255-0.021,0.51-0.042,0.758-0.062c1.545-0.13,2.94-0.322,4.209-1.444
			c1.262-1.116,1.932-2.725,2.143-4.371c0.085-0.654,0.223-2.28-0.66-2.588c-0.614-0.215-1.076,0.19-1.084,0.772
			c-0.015,0.933,0.255,1.759,0.063,2.695c-0.194,0.963-0.575,1.896-1.119,2.716c-0.682,1.024-1.502,1.397-2.628,1.798
			C278.052,33.813,277.484,33.938,276.924,34.103z"/>
		<path d="M281.716,34.609c-1.431,0.439-2.674,0.396-4.146,0.301c0.52,0.181,1.079,0.295,1.646,0.346
			c0.794,0.072,1.604,0.022,2.348-0.13c2.118-0.434,3.884-1.497,5.173-3.271c0.734-1.012,1.271-2.282,1.434-3.529
			c0.088-0.7-0.148-2.215-1.131-2.102c-1.283,0.148-0.97,2.63-1.201,3.478C285.33,31.538,283.572,34.04,281.716,34.609z"/>
		<path d="M281.822,36.063c2.382,0.309,4.511,0.561,6.731-0.695c1.285-0.729,2.734-1.941,3.347-3.325
			c0.043-0.097,0.075-0.195,0.092-0.296c0.193-1.04-0.908-2.067-1.802-1.005c-0.876,1.036-1.279,2.512-2.229,3.519
			C286.476,35.838,283.904,36.329,281.822,36.063z"/>
		<path d="M330.015,20.333c2.236,1.307,3.92,3.634,6.766,2.968c2.193-0.514,2.855-3.265,2.652-5.156
			c-0.262-2.422-2.368-6.247-5.239-5.944c0.831,0.355,1.354,0.855,1.637,1.712c0.499,1.517,0.308,3.439-0.907,4.584
			c-1.63,1.534-2.727-0.08-4.459,0.146c2.525-0.331,3.107-2.856,2.061-4.768c-1.142-2.085-3.66-3.622-5.873-2.062
			c-1.749,1.232-0.856,3.916,1.031,4.422c1.15,0.307,2.251-0.096,2.803-0.82c0.397,1.688-0.605,3.238-4.487,2.172
			c-3.621-0.997-7.579-0.341-11.158,0.493c-0.242,0.055-0.492,0.112-0.738,0.172c-0.273,0.065-0.547,0.137-0.809,0.215
			c0.969-0.063,1.898-0.164,2.867-0.279C320.739,17.643,325.93,17.948,330.015,20.333z M333.528,20.51
			c1.144,0.195,2.211-0.066,3.16-0.867c0.719-0.607,1.314-2.145,0.891-3.073c0.563,1.229,0.49,2.985-0.535,3.982
			c-0.569,0.557-1.442,0.734-2.21,0.64c-0.795-0.096-1.322-0.636-2.014-0.86C333.059,20.41,333.295,20.472,333.528,20.51z"/>
		<path d="M334.188,12.201c0.002,0,0.004,0,0.006,0c-0.002,0-0.004-0.002-0.006-0.003C334.131,12.197,334.131,12.199,334.188,12.201
			z"/>
		<path d="M279.163,38.166c-0.511-0.241-1.061-0.574-1.579-0.938c-0.443-0.312-0.881-0.667-1.289-1.016
			c0.755,0.648,1.317,1.653,1.767,2.527c0.411,0.799,0.861,1.635,1.527,2.254c0.594,0.552,1.923,1.12,2.593,0.379
			c0.418-0.461,0.16-0.828-0.184-1.244C281.286,39.265,280.164,38.64,279.163,38.166z"/>
		<path d="M296.153,21.131c0.062-1.462-1.577-2.431-2.849-3.362c-0.427-0.313-0.813-0.621-1.078-0.942
			c0.608,1.538,0.378,3.897,1.533,5.134C294.562,22.822,296.105,22.359,296.153,21.131z"/>
		<path d="M348.915,35.786c0.278,0.515-0.363,1.579-0.727,1.892c-0.543,0.462-1.283,0.473-1.967,0.476
			c-2.593,0.005-6.294-1.089-7.652-3.445c0.191,1.265,0.242,2.648-0.033,3.902c-0.152,0.68-0.291,1.115-1.076,1.174
			c-0.146,0.012-0.348-0.016-0.552-0.074c-0.419-0.126-0.849-0.396-0.871-0.795c0.034,0.627,0.116,1.317,0.504,1.834
			c1.421,1.901,4.814,1.018,4.794-1.419c0.839,0.522,1.776,0.995,2.753,1.196c0.89,0.186,1.851,0.233,2.729-0.024
			C348.73,39.943,349.9,37.6,348.915,35.786z"/>
	</g>
</g>
</svg>
